M48
; DRILL file {KiCad 7.0.7} date Thu Sep 14 17:52:39 2023
; FORMAT={-:-/ absolute / metric / decimal}
; #@! TF.CreationDate,2023-09-14T17:52:39-03:00
; #@! TF.GenerationSoftware,Kicad,Pcbnew,7.0.7
; #@! TF.FileFunction,Plated,1,2,PTH
FMAT,2
METRIC
; #@! TA.AperFunction,Plated,PTH,ViaDrill
T1C0.400
; #@! TA.AperFunction,Plated,PTH,ComponentDrill
T2C0.800
; #@! TA.AperFunction,Plated,PTH,ComponentDrill
T3C0.950
; #@! TA.AperFunction,Plated,PTH,ComponentDrill
T4C1.000
; #@! TA.AperFunction,Plated,PTH,ComponentDrill
T5C1.016
; #@! TA.AperFunction,Plated,PTH,ComponentDrill
T6C1.300
%
G90
G05
T1
X110.347Y-43.779
X115.935Y-40.731
X117.459Y-59.019
X117.459Y-79.339
X165.719Y-75.783
X180.848Y-75.692
T2
X141.089Y-27.523
X141.089Y-37.683
T3
X108.097Y-72.058
X108.097Y-74.558
X108.097Y-77.058
X108.097Y-79.558
X121.015Y-32.993
X121.015Y-35.493
X121.015Y-37.993
X121.015Y-40.493
X128.506Y-32.993
X128.506Y-35.493
X128.506Y-37.993
X128.506Y-40.493
X135.997Y-32.993
X135.997Y-35.493
X135.997Y-37.993
X135.997Y-40.493
X180.531Y-46.844
X180.531Y-53.956
X183.031Y-46.844
X183.031Y-53.956
X185.531Y-46.844
X185.531Y-53.956
T4
X137.16Y-65.532
X139.7Y-65.532
X142.24Y-65.532
X144.78Y-65.532
X147.23Y-32.993
X147.23Y-35.493
X147.32Y-65.532
X149.86Y-65.532
X152.4Y-65.532
X154.94Y-65.532
X180.848Y-100.076
X183.388Y-100.076
X185.928Y-100.076
X188.468Y-100.076
X192.532Y-62.748
X192.532Y-65.288
X192.532Y-67.828
X192.532Y-70.368
X192.532Y-122.428
X192.532Y-124.968
X192.532Y-127.508
X192.532Y-130.048
X195.072Y-62.748
X195.072Y-65.288
X195.072Y-67.828
X195.072Y-70.368
X195.072Y-122.428
X195.072Y-124.968
X195.072Y-127.508
X195.072Y-130.048
T5
X122.031Y-50.383
X122.031Y-52.923
X122.031Y-60.543
X122.031Y-63.083
X122.031Y-65.623
X122.031Y-68.163
X122.031Y-70.703
X122.031Y-73.243
X122.031Y-75.783
X122.031Y-78.323
X122.031Y-83.403
X122.031Y-85.943
X122.031Y-88.483
X122.031Y-91.023
X122.031Y-93.563
X122.031Y-96.103
X122.031Y-98.643
X122.031Y-101.183
X122.031Y-105.247
X122.031Y-107.787
X122.031Y-110.327
X122.031Y-112.867
X122.031Y-115.407
X122.031Y-117.947
X122.031Y-120.487
X122.031Y-123.027
X122.031Y-125.567
X122.031Y-128.107
X124.571Y-50.383
X124.571Y-52.923
X127.111Y-50.383
X127.111Y-52.923
X129.651Y-50.383
X129.651Y-52.923
X132.191Y-50.383
X132.191Y-52.923
X134.731Y-50.383
X134.731Y-52.923
X137.271Y-50.383
X137.271Y-52.923
X139.811Y-50.383
X139.811Y-52.923
X142.351Y-50.383
X142.351Y-52.923
X142.351Y-80.736
X142.351Y-83.276
X144.891Y-50.383
X144.891Y-52.923
X144.891Y-80.736
X144.891Y-83.276
X147.431Y-50.383
X147.431Y-52.923
X147.431Y-80.736
X147.431Y-83.276
X149.971Y-50.383
X149.971Y-52.923
X152.511Y-50.383
X152.511Y-52.923
X155.051Y-50.383
X155.051Y-52.923
X157.591Y-50.383
X157.591Y-52.923
X160.131Y-50.383
X160.131Y-52.923
X162.671Y-50.383
X162.671Y-52.923
X165.211Y-50.383
X165.211Y-52.923
X170.291Y-55.463
X170.291Y-58.003
X170.291Y-60.543
X170.291Y-63.083
X170.291Y-65.623
X170.291Y-68.163
X170.291Y-70.703
X170.291Y-73.243
X170.291Y-78.323
X170.291Y-80.863
X170.291Y-83.403
X170.291Y-85.943
X170.291Y-88.483
X170.291Y-91.023
X170.291Y-93.563
X170.291Y-96.103
X170.291Y-101.183
X170.291Y-103.723
X170.291Y-106.263
X170.291Y-108.803
X170.291Y-111.343
X170.291Y-113.883
X170.291Y-116.423
X170.291Y-118.963
T6
X110.347Y-50.543
X110.347Y-55.543
X110.347Y-60.543
X110.347Y-65.543
X110.347Y-86.073
X110.347Y-91.073
X110.347Y-96.073
X110.347Y-101.073
X110.347Y-107.638
X110.347Y-112.638
X110.347Y-117.638
X110.347Y-124.203
X110.347Y-129.203
X153.821Y-35.143
X158.821Y-35.143
X163.821Y-35.143
X168.821Y-35.143
X173.821Y-35.143
X178.821Y-35.143
X184.709Y-82.336
X184.709Y-87.336
T0
M30
