M48
; DRILL file {KiCad 7.0.7} date Sat Sep  9 19:16:10 2023
; FORMAT={-:-/ absolute / inch / decimal}
; #@! TF.CreationDate,2023-09-09T19:16:10-03:00
; #@! TF.GenerationSoftware,Kicad,Pcbnew,7.0.7
; #@! TF.FileFunction,Plated,1,2,PTH
FMAT,2
INCH
; #@! TA.AperFunction,Plated,PTH,ViaDrill
T1C0.0157
; #@! TA.AperFunction,Plated,PTH,ComponentDrill
T2C0.0315
; #@! TA.AperFunction,Plated,PTH,ComponentDrill
T3C0.0374
; #@! TA.AperFunction,Plated,PTH,ComponentDrill
T4C0.0394
; #@! TA.AperFunction,Plated,PTH,ComponentDrill
T5C0.0400
; #@! TA.AperFunction,Plated,PTH,ComponentDrill
T6C0.0512
%
G90
G05
T1
X4.3444Y-1.7236
X4.5644Y-1.6036
X4.6244Y-2.3236
X4.6244Y-3.1236
X6.1044Y-3.8636
X6.1044Y-4.2636
X6.2644Y-3.6836
X6.2644Y-4.1436
X6.5244Y-2.9836
X7.0044Y-2.9836
X7.3844Y-2.7236
X7.5844Y-2.7236
X7.6044Y-3.5836
T2
X5.5547Y-1.0836
X5.5547Y-1.4836
T3
X4.2558Y-2.8369
X4.2558Y-2.9354
X4.2558Y-3.0338
X4.2558Y-3.1322
X4.7644Y-1.2989
X4.7644Y-1.3974
X4.7644Y-1.4958
X4.7644Y-1.5942
X5.0593Y-1.2989
X5.0593Y-1.3974
X5.0593Y-1.4958
X5.0593Y-1.5942
X5.3542Y-1.2989
X5.3542Y-1.3974
X5.3542Y-1.4958
X5.3542Y-1.5942
X7.1075Y-1.8443
X7.1075Y-2.1243
X7.2059Y-1.8443
X7.2059Y-2.1243
X7.3044Y-1.8443
X7.3044Y-2.1243
T4
X5.7965Y-1.2989
X5.7965Y-1.3974
X7.1836Y-3.6836
X7.2836Y-3.6836
X7.335Y-4.2036
X7.335Y-4.3036
X7.335Y-4.4036
X7.335Y-4.5036
X7.335Y-4.6036
X7.335Y-4.7036
X7.335Y-4.8036
X7.335Y-4.9036
X7.3836Y-3.6836
X7.4836Y-3.6836
X7.5044Y-2.9036
X7.5044Y-3.0036
X7.5044Y-3.1036
X7.5044Y-3.2036
X7.5044Y-5.3636
X7.5044Y-5.4636
X7.5044Y-5.5636
X7.5044Y-5.6636
X7.6044Y-2.9036
X7.6044Y-3.0036
X7.6044Y-3.1036
X7.6044Y-3.2036
X7.6044Y-5.3636
X7.6044Y-5.4636
X7.6044Y-5.5636
X7.6044Y-5.6636
T5
X4.8044Y-1.9836
X4.8044Y-2.0836
X4.8044Y-2.3836
X4.8044Y-2.4836
X4.8044Y-2.5836
X4.8044Y-2.6836
X4.8044Y-2.7836
X4.8044Y-2.8836
X4.8044Y-2.9836
X4.8044Y-3.0836
X4.8044Y-3.2836
X4.8044Y-3.3836
X4.8044Y-3.4836
X4.8044Y-3.5836
X4.8044Y-3.6836
X4.8044Y-3.7836
X4.8044Y-3.8836
X4.8044Y-3.9836
X4.8044Y-4.1436
X4.8044Y-4.2436
X4.8044Y-4.3436
X4.8044Y-4.4436
X4.8044Y-4.5436
X4.8044Y-4.6436
X4.8044Y-4.7436
X4.8044Y-4.8436
X4.8044Y-4.9436
X4.8044Y-5.0436
X4.9044Y-1.9836
X4.9044Y-2.0836
X5.0044Y-1.9836
X5.0044Y-2.0836
X5.1044Y-1.9836
X5.1044Y-2.0836
X5.2044Y-1.9836
X5.2044Y-2.0836
X5.3044Y-1.9836
X5.3044Y-2.0836
X5.4044Y-1.9836
X5.4044Y-2.0836
X5.5044Y-1.9836
X5.5044Y-2.0836
X5.6044Y-1.9836
X5.6044Y-2.0836
X5.6044Y-3.1786
X5.6044Y-3.2786
X5.7044Y-1.9836
X5.7044Y-2.0836
X5.7044Y-3.1786
X5.7044Y-3.2786
X5.8044Y-1.9836
X5.8044Y-2.0836
X5.8044Y-3.1786
X5.8044Y-3.2786
X5.9044Y-1.9836
X5.9044Y-2.0836
X6.0044Y-1.9836
X6.0044Y-2.0836
X6.1044Y-1.9836
X6.1044Y-2.0836
X6.2044Y-1.9836
X6.2044Y-2.0836
X6.3044Y-1.9836
X6.3044Y-2.0836
X6.4044Y-1.9836
X6.4044Y-2.0836
X6.5044Y-1.9836
X6.5044Y-2.0836
X6.7044Y-2.1836
X6.7044Y-2.2836
X6.7044Y-2.3836
X6.7044Y-2.4836
X6.7044Y-2.5836
X6.7044Y-2.6836
X6.7044Y-2.7836
X6.7044Y-2.8836
X6.7044Y-3.0836
X6.7044Y-3.1836
X6.7044Y-3.2836
X6.7044Y-3.3836
X6.7044Y-3.4836
X6.7044Y-3.5836
X6.7044Y-3.6836
X6.7044Y-3.7836
X6.7044Y-3.9836
X6.7044Y-4.0836
X6.7044Y-4.1836
X6.7044Y-4.2836
X6.7044Y-4.3836
X6.7044Y-4.4836
X6.7044Y-4.5836
X6.7044Y-4.6836
T6
X4.3444Y-1.9899
X4.3444Y-2.1867
X4.3444Y-2.3836
X4.3444Y-2.5804
X4.3444Y-3.3887
X4.3444Y-3.5856
X4.3444Y-3.7824
X4.3444Y-3.9793
X4.3444Y-4.2377
X4.3444Y-4.4346
X4.3444Y-4.6314
X4.3444Y-4.8899
X4.3444Y-5.0867
X6.0559Y-1.3836
X6.2528Y-1.3836
X6.4496Y-1.3836
X6.6465Y-1.3836
X6.8434Y-1.3836
X7.0402Y-1.3836
X7.2197Y-2.3667
X7.2197Y-2.5636
T0
M30
