  0
SECTION
  2
HEADER
  9
$ANGBASE
  50
0.0
  9
$ANGDIR
  70
1
  9
$MEASUREMENT
  70
1
  0
ENDSEC
  0
SECTION
  2
TABLES
  0
TABLE
  2
LTYPE
  70
4
  0
LTYPE
  5
40F
  2
CONTINUOUS
  70
0
  3
Solid line
  72
65
  73
0
  40
0.0
  0
LTYPE
  5
410
  2
DASHDOT
 70
0
  3
Dash Dot ____ _ ____ _
 72
65
 73
4
 40
2.0
 49
1.25
 49
-0.25
 49
0.25
 49
-0.25
  0
LTYPE
  5
411
  2
DASHED
 70
0
  3
Dashed __ __ __ __ __
 72
65
 73
2
 40
0.75
 49
0.5
 49
-0.25
  0
LTYPE
  5
43B
  2
DOTTED
 70
0
  3
Dotted .  .  .  .
 72
65
 73
2
 40
0.2
 49
0.0
 49
-0.2
  0
ENDTAB
  0
TABLE
  2
STYLE
  70
4
  0
STYLE
  2
KICAD
  70
0
  40
0
  41
1
  42
1
  50
0
  71
0
  3
isocp.shx
  0
STYLE
  2
KICADB
  70
0
  40
0
  41
1
  42
1
  50
0
  71
0
  3
isocp.shx
  0
STYLE
  2
KICADI
  70
0
  40
0
  41
1
  42
1
  50
15
  71
0
  3
isocp.shx
  0
STYLE
  2
KICADBI
  70
0
  40
0
  41
1
  42
1
  50
15
  71
0
  3
isocp.shx
  0
ENDTAB
  0
TABLE
  2
LAYER
  70
1
  0
LAYER
  2
BLACK
  70
0
  62
7
  6
CONTINUOUS
  0
ENDTAB
  0
ENDSEC
  0
SECTION
  2
ENTITIES
0
ARC
8
BLACK
10
187.563
20
-27.015
40
4.572
50
-0
51
90
0
LINE
8
BLACK
6
CONTINUOUS
10
126.28
20
-136.235
11
126.288
21
-146.396
0
ARC
8
BLACK
10
196.704
20
-59.5517
40
4.5974
50
-180.308
51
-96.3398
0
LINE
8
BLACK
6
CONTINUOUS
10
107.299
20
-22.443
11
187.563
21
-22.443
0
ARC
8
BLACK
10
177.403
20
-146.395
40
4.572
50
-180
51
-90
0
ARC
8
BLACK
10
168.259
20
-136.235
40
4.572
50
-0
51
90
0
LINE
8
BLACK
6
CONTINUOUS
10
102.727
20
-146.395
11
102.727
21
-27.015
0
ARC
8
BLACK
10
130.852
20
-136.235
40
4.57201
50
90.0001
51
180
0
LINE
8
BLACK
6
CONTINUOUS
10
192.135
20
-27.015
11
192.107
21
-59.527
0
LINE
8
BLACK
6
CONTINUOUS
10
200.263
20
-68.671
11
200.263
21
-146.395
0
ARC
8
BLACK
10
195.691
20
-146.395
40
4.572
50
-90
51
-0
0
LINE
8
BLACK
6
CONTINUOUS
10
177.403
20
-150.967
11
195.691
21
-150.967
0
LINE
8
BLACK
6
CONTINUOUS
10
168.259
20
-131.663
11
130.852
21
-131.663
0
ARC
8
BLACK
10
107.299
20
-27.015
40
4.572
50
90
51
180
0
ARC
8
BLACK
10
107.299
20
-146.395
40
4.572
50
-180
51
-90
0
LINE
8
BLACK
6
CONTINUOUS
10
121.716
20
-150.968
11
107.299
21
-150.967
0
LINE
8
BLACK
6
CONTINUOUS
10
172.831
20
-146.395
11
172.831
21
-136.235
0
ARC
8
BLACK
10
121.716
20
-146.396
40
4.572
50
-89.9999
51
-3.75956e-05
0
ARC
8
BLACK
10
195.687
20
-68.6709
40
4.57563
50
-0.00125218
51
83.6139
0
LINE
8
BLACK
6
CONTINUOUS
10
110.147
20
-43.579
11
110.547
21
-43.979
0
LINE
8
BLACK
6
CONTINUOUS
10
110.547
20
-43.579
11
110.147
21
-43.979
0
LINE
8
BLACK
6
CONTINUOUS
10
115.735
20
-40.531
11
116.135
21
-40.931
0
LINE
8
BLACK
6
CONTINUOUS
10
116.135
20
-40.531
11
115.735
21
-40.931
0
LINE
8
BLACK
6
CONTINUOUS
10
117.259
20
-58.819
11
117.659
21
-59.219
0
LINE
8
BLACK
6
CONTINUOUS
10
117.659
20
-58.819
11
117.259
21
-59.219
0
LINE
8
BLACK
6
CONTINUOUS
10
117.259
20
-79.139
11
117.659
21
-79.539
0
LINE
8
BLACK
6
CONTINUOUS
10
117.659
20
-79.139
11
117.259
21
-79.539
0
LINE
8
BLACK
6
CONTINUOUS
10
154.851
20
-97.935
11
155.251
21
-98.335
0
LINE
8
BLACK
6
CONTINUOUS
10
155.251
20
-97.935
11
154.851
21
-98.335
0
LINE
8
BLACK
6
CONTINUOUS
10
154.851
20
-108.095
11
155.251
21
-108.495
0
LINE
8
BLACK
6
CONTINUOUS
10
155.251
20
-108.095
11
154.851
21
-108.495
0
LINE
8
BLACK
6
CONTINUOUS
10
158.915
20
-93.363
11
159.315
21
-93.763
0
LINE
8
BLACK
6
CONTINUOUS
10
159.315
20
-93.363
11
158.915
21
-93.763
0
LINE
8
BLACK
6
CONTINUOUS
10
158.915
20
-105.047
11
159.315
21
-105.447
0
LINE
8
BLACK
6
CONTINUOUS
10
159.315
20
-105.047
11
158.915
21
-105.447
0
LINE
8
BLACK
6
CONTINUOUS
10
165.519
20
-75.583
11
165.919
21
-75.983
0
LINE
8
BLACK
6
CONTINUOUS
10
165.919
20
-75.583
11
165.519
21
-75.983
0
LINE
8
BLACK
6
CONTINUOUS
10
177.711
20
-75.583
11
178.111
21
-75.983
0
LINE
8
BLACK
6
CONTINUOUS
10
178.111
20
-75.583
11
177.711
21
-75.983
0
LINE
8
BLACK
6
CONTINUOUS
10
187.363
20
-68.979
11
187.763
21
-69.379
0
LINE
8
BLACK
6
CONTINUOUS
10
187.763
20
-68.979
11
187.363
21
-69.379
0
LINE
8
BLACK
6
CONTINUOUS
10
192.443
20
-68.979
11
192.843
21
-69.379
0
LINE
8
BLACK
6
CONTINUOUS
10
192.843
20
-68.979
11
192.443
21
-69.379
0
LINE
8
BLACK
6
CONTINUOUS
10
192.951
20
-90.823
11
193.351
21
-91.223
0
LINE
8
BLACK
6
CONTINUOUS
10
193.351
20
-90.823
11
192.951
21
-91.223
0
CIRCLE
8
BLACK
10
141.089
20
-27.523
40
0.4
0
CIRCLE
8
BLACK
10
141.089
20
-37.683
40
0.4
0
LINE
8
BLACK
6
CONTINUOUS
10
108.097
20
-71.583
11
108.097
21
-72.533
0
LINE
8
BLACK
6
CONTINUOUS
10
107.622
20
-72.058
11
108.572
21
-72.058
0
LINE
8
BLACK
6
CONTINUOUS
10
108.097
20
-74.083
11
108.097
21
-75.033
0
LINE
8
BLACK
6
CONTINUOUS
10
107.622
20
-74.558
11
108.572
21
-74.558
0
LINE
8
BLACK
6
CONTINUOUS
10
108.097
20
-76.583
11
108.097
21
-77.533
0
LINE
8
BLACK
6
CONTINUOUS
10
107.622
20
-77.058
11
108.572
21
-77.058
0
LINE
8
BLACK
6
CONTINUOUS
10
108.097
20
-79.083
11
108.097
21
-80.033
0
LINE
8
BLACK
6
CONTINUOUS
10
107.622
20
-79.558
11
108.572
21
-79.558
0
LINE
8
BLACK
6
CONTINUOUS
10
121.015
20
-32.518
11
121.015
21
-33.468
0
LINE
8
BLACK
6
CONTINUOUS
10
120.54
20
-32.993
11
121.49
21
-32.993
0
LINE
8
BLACK
6
CONTINUOUS
10
121.015
20
-35.018
11
121.015
21
-35.968
0
LINE
8
BLACK
6
CONTINUOUS
10
120.54
20
-35.493
11
121.49
21
-35.493
0
LINE
8
BLACK
6
CONTINUOUS
10
121.015
20
-37.518
11
121.015
21
-38.468
0
LINE
8
BLACK
6
CONTINUOUS
10
120.54
20
-37.993
11
121.49
21
-37.993
0
LINE
8
BLACK
6
CONTINUOUS
10
121.015
20
-40.018
11
121.015
21
-40.968
0
LINE
8
BLACK
6
CONTINUOUS
10
120.54
20
-40.493
11
121.49
21
-40.493
0
LINE
8
BLACK
6
CONTINUOUS
10
128.506
20
-32.518
11
128.506
21
-33.468
0
LINE
8
BLACK
6
CONTINUOUS
10
128.031
20
-32.993
11
128.981
21
-32.993
0
LINE
8
BLACK
6
CONTINUOUS
10
128.506
20
-35.018
11
128.506
21
-35.968
0
LINE
8
BLACK
6
CONTINUOUS
10
128.031
20
-35.493
11
128.981
21
-35.493
0
LINE
8
BLACK
6
CONTINUOUS
10
128.506
20
-37.518
11
128.506
21
-38.468
0
LINE
8
BLACK
6
CONTINUOUS
10
128.031
20
-37.993
11
128.981
21
-37.993
0
LINE
8
BLACK
6
CONTINUOUS
10
128.506
20
-40.018
11
128.506
21
-40.968
0
LINE
8
BLACK
6
CONTINUOUS
10
128.031
20
-40.493
11
128.981
21
-40.493
0
LINE
8
BLACK
6
CONTINUOUS
10
135.997
20
-32.518
11
135.997
21
-33.468
0
LINE
8
BLACK
6
CONTINUOUS
10
135.522
20
-32.993
11
136.472
21
-32.993
0
LINE
8
BLACK
6
CONTINUOUS
10
135.997
20
-35.018
11
135.997
21
-35.968
0
LINE
8
BLACK
6
CONTINUOUS
10
135.522
20
-35.493
11
136.472
21
-35.493
0
LINE
8
BLACK
6
CONTINUOUS
10
135.997
20
-37.518
11
135.997
21
-38.468
0
LINE
8
BLACK
6
CONTINUOUS
10
135.522
20
-37.993
11
136.472
21
-37.993
0
LINE
8
BLACK
6
CONTINUOUS
10
135.997
20
-40.018
11
135.997
21
-40.968
0
LINE
8
BLACK
6
CONTINUOUS
10
135.522
20
-40.493
11
136.472
21
-40.493
0
LINE
8
BLACK
6
CONTINUOUS
10
180.531
20
-46.369
11
180.531
21
-47.319
0
LINE
8
BLACK
6
CONTINUOUS
10
180.056
20
-46.844
11
181.006
21
-46.844
0
LINE
8
BLACK
6
CONTINUOUS
10
180.531
20
-53.481
11
180.531
21
-54.431
0
LINE
8
BLACK
6
CONTINUOUS
10
180.056
20
-53.956
11
181.006
21
-53.956
0
LINE
8
BLACK
6
CONTINUOUS
10
183.031
20
-46.369
11
183.031
21
-47.319
0
LINE
8
BLACK
6
CONTINUOUS
10
182.556
20
-46.844
11
183.506
21
-46.844
0
LINE
8
BLACK
6
CONTINUOUS
10
183.031
20
-53.481
11
183.031
21
-54.431
0
LINE
8
BLACK
6
CONTINUOUS
10
182.556
20
-53.956
11
183.506
21
-53.956
0
LINE
8
BLACK
6
CONTINUOUS
10
185.531
20
-46.369
11
185.531
21
-47.319
0
LINE
8
BLACK
6
CONTINUOUS
10
185.056
20
-46.844
11
186.006
21
-46.844
0
LINE
8
BLACK
6
CONTINUOUS
10
185.531
20
-53.481
11
185.531
21
-54.431
0
LINE
8
BLACK
6
CONTINUOUS
10
185.056
20
-53.956
11
186.006
21
-53.956
0
LINE
8
BLACK
6
CONTINUOUS
10
147.583
20
-33.3466
11
147.583
21
-32.6394
0
LINE
8
BLACK
6
CONTINUOUS
10
147.583
20
-32.6394
11
146.876
21
-32.6394
0
LINE
8
BLACK
6
CONTINUOUS
10
146.876
20
-32.6394
11
146.876
21
-33.3466
0
LINE
8
BLACK
6
CONTINUOUS
10
146.876
20
-33.3466
11
147.583
21
-33.3466
0
LINE
8
BLACK
6
CONTINUOUS
10
147.583
20
-35.8466
11
147.583
21
-35.1394
0
LINE
8
BLACK
6
CONTINUOUS
10
147.583
20
-35.1394
11
146.876
21
-35.1394
0
LINE
8
BLACK
6
CONTINUOUS
10
146.876
20
-35.1394
11
146.876
21
-35.8466
0
LINE
8
BLACK
6
CONTINUOUS
10
146.876
20
-35.8466
11
147.583
21
-35.8466
0
LINE
8
BLACK
6
CONTINUOUS
10
182.817
20
-93.9166
11
182.817
21
-93.2094
0
LINE
8
BLACK
6
CONTINUOUS
10
182.817
20
-93.2094
11
182.109
21
-93.2094
0
LINE
8
BLACK
6
CONTINUOUS
10
182.109
20
-93.2094
11
182.109
21
-93.9166
0
LINE
8
BLACK
6
CONTINUOUS
10
182.109
20
-93.9166
11
182.817
21
-93.9166
0
LINE
8
BLACK
6
CONTINUOUS
10
185.357
20
-93.9166
11
185.357
21
-93.2094
0
LINE
8
BLACK
6
CONTINUOUS
10
185.357
20
-93.2094
11
184.649
21
-93.2094
0
LINE
8
BLACK
6
CONTINUOUS
10
184.649
20
-93.2094
11
184.649
21
-93.9166
0
LINE
8
BLACK
6
CONTINUOUS
10
184.649
20
-93.9166
11
185.357
21
-93.9166
0
LINE
8
BLACK
6
CONTINUOUS
10
186.662
20
-107.125
11
186.662
21
-106.417
0
LINE
8
BLACK
6
CONTINUOUS
10
186.662
20
-106.417
11
185.954
21
-106.417
0
LINE
8
BLACK
6
CONTINUOUS
10
185.954
20
-106.417
11
185.954
21
-107.125
0
LINE
8
BLACK
6
CONTINUOUS
10
185.954
20
-107.125
11
186.662
21
-107.125
0
LINE
8
BLACK
6
CONTINUOUS
10
186.662
20
-109.665
11
186.662
21
-108.957
0
LINE
8
BLACK
6
CONTINUOUS
10
186.662
20
-108.957
11
185.954
21
-108.957
0
LINE
8
BLACK
6
CONTINUOUS
10
185.954
20
-108.957
11
185.954
21
-109.665
0
LINE
8
BLACK
6
CONTINUOUS
10
185.954
20
-109.665
11
186.662
21
-109.665
0
LINE
8
BLACK
6
CONTINUOUS
10
186.662
20
-112.205
11
186.662
21
-111.497
0
LINE
8
BLACK
6
CONTINUOUS
10
186.662
20
-111.497
11
185.954
21
-111.497
0
LINE
8
BLACK
6
CONTINUOUS
10
185.954
20
-111.497
11
185.954
21
-112.205
0
LINE
8
BLACK
6
CONTINUOUS
10
185.954
20
-112.205
11
186.662
21
-112.205
0
LINE
8
BLACK
6
CONTINUOUS
10
186.662
20
-114.745
11
186.662
21
-114.037
0
LINE
8
BLACK
6
CONTINUOUS
10
186.662
20
-114.037
11
185.954
21
-114.037
0
LINE
8
BLACK
6
CONTINUOUS
10
185.954
20
-114.037
11
185.954
21
-114.745
0
LINE
8
BLACK
6
CONTINUOUS
10
185.954
20
-114.745
11
186.662
21
-114.745
0
LINE
8
BLACK
6
CONTINUOUS
10
186.662
20
-117.285
11
186.662
21
-116.577
0
LINE
8
BLACK
6
CONTINUOUS
10
186.662
20
-116.577
11
185.954
21
-116.577
0
LINE
8
BLACK
6
CONTINUOUS
10
185.954
20
-116.577
11
185.954
21
-117.285
0
LINE
8
BLACK
6
CONTINUOUS
10
185.954
20
-117.285
11
186.662
21
-117.285
0
LINE
8
BLACK
6
CONTINUOUS
10
186.662
20
-119.825
11
186.662
21
-119.117
0
LINE
8
BLACK
6
CONTINUOUS
10
186.662
20
-119.117
11
185.954
21
-119.117
0
LINE
8
BLACK
6
CONTINUOUS
10
185.954
20
-119.117
11
185.954
21
-119.825
0
LINE
8
BLACK
6
CONTINUOUS
10
185.954
20
-119.825
11
186.662
21
-119.825
0
LINE
8
BLACK
6
CONTINUOUS
10
186.662
20
-122.365
11
186.662
21
-121.657
0
LINE
8
BLACK
6
CONTINUOUS
10
186.662
20
-121.657
11
185.954
21
-121.657
0
LINE
8
BLACK
6
CONTINUOUS
10
185.954
20
-121.657
11
185.954
21
-122.365
0
LINE
8
BLACK
6
CONTINUOUS
10
185.954
20
-122.365
11
186.662
21
-122.365
0
LINE
8
BLACK
6
CONTINUOUS
10
186.662
20
-124.905
11
186.662
21
-124.197
0
LINE
8
BLACK
6
CONTINUOUS
10
186.662
20
-124.197
11
185.954
21
-124.197
0
LINE
8
BLACK
6
CONTINUOUS
10
185.954
20
-124.197
11
185.954
21
-124.905
0
LINE
8
BLACK
6
CONTINUOUS
10
185.954
20
-124.905
11
186.662
21
-124.905
0
LINE
8
BLACK
6
CONTINUOUS
10
187.897
20
-93.9166
11
187.897
21
-93.2094
0
LINE
8
BLACK
6
CONTINUOUS
10
187.897
20
-93.2094
11
187.189
21
-93.2094
0
LINE
8
BLACK
6
CONTINUOUS
10
187.189
20
-93.2094
11
187.189
21
-93.9166
0
LINE
8
BLACK
6
CONTINUOUS
10
187.189
20
-93.9166
11
187.897
21
-93.9166
0
LINE
8
BLACK
6
CONTINUOUS
10
190.437
20
-93.9166
11
190.437
21
-93.2094
0
LINE
8
BLACK
6
CONTINUOUS
10
190.437
20
-93.2094
11
189.729
21
-93.2094
0
LINE
8
BLACK
6
CONTINUOUS
10
189.729
20
-93.2094
11
189.729
21
-93.9166
0
LINE
8
BLACK
6
CONTINUOUS
10
189.729
20
-93.9166
11
190.437
21
-93.9166
0
LINE
8
BLACK
6
CONTINUOUS
10
190.965
20
-74.1046
11
190.965
21
-73.3974
0
LINE
8
BLACK
6
CONTINUOUS
10
190.965
20
-73.3974
11
190.257
21
-73.3974
0
LINE
8
BLACK
6
CONTINUOUS
10
190.257
20
-73.3974
11
190.257
21
-74.1046
0
LINE
8
BLACK
6
CONTINUOUS
10
190.257
20
-74.1046
11
190.965
21
-74.1046
0
LINE
8
BLACK
6
CONTINUOUS
10
190.965
20
-76.6446
11
190.965
21
-75.9374
0
LINE
8
BLACK
6
CONTINUOUS
10
190.965
20
-75.9374
11
190.257
21
-75.9374
0
LINE
8
BLACK
6
CONTINUOUS
10
190.257
20
-75.9374
11
190.257
21
-76.6446
0
LINE
8
BLACK
6
CONTINUOUS
10
190.257
20
-76.6446
11
190.965
21
-76.6446
0
LINE
8
BLACK
6
CONTINUOUS
10
190.965
20
-79.1846
11
190.965
21
-78.4774
0
LINE
8
BLACK
6
CONTINUOUS
10
190.965
20
-78.4774
11
190.257
21
-78.4774
0
LINE
8
BLACK
6
CONTINUOUS
10
190.257
20
-78.4774
11
190.257
21
-79.1846
0
LINE
8
BLACK
6
CONTINUOUS
10
190.257
20
-79.1846
11
190.965
21
-79.1846
0
LINE
8
BLACK
6
CONTINUOUS
10
190.965
20
-81.7246
11
190.965
21
-81.0174
0
LINE
8
BLACK
6
CONTINUOUS
10
190.965
20
-81.0174
11
190.257
21
-81.0174
0
LINE
8
BLACK
6
CONTINUOUS
10
190.257
20
-81.0174
11
190.257
21
-81.7246
0
LINE
8
BLACK
6
CONTINUOUS
10
190.257
20
-81.7246
11
190.965
21
-81.7246
0
LINE
8
BLACK
6
CONTINUOUS
10
190.965
20
-136.589
11
190.965
21
-135.881
0
LINE
8
BLACK
6
CONTINUOUS
10
190.965
20
-135.881
11
190.257
21
-135.881
0
LINE
8
BLACK
6
CONTINUOUS
10
190.257
20
-135.881
11
190.257
21
-136.589
0
LINE
8
BLACK
6
CONTINUOUS
10
190.257
20
-136.589
11
190.965
21
-136.589
0
LINE
8
BLACK
6
CONTINUOUS
10
190.965
20
-139.129
11
190.965
21
-138.421
0
LINE
8
BLACK
6
CONTINUOUS
10
190.965
20
-138.421
11
190.257
21
-138.421
0
LINE
8
BLACK
6
CONTINUOUS
10
190.257
20
-138.421
11
190.257
21
-139.129
0
LINE
8
BLACK
6
CONTINUOUS
10
190.257
20
-139.129
11
190.965
21
-139.129
0
LINE
8
BLACK
6
CONTINUOUS
10
190.965
20
-141.669
11
190.965
21
-140.961
0
LINE
8
BLACK
6
CONTINUOUS
10
190.965
20
-140.961
11
190.257
21
-140.961
0
LINE
8
BLACK
6
CONTINUOUS
10
190.257
20
-140.961
11
190.257
21
-141.669
0
LINE
8
BLACK
6
CONTINUOUS
10
190.257
20
-141.669
11
190.965
21
-141.669
0
LINE
8
BLACK
6
CONTINUOUS
10
190.965
20
-144.209
11
190.965
21
-143.501
0
LINE
8
BLACK
6
CONTINUOUS
10
190.965
20
-143.501
11
190.257
21
-143.501
0
LINE
8
BLACK
6
CONTINUOUS
10
190.257
20
-143.501
11
190.257
21
-144.209
0
LINE
8
BLACK
6
CONTINUOUS
10
190.257
20
-144.209
11
190.965
21
-144.209
0
LINE
8
BLACK
6
CONTINUOUS
10
193.505
20
-74.1046
11
193.505
21
-73.3974
0
LINE
8
BLACK
6
CONTINUOUS
10
193.505
20
-73.3974
11
192.797
21
-73.3974
0
LINE
8
BLACK
6
CONTINUOUS
10
192.797
20
-73.3974
11
192.797
21
-74.1046
0
LINE
8
BLACK
6
CONTINUOUS
10
192.797
20
-74.1046
11
193.505
21
-74.1046
0
LINE
8
BLACK
6
CONTINUOUS
10
193.505
20
-76.6446
11
193.505
21
-75.9374
0
LINE
8
BLACK
6
CONTINUOUS
10
193.505
20
-75.9374
11
192.797
21
-75.9374
0
LINE
8
BLACK
6
CONTINUOUS
10
192.797
20
-75.9374
11
192.797
21
-76.6446
0
LINE
8
BLACK
6
CONTINUOUS
10
192.797
20
-76.6446
11
193.505
21
-76.6446
0
LINE
8
BLACK
6
CONTINUOUS
10
193.505
20
-79.1846
11
193.505
21
-78.4774
0
LINE
8
BLACK
6
CONTINUOUS
10
193.505
20
-78.4774
11
192.797
21
-78.4774
0
LINE
8
BLACK
6
CONTINUOUS
10
192.797
20
-78.4774
11
192.797
21
-79.1846
0
LINE
8
BLACK
6
CONTINUOUS
10
192.797
20
-79.1846
11
193.505
21
-79.1846
0
LINE
8
BLACK
6
CONTINUOUS
10
193.505
20
-81.7246
11
193.505
21
-81.0174
0
LINE
8
BLACK
6
CONTINUOUS
10
193.505
20
-81.0174
11
192.797
21
-81.0174
0
LINE
8
BLACK
6
CONTINUOUS
10
192.797
20
-81.0174
11
192.797
21
-81.7246
0
LINE
8
BLACK
6
CONTINUOUS
10
192.797
20
-81.7246
11
193.505
21
-81.7246
0
LINE
8
BLACK
6
CONTINUOUS
10
193.505
20
-136.589
11
193.505
21
-135.881
0
LINE
8
BLACK
6
CONTINUOUS
10
193.505
20
-135.881
11
192.797
21
-135.881
0
LINE
8
BLACK
6
CONTINUOUS
10
192.797
20
-135.881
11
192.797
21
-136.589
0
LINE
8
BLACK
6
CONTINUOUS
10
192.797
20
-136.589
11
193.505
21
-136.589
0
LINE
8
BLACK
6
CONTINUOUS
10
193.505
20
-139.129
11
193.505
21
-138.421
0
LINE
8
BLACK
6
CONTINUOUS
10
193.505
20
-138.421
11
192.797
21
-138.421
0
LINE
8
BLACK
6
CONTINUOUS
10
192.797
20
-138.421
11
192.797
21
-139.129
0
LINE
8
BLACK
6
CONTINUOUS
10
192.797
20
-139.129
11
193.505
21
-139.129
0
LINE
8
BLACK
6
CONTINUOUS
10
193.505
20
-141.669
11
193.505
21
-140.961
0
LINE
8
BLACK
6
CONTINUOUS
10
193.505
20
-140.961
11
192.797
21
-140.961
0
LINE
8
BLACK
6
CONTINUOUS
10
192.797
20
-140.961
11
192.797
21
-141.669
0
LINE
8
BLACK
6
CONTINUOUS
10
192.797
20
-141.669
11
193.505
21
-141.669
0
LINE
8
BLACK
6
CONTINUOUS
10
193.505
20
-144.209
11
193.505
21
-143.501
0
LINE
8
BLACK
6
CONTINUOUS
10
193.505
20
-143.501
11
192.797
21
-143.501
0
LINE
8
BLACK
6
CONTINUOUS
10
192.797
20
-143.501
11
192.797
21
-144.209
0
LINE
8
BLACK
6
CONTINUOUS
10
192.797
20
-144.209
11
193.505
21
-144.209
0
LINE
8
BLACK
6
CONTINUOUS
10
122.031
20
-50.891
11
122.539
21
-50.383
0
LINE
8
BLACK
6
CONTINUOUS
10
122.539
20
-50.383
11
122.031
21
-49.875
0
LINE
8
BLACK
6
CONTINUOUS
10
122.031
20
-49.875
11
121.523
21
-50.383
0
LINE
8
BLACK
6
CONTINUOUS
10
121.523
20
-50.383
11
122.031
21
-50.891
0
LINE
8
BLACK
6
CONTINUOUS
10
122.031
20
-53.431
11
122.539
21
-52.923
0
LINE
8
BLACK
6
CONTINUOUS
10
122.539
20
-52.923
11
122.031
21
-52.415
0
LINE
8
BLACK
6
CONTINUOUS
10
122.031
20
-52.415
11
121.523
21
-52.923
0
LINE
8
BLACK
6
CONTINUOUS
10
121.523
20
-52.923
11
122.031
21
-53.431
0
LINE
8
BLACK
6
CONTINUOUS
10
122.031
20
-61.051
11
122.539
21
-60.543
0
LINE
8
BLACK
6
CONTINUOUS
10
122.539
20
-60.543
11
122.031
21
-60.035
0
LINE
8
BLACK
6
CONTINUOUS
10
122.031
20
-60.035
11
121.523
21
-60.543
0
LINE
8
BLACK
6
CONTINUOUS
10
121.523
20
-60.543
11
122.031
21
-61.051
0
LINE
8
BLACK
6
CONTINUOUS
10
122.031
20
-63.591
11
122.539
21
-63.083
0
LINE
8
BLACK
6
CONTINUOUS
10
122.539
20
-63.083
11
122.031
21
-62.575
0
LINE
8
BLACK
6
CONTINUOUS
10
122.031
20
-62.575
11
121.523
21
-63.083
0
LINE
8
BLACK
6
CONTINUOUS
10
121.523
20
-63.083
11
122.031
21
-63.591
0
LINE
8
BLACK
6
CONTINUOUS
10
122.031
20
-66.131
11
122.539
21
-65.623
0
LINE
8
BLACK
6
CONTINUOUS
10
122.539
20
-65.623
11
122.031
21
-65.115
0
LINE
8
BLACK
6
CONTINUOUS
10
122.031
20
-65.115
11
121.523
21
-65.623
0
LINE
8
BLACK
6
CONTINUOUS
10
121.523
20
-65.623
11
122.031
21
-66.131
0
LINE
8
BLACK
6
CONTINUOUS
10
122.031
20
-68.671
11
122.539
21
-68.163
0
LINE
8
BLACK
6
CONTINUOUS
10
122.539
20
-68.163
11
122.031
21
-67.655
0
LINE
8
BLACK
6
CONTINUOUS
10
122.031
20
-67.655
11
121.523
21
-68.163
0
LINE
8
BLACK
6
CONTINUOUS
10
121.523
20
-68.163
11
122.031
21
-68.671
0
LINE
8
BLACK
6
CONTINUOUS
10
122.031
20
-71.211
11
122.539
21
-70.703
0
LINE
8
BLACK
6
CONTINUOUS
10
122.539
20
-70.703
11
122.031
21
-70.195
0
LINE
8
BLACK
6
CONTINUOUS
10
122.031
20
-70.195
11
121.523
21
-70.703
0
LINE
8
BLACK
6
CONTINUOUS
10
121.523
20
-70.703
11
122.031
21
-71.211
0
LINE
8
BLACK
6
CONTINUOUS
10
122.031
20
-73.751
11
122.539
21
-73.243
0
LINE
8
BLACK
6
CONTINUOUS
10
122.539
20
-73.243
11
122.031
21
-72.735
0
LINE
8
BLACK
6
CONTINUOUS
10
122.031
20
-72.735
11
121.523
21
-73.243
0
LINE
8
BLACK
6
CONTINUOUS
10
121.523
20
-73.243
11
122.031
21
-73.751
0
LINE
8
BLACK
6
CONTINUOUS
10
122.031
20
-76.291
11
122.539
21
-75.783
0
LINE
8
BLACK
6
CONTINUOUS
10
122.539
20
-75.783
11
122.031
21
-75.275
0
LINE
8
BLACK
6
CONTINUOUS
10
122.031
20
-75.275
11
121.523
21
-75.783
0
LINE
8
BLACK
6
CONTINUOUS
10
121.523
20
-75.783
11
122.031
21
-76.291
0
LINE
8
BLACK
6
CONTINUOUS
10
122.031
20
-78.831
11
122.539
21
-78.323
0
LINE
8
BLACK
6
CONTINUOUS
10
122.539
20
-78.323
11
122.031
21
-77.815
0
LINE
8
BLACK
6
CONTINUOUS
10
122.031
20
-77.815
11
121.523
21
-78.323
0
LINE
8
BLACK
6
CONTINUOUS
10
121.523
20
-78.323
11
122.031
21
-78.831
0
LINE
8
BLACK
6
CONTINUOUS
10
122.031
20
-83.911
11
122.539
21
-83.403
0
LINE
8
BLACK
6
CONTINUOUS
10
122.539
20
-83.403
11
122.031
21
-82.895
0
LINE
8
BLACK
6
CONTINUOUS
10
122.031
20
-82.895
11
121.523
21
-83.403
0
LINE
8
BLACK
6
CONTINUOUS
10
121.523
20
-83.403
11
122.031
21
-83.911
0
LINE
8
BLACK
6
CONTINUOUS
10
122.031
20
-86.451
11
122.539
21
-85.943
0
LINE
8
BLACK
6
CONTINUOUS
10
122.539
20
-85.943
11
122.031
21
-85.435
0
LINE
8
BLACK
6
CONTINUOUS
10
122.031
20
-85.435
11
121.523
21
-85.943
0
LINE
8
BLACK
6
CONTINUOUS
10
121.523
20
-85.943
11
122.031
21
-86.451
0
LINE
8
BLACK
6
CONTINUOUS
10
122.031
20
-88.991
11
122.539
21
-88.483
0
LINE
8
BLACK
6
CONTINUOUS
10
122.539
20
-88.483
11
122.031
21
-87.975
0
LINE
8
BLACK
6
CONTINUOUS
10
122.031
20
-87.975
11
121.523
21
-88.483
0
LINE
8
BLACK
6
CONTINUOUS
10
121.523
20
-88.483
11
122.031
21
-88.991
0
LINE
8
BLACK
6
CONTINUOUS
10
122.031
20
-91.531
11
122.539
21
-91.023
0
LINE
8
BLACK
6
CONTINUOUS
10
122.539
20
-91.023
11
122.031
21
-90.515
0
LINE
8
BLACK
6
CONTINUOUS
10
122.031
20
-90.515
11
121.523
21
-91.023
0
LINE
8
BLACK
6
CONTINUOUS
10
121.523
20
-91.023
11
122.031
21
-91.531
0
LINE
8
BLACK
6
CONTINUOUS
10
122.031
20
-94.071
11
122.539
21
-93.563
0
LINE
8
BLACK
6
CONTINUOUS
10
122.539
20
-93.563
11
122.031
21
-93.055
0
LINE
8
BLACK
6
CONTINUOUS
10
122.031
20
-93.055
11
121.523
21
-93.563
0
LINE
8
BLACK
6
CONTINUOUS
10
121.523
20
-93.563
11
122.031
21
-94.071
0
LINE
8
BLACK
6
CONTINUOUS
10
122.031
20
-96.611
11
122.539
21
-96.103
0
LINE
8
BLACK
6
CONTINUOUS
10
122.539
20
-96.103
11
122.031
21
-95.595
0
LINE
8
BLACK
6
CONTINUOUS
10
122.031
20
-95.595
11
121.523
21
-96.103
0
LINE
8
BLACK
6
CONTINUOUS
10
121.523
20
-96.103
11
122.031
21
-96.611
0
LINE
8
BLACK
6
CONTINUOUS
10
122.031
20
-99.151
11
122.539
21
-98.643
0
LINE
8
BLACK
6
CONTINUOUS
10
122.539
20
-98.643
11
122.031
21
-98.135
0
LINE
8
BLACK
6
CONTINUOUS
10
122.031
20
-98.135
11
121.523
21
-98.643
0
LINE
8
BLACK
6
CONTINUOUS
10
121.523
20
-98.643
11
122.031
21
-99.151
0
LINE
8
BLACK
6
CONTINUOUS
10
122.031
20
-101.691
11
122.539
21
-101.183
0
LINE
8
BLACK
6
CONTINUOUS
10
122.539
20
-101.183
11
122.031
21
-100.675
0
LINE
8
BLACK
6
CONTINUOUS
10
122.031
20
-100.675
11
121.523
21
-101.183
0
LINE
8
BLACK
6
CONTINUOUS
10
121.523
20
-101.183
11
122.031
21
-101.691
0
LINE
8
BLACK
6
CONTINUOUS
10
122.031
20
-105.755
11
122.539
21
-105.247
0
LINE
8
BLACK
6
CONTINUOUS
10
122.539
20
-105.247
11
122.031
21
-104.739
0
LINE
8
BLACK
6
CONTINUOUS
10
122.031
20
-104.739
11
121.523
21
-105.247
0
LINE
8
BLACK
6
CONTINUOUS
10
121.523
20
-105.247
11
122.031
21
-105.755
0
LINE
8
BLACK
6
CONTINUOUS
10
122.031
20
-108.295
11
122.539
21
-107.787
0
LINE
8
BLACK
6
CONTINUOUS
10
122.539
20
-107.787
11
122.031
21
-107.279
0
LINE
8
BLACK
6
CONTINUOUS
10
122.031
20
-107.279
11
121.523
21
-107.787
0
LINE
8
BLACK
6
CONTINUOUS
10
121.523
20
-107.787
11
122.031
21
-108.295
0
LINE
8
BLACK
6
CONTINUOUS
10
122.031
20
-110.835
11
122.539
21
-110.327
0
LINE
8
BLACK
6
CONTINUOUS
10
122.539
20
-110.327
11
122.031
21
-109.819
0
LINE
8
BLACK
6
CONTINUOUS
10
122.031
20
-109.819
11
121.523
21
-110.327
0
LINE
8
BLACK
6
CONTINUOUS
10
121.523
20
-110.327
11
122.031
21
-110.835
0
LINE
8
BLACK
6
CONTINUOUS
10
122.031
20
-113.375
11
122.539
21
-112.867
0
LINE
8
BLACK
6
CONTINUOUS
10
122.539
20
-112.867
11
122.031
21
-112.359
0
LINE
8
BLACK
6
CONTINUOUS
10
122.031
20
-112.359
11
121.523
21
-112.867
0
LINE
8
BLACK
6
CONTINUOUS
10
121.523
20
-112.867
11
122.031
21
-113.375
0
LINE
8
BLACK
6
CONTINUOUS
10
122.031
20
-115.915
11
122.539
21
-115.407
0
LINE
8
BLACK
6
CONTINUOUS
10
122.539
20
-115.407
11
122.031
21
-114.899
0
LINE
8
BLACK
6
CONTINUOUS
10
122.031
20
-114.899
11
121.523
21
-115.407
0
LINE
8
BLACK
6
CONTINUOUS
10
121.523
20
-115.407
11
122.031
21
-115.915
0
LINE
8
BLACK
6
CONTINUOUS
10
122.031
20
-118.455
11
122.539
21
-117.947
0
LINE
8
BLACK
6
CONTINUOUS
10
122.539
20
-117.947
11
122.031
21
-117.439
0
LINE
8
BLACK
6
CONTINUOUS
10
122.031
20
-117.439
11
121.523
21
-117.947
0
LINE
8
BLACK
6
CONTINUOUS
10
121.523
20
-117.947
11
122.031
21
-118.455
0
LINE
8
BLACK
6
CONTINUOUS
10
122.031
20
-120.995
11
122.539
21
-120.487
0
LINE
8
BLACK
6
CONTINUOUS
10
122.539
20
-120.487
11
122.031
21
-119.979
0
LINE
8
BLACK
6
CONTINUOUS
10
122.031
20
-119.979
11
121.523
21
-120.487
0
LINE
8
BLACK
6
CONTINUOUS
10
121.523
20
-120.487
11
122.031
21
-120.995
0
LINE
8
BLACK
6
CONTINUOUS
10
122.031
20
-123.535
11
122.539
21
-123.027
0
LINE
8
BLACK
6
CONTINUOUS
10
122.539
20
-123.027
11
122.031
21
-122.519
0
LINE
8
BLACK
6
CONTINUOUS
10
122.031
20
-122.519
11
121.523
21
-123.027
0
LINE
8
BLACK
6
CONTINUOUS
10
121.523
20
-123.027
11
122.031
21
-123.535
0
LINE
8
BLACK
6
CONTINUOUS
10
122.031
20
-126.075
11
122.539
21
-125.567
0
LINE
8
BLACK
6
CONTINUOUS
10
122.539
20
-125.567
11
122.031
21
-125.059
0
LINE
8
BLACK
6
CONTINUOUS
10
122.031
20
-125.059
11
121.523
21
-125.567
0
LINE
8
BLACK
6
CONTINUOUS
10
121.523
20
-125.567
11
122.031
21
-126.075
0
LINE
8
BLACK
6
CONTINUOUS
10
122.031
20
-128.615
11
122.539
21
-128.107
0
LINE
8
BLACK
6
CONTINUOUS
10
122.539
20
-128.107
11
122.031
21
-127.599
0
LINE
8
BLACK
6
CONTINUOUS
10
122.031
20
-127.599
11
121.523
21
-128.107
0
LINE
8
BLACK
6
CONTINUOUS
10
121.523
20
-128.107
11
122.031
21
-128.615
0
LINE
8
BLACK
6
CONTINUOUS
10
124.571
20
-50.891
11
125.079
21
-50.383
0
LINE
8
BLACK
6
CONTINUOUS
10
125.079
20
-50.383
11
124.571
21
-49.875
0
LINE
8
BLACK
6
CONTINUOUS
10
124.571
20
-49.875
11
124.063
21
-50.383
0
LINE
8
BLACK
6
CONTINUOUS
10
124.063
20
-50.383
11
124.571
21
-50.891
0
LINE
8
BLACK
6
CONTINUOUS
10
124.571
20
-53.431
11
125.079
21
-52.923
0
LINE
8
BLACK
6
CONTINUOUS
10
125.079
20
-52.923
11
124.571
21
-52.415
0
LINE
8
BLACK
6
CONTINUOUS
10
124.571
20
-52.415
11
124.063
21
-52.923
0
LINE
8
BLACK
6
CONTINUOUS
10
124.063
20
-52.923
11
124.571
21
-53.431
0
LINE
8
BLACK
6
CONTINUOUS
10
127.111
20
-50.891
11
127.619
21
-50.383
0
LINE
8
BLACK
6
CONTINUOUS
10
127.619
20
-50.383
11
127.111
21
-49.875
0
LINE
8
BLACK
6
CONTINUOUS
10
127.111
20
-49.875
11
126.603
21
-50.383
0
LINE
8
BLACK
6
CONTINUOUS
10
126.603
20
-50.383
11
127.111
21
-50.891
0
LINE
8
BLACK
6
CONTINUOUS
10
127.111
20
-53.431
11
127.619
21
-52.923
0
LINE
8
BLACK
6
CONTINUOUS
10
127.619
20
-52.923
11
127.111
21
-52.415
0
LINE
8
BLACK
6
CONTINUOUS
10
127.111
20
-52.415
11
126.603
21
-52.923
0
LINE
8
BLACK
6
CONTINUOUS
10
126.603
20
-52.923
11
127.111
21
-53.431
0
LINE
8
BLACK
6
CONTINUOUS
10
129.651
20
-50.891
11
130.159
21
-50.383
0
LINE
8
BLACK
6
CONTINUOUS
10
130.159
20
-50.383
11
129.651
21
-49.875
0
LINE
8
BLACK
6
CONTINUOUS
10
129.651
20
-49.875
11
129.143
21
-50.383
0
LINE
8
BLACK
6
CONTINUOUS
10
129.143
20
-50.383
11
129.651
21
-50.891
0
LINE
8
BLACK
6
CONTINUOUS
10
129.651
20
-53.431
11
130.159
21
-52.923
0
LINE
8
BLACK
6
CONTINUOUS
10
130.159
20
-52.923
11
129.651
21
-52.415
0
LINE
8
BLACK
6
CONTINUOUS
10
129.651
20
-52.415
11
129.143
21
-52.923
0
LINE
8
BLACK
6
CONTINUOUS
10
129.143
20
-52.923
11
129.651
21
-53.431
0
LINE
8
BLACK
6
CONTINUOUS
10
132.191
20
-50.891
11
132.699
21
-50.383
0
LINE
8
BLACK
6
CONTINUOUS
10
132.699
20
-50.383
11
132.191
21
-49.875
0
LINE
8
BLACK
6
CONTINUOUS
10
132.191
20
-49.875
11
131.683
21
-50.383
0
LINE
8
BLACK
6
CONTINUOUS
10
131.683
20
-50.383
11
132.191
21
-50.891
0
LINE
8
BLACK
6
CONTINUOUS
10
132.191
20
-53.431
11
132.699
21
-52.923
0
LINE
8
BLACK
6
CONTINUOUS
10
132.699
20
-52.923
11
132.191
21
-52.415
0
LINE
8
BLACK
6
CONTINUOUS
10
132.191
20
-52.415
11
131.683
21
-52.923
0
LINE
8
BLACK
6
CONTINUOUS
10
131.683
20
-52.923
11
132.191
21
-53.431
0
LINE
8
BLACK
6
CONTINUOUS
10
134.731
20
-50.891
11
135.239
21
-50.383
0
LINE
8
BLACK
6
CONTINUOUS
10
135.239
20
-50.383
11
134.731
21
-49.875
0
LINE
8
BLACK
6
CONTINUOUS
10
134.731
20
-49.875
11
134.223
21
-50.383
0
LINE
8
BLACK
6
CONTINUOUS
10
134.223
20
-50.383
11
134.731
21
-50.891
0
LINE
8
BLACK
6
CONTINUOUS
10
134.731
20
-53.431
11
135.239
21
-52.923
0
LINE
8
BLACK
6
CONTINUOUS
10
135.239
20
-52.923
11
134.731
21
-52.415
0
LINE
8
BLACK
6
CONTINUOUS
10
134.731
20
-52.415
11
134.223
21
-52.923
0
LINE
8
BLACK
6
CONTINUOUS
10
134.223
20
-52.923
11
134.731
21
-53.431
0
LINE
8
BLACK
6
CONTINUOUS
10
137.271
20
-50.891
11
137.779
21
-50.383
0
LINE
8
BLACK
6
CONTINUOUS
10
137.779
20
-50.383
11
137.271
21
-49.875
0
LINE
8
BLACK
6
CONTINUOUS
10
137.271
20
-49.875
11
136.763
21
-50.383
0
LINE
8
BLACK
6
CONTINUOUS
10
136.763
20
-50.383
11
137.271
21
-50.891
0
LINE
8
BLACK
6
CONTINUOUS
10
137.271
20
-53.431
11
137.779
21
-52.923
0
LINE
8
BLACK
6
CONTINUOUS
10
137.779
20
-52.923
11
137.271
21
-52.415
0
LINE
8
BLACK
6
CONTINUOUS
10
137.271
20
-52.415
11
136.763
21
-52.923
0
LINE
8
BLACK
6
CONTINUOUS
10
136.763
20
-52.923
11
137.271
21
-53.431
0
LINE
8
BLACK
6
CONTINUOUS
10
139.811
20
-50.891
11
140.319
21
-50.383
0
LINE
8
BLACK
6
CONTINUOUS
10
140.319
20
-50.383
11
139.811
21
-49.875
0
LINE
8
BLACK
6
CONTINUOUS
10
139.811
20
-49.875
11
139.303
21
-50.383
0
LINE
8
BLACK
6
CONTINUOUS
10
139.303
20
-50.383
11
139.811
21
-50.891
0
LINE
8
BLACK
6
CONTINUOUS
10
139.811
20
-53.431
11
140.319
21
-52.923
0
LINE
8
BLACK
6
CONTINUOUS
10
140.319
20
-52.923
11
139.811
21
-52.415
0
LINE
8
BLACK
6
CONTINUOUS
10
139.811
20
-52.415
11
139.303
21
-52.923
0
LINE
8
BLACK
6
CONTINUOUS
10
139.303
20
-52.923
11
139.811
21
-53.431
0
LINE
8
BLACK
6
CONTINUOUS
10
142.351
20
-50.891
11
142.859
21
-50.383
0
LINE
8
BLACK
6
CONTINUOUS
10
142.859
20
-50.383
11
142.351
21
-49.875
0
LINE
8
BLACK
6
CONTINUOUS
10
142.351
20
-49.875
11
141.843
21
-50.383
0
LINE
8
BLACK
6
CONTINUOUS
10
141.843
20
-50.383
11
142.351
21
-50.891
0
LINE
8
BLACK
6
CONTINUOUS
10
142.351
20
-53.431
11
142.859
21
-52.923
0
LINE
8
BLACK
6
CONTINUOUS
10
142.859
20
-52.923
11
142.351
21
-52.415
0
LINE
8
BLACK
6
CONTINUOUS
10
142.351
20
-52.415
11
141.843
21
-52.923
0
LINE
8
BLACK
6
CONTINUOUS
10
141.843
20
-52.923
11
142.351
21
-53.431
0
LINE
8
BLACK
6
CONTINUOUS
10
142.351
20
-81.244
11
142.859
21
-80.736
0
LINE
8
BLACK
6
CONTINUOUS
10
142.859
20
-80.736
11
142.351
21
-80.228
0
LINE
8
BLACK
6
CONTINUOUS
10
142.351
20
-80.228
11
141.843
21
-80.736
0
LINE
8
BLACK
6
CONTINUOUS
10
141.843
20
-80.736
11
142.351
21
-81.244
0
LINE
8
BLACK
6
CONTINUOUS
10
142.351
20
-83.784
11
142.859
21
-83.276
0
LINE
8
BLACK
6
CONTINUOUS
10
142.859
20
-83.276
11
142.351
21
-82.768
0
LINE
8
BLACK
6
CONTINUOUS
10
142.351
20
-82.768
11
141.843
21
-83.276
0
LINE
8
BLACK
6
CONTINUOUS
10
141.843
20
-83.276
11
142.351
21
-83.784
0
LINE
8
BLACK
6
CONTINUOUS
10
144.891
20
-50.891
11
145.399
21
-50.383
0
LINE
8
BLACK
6
CONTINUOUS
10
145.399
20
-50.383
11
144.891
21
-49.875
0
LINE
8
BLACK
6
CONTINUOUS
10
144.891
20
-49.875
11
144.383
21
-50.383
0
LINE
8
BLACK
6
CONTINUOUS
10
144.383
20
-50.383
11
144.891
21
-50.891
0
LINE
8
BLACK
6
CONTINUOUS
10
144.891
20
-53.431
11
145.399
21
-52.923
0
LINE
8
BLACK
6
CONTINUOUS
10
145.399
20
-52.923
11
144.891
21
-52.415
0
LINE
8
BLACK
6
CONTINUOUS
10
144.891
20
-52.415
11
144.383
21
-52.923
0
LINE
8
BLACK
6
CONTINUOUS
10
144.383
20
-52.923
11
144.891
21
-53.431
0
LINE
8
BLACK
6
CONTINUOUS
10
144.891
20
-81.244
11
145.399
21
-80.736
0
LINE
8
BLACK
6
CONTINUOUS
10
145.399
20
-80.736
11
144.891
21
-80.228
0
LINE
8
BLACK
6
CONTINUOUS
10
144.891
20
-80.228
11
144.383
21
-80.736
0
LINE
8
BLACK
6
CONTINUOUS
10
144.383
20
-80.736
11
144.891
21
-81.244
0
LINE
8
BLACK
6
CONTINUOUS
10
144.891
20
-83.784
11
145.399
21
-83.276
0
LINE
8
BLACK
6
CONTINUOUS
10
145.399
20
-83.276
11
144.891
21
-82.768
0
LINE
8
BLACK
6
CONTINUOUS
10
144.891
20
-82.768
11
144.383
21
-83.276
0
LINE
8
BLACK
6
CONTINUOUS
10
144.383
20
-83.276
11
144.891
21
-83.784
0
LINE
8
BLACK
6
CONTINUOUS
10
147.431
20
-50.891
11
147.939
21
-50.383
0
LINE
8
BLACK
6
CONTINUOUS
10
147.939
20
-50.383
11
147.431
21
-49.875
0
LINE
8
BLACK
6
CONTINUOUS
10
147.431
20
-49.875
11
146.923
21
-50.383
0
LINE
8
BLACK
6
CONTINUOUS
10
146.923
20
-50.383
11
147.431
21
-50.891
0
LINE
8
BLACK
6
CONTINUOUS
10
147.431
20
-53.431
11
147.939
21
-52.923
0
LINE
8
BLACK
6
CONTINUOUS
10
147.939
20
-52.923
11
147.431
21
-52.415
0
LINE
8
BLACK
6
CONTINUOUS
10
147.431
20
-52.415
11
146.923
21
-52.923
0
LINE
8
BLACK
6
CONTINUOUS
10
146.923
20
-52.923
11
147.431
21
-53.431
0
LINE
8
BLACK
6
CONTINUOUS
10
147.431
20
-81.244
11
147.939
21
-80.736
0
LINE
8
BLACK
6
CONTINUOUS
10
147.939
20
-80.736
11
147.431
21
-80.228
0
LINE
8
BLACK
6
CONTINUOUS
10
147.431
20
-80.228
11
146.923
21
-80.736
0
LINE
8
BLACK
6
CONTINUOUS
10
146.923
20
-80.736
11
147.431
21
-81.244
0
LINE
8
BLACK
6
CONTINUOUS
10
147.431
20
-83.784
11
147.939
21
-83.276
0
LINE
8
BLACK
6
CONTINUOUS
10
147.939
20
-83.276
11
147.431
21
-82.768
0
LINE
8
BLACK
6
CONTINUOUS
10
147.431
20
-82.768
11
146.923
21
-83.276
0
LINE
8
BLACK
6
CONTINUOUS
10
146.923
20
-83.276
11
147.431
21
-83.784
0
LINE
8
BLACK
6
CONTINUOUS
10
149.971
20
-50.891
11
150.479
21
-50.383
0
LINE
8
BLACK
6
CONTINUOUS
10
150.479
20
-50.383
11
149.971
21
-49.875
0
LINE
8
BLACK
6
CONTINUOUS
10
149.971
20
-49.875
11
149.463
21
-50.383
0
LINE
8
BLACK
6
CONTINUOUS
10
149.463
20
-50.383
11
149.971
21
-50.891
0
LINE
8
BLACK
6
CONTINUOUS
10
149.971
20
-53.431
11
150.479
21
-52.923
0
LINE
8
BLACK
6
CONTINUOUS
10
150.479
20
-52.923
11
149.971
21
-52.415
0
LINE
8
BLACK
6
CONTINUOUS
10
149.971
20
-52.415
11
149.463
21
-52.923
0
LINE
8
BLACK
6
CONTINUOUS
10
149.463
20
-52.923
11
149.971
21
-53.431
0
LINE
8
BLACK
6
CONTINUOUS
10
152.511
20
-50.891
11
153.019
21
-50.383
0
LINE
8
BLACK
6
CONTINUOUS
10
153.019
20
-50.383
11
152.511
21
-49.875
0
LINE
8
BLACK
6
CONTINUOUS
10
152.511
20
-49.875
11
152.003
21
-50.383
0
LINE
8
BLACK
6
CONTINUOUS
10
152.003
20
-50.383
11
152.511
21
-50.891
0
LINE
8
BLACK
6
CONTINUOUS
10
152.511
20
-53.431
11
153.019
21
-52.923
0
LINE
8
BLACK
6
CONTINUOUS
10
153.019
20
-52.923
11
152.511
21
-52.415
0
LINE
8
BLACK
6
CONTINUOUS
10
152.511
20
-52.415
11
152.003
21
-52.923
0
LINE
8
BLACK
6
CONTINUOUS
10
152.003
20
-52.923
11
152.511
21
-53.431
0
LINE
8
BLACK
6
CONTINUOUS
10
155.051
20
-50.891
11
155.559
21
-50.383
0
LINE
8
BLACK
6
CONTINUOUS
10
155.559
20
-50.383
11
155.051
21
-49.875
0
LINE
8
BLACK
6
CONTINUOUS
10
155.051
20
-49.875
11
154.543
21
-50.383
0
LINE
8
BLACK
6
CONTINUOUS
10
154.543
20
-50.383
11
155.051
21
-50.891
0
LINE
8
BLACK
6
CONTINUOUS
10
155.051
20
-53.431
11
155.559
21
-52.923
0
LINE
8
BLACK
6
CONTINUOUS
10
155.559
20
-52.923
11
155.051
21
-52.415
0
LINE
8
BLACK
6
CONTINUOUS
10
155.051
20
-52.415
11
154.543
21
-52.923
0
LINE
8
BLACK
6
CONTINUOUS
10
154.543
20
-52.923
11
155.051
21
-53.431
0
LINE
8
BLACK
6
CONTINUOUS
10
157.591
20
-50.891
11
158.099
21
-50.383
0
LINE
8
BLACK
6
CONTINUOUS
10
158.099
20
-50.383
11
157.591
21
-49.875
0
LINE
8
BLACK
6
CONTINUOUS
10
157.591
20
-49.875
11
157.083
21
-50.383
0
LINE
8
BLACK
6
CONTINUOUS
10
157.083
20
-50.383
11
157.591
21
-50.891
0
LINE
8
BLACK
6
CONTINUOUS
10
157.591
20
-53.431
11
158.099
21
-52.923
0
LINE
8
BLACK
6
CONTINUOUS
10
158.099
20
-52.923
11
157.591
21
-52.415
0
LINE
8
BLACK
6
CONTINUOUS
10
157.591
20
-52.415
11
157.083
21
-52.923
0
LINE
8
BLACK
6
CONTINUOUS
10
157.083
20
-52.923
11
157.591
21
-53.431
0
LINE
8
BLACK
6
CONTINUOUS
10
160.131
20
-50.891
11
160.639
21
-50.383
0
LINE
8
BLACK
6
CONTINUOUS
10
160.639
20
-50.383
11
160.131
21
-49.875
0
LINE
8
BLACK
6
CONTINUOUS
10
160.131
20
-49.875
11
159.623
21
-50.383
0
LINE
8
BLACK
6
CONTINUOUS
10
159.623
20
-50.383
11
160.131
21
-50.891
0
LINE
8
BLACK
6
CONTINUOUS
10
160.131
20
-53.431
11
160.639
21
-52.923
0
LINE
8
BLACK
6
CONTINUOUS
10
160.639
20
-52.923
11
160.131
21
-52.415
0
LINE
8
BLACK
6
CONTINUOUS
10
160.131
20
-52.415
11
159.623
21
-52.923
0
LINE
8
BLACK
6
CONTINUOUS
10
159.623
20
-52.923
11
160.131
21
-53.431
0
LINE
8
BLACK
6
CONTINUOUS
10
162.671
20
-50.891
11
163.179
21
-50.383
0
LINE
8
BLACK
6
CONTINUOUS
10
163.179
20
-50.383
11
162.671
21
-49.875
0
LINE
8
BLACK
6
CONTINUOUS
10
162.671
20
-49.875
11
162.163
21
-50.383
0
LINE
8
BLACK
6
CONTINUOUS
10
162.163
20
-50.383
11
162.671
21
-50.891
0
LINE
8
BLACK
6
CONTINUOUS
10
162.671
20
-53.431
11
163.179
21
-52.923
0
LINE
8
BLACK
6
CONTINUOUS
10
163.179
20
-52.923
11
162.671
21
-52.415
0
LINE
8
BLACK
6
CONTINUOUS
10
162.671
20
-52.415
11
162.163
21
-52.923
0
LINE
8
BLACK
6
CONTINUOUS
10
162.163
20
-52.923
11
162.671
21
-53.431
0
LINE
8
BLACK
6
CONTINUOUS
10
165.211
20
-50.891
11
165.719
21
-50.383
0
LINE
8
BLACK
6
CONTINUOUS
10
165.719
20
-50.383
11
165.211
21
-49.875
0
LINE
8
BLACK
6
CONTINUOUS
10
165.211
20
-49.875
11
164.703
21
-50.383
0
LINE
8
BLACK
6
CONTINUOUS
10
164.703
20
-50.383
11
165.211
21
-50.891
0
LINE
8
BLACK
6
CONTINUOUS
10
165.211
20
-53.431
11
165.719
21
-52.923
0
LINE
8
BLACK
6
CONTINUOUS
10
165.719
20
-52.923
11
165.211
21
-52.415
0
LINE
8
BLACK
6
CONTINUOUS
10
165.211
20
-52.415
11
164.703
21
-52.923
0
LINE
8
BLACK
6
CONTINUOUS
10
164.703
20
-52.923
11
165.211
21
-53.431
0
LINE
8
BLACK
6
CONTINUOUS
10
170.291
20
-55.971
11
170.799
21
-55.463
0
LINE
8
BLACK
6
CONTINUOUS
10
170.799
20
-55.463
11
170.291
21
-54.955
0
LINE
8
BLACK
6
CONTINUOUS
10
170.291
20
-54.955
11
169.783
21
-55.463
0
LINE
8
BLACK
6
CONTINUOUS
10
169.783
20
-55.463
11
170.291
21
-55.971
0
LINE
8
BLACK
6
CONTINUOUS
10
170.291
20
-58.511
11
170.799
21
-58.003
0
LINE
8
BLACK
6
CONTINUOUS
10
170.799
20
-58.003
11
170.291
21
-57.495
0
LINE
8
BLACK
6
CONTINUOUS
10
170.291
20
-57.495
11
169.783
21
-58.003
0
LINE
8
BLACK
6
CONTINUOUS
10
169.783
20
-58.003
11
170.291
21
-58.511
0
LINE
8
BLACK
6
CONTINUOUS
10
170.291
20
-61.051
11
170.799
21
-60.543
0
LINE
8
BLACK
6
CONTINUOUS
10
170.799
20
-60.543
11
170.291
21
-60.035
0
LINE
8
BLACK
6
CONTINUOUS
10
170.291
20
-60.035
11
169.783
21
-60.543
0
LINE
8
BLACK
6
CONTINUOUS
10
169.783
20
-60.543
11
170.291
21
-61.051
0
LINE
8
BLACK
6
CONTINUOUS
10
170.291
20
-63.591
11
170.799
21
-63.083
0
LINE
8
BLACK
6
CONTINUOUS
10
170.799
20
-63.083
11
170.291
21
-62.575
0
LINE
8
BLACK
6
CONTINUOUS
10
170.291
20
-62.575
11
169.783
21
-63.083
0
LINE
8
BLACK
6
CONTINUOUS
10
169.783
20
-63.083
11
170.291
21
-63.591
0
LINE
8
BLACK
6
CONTINUOUS
10
170.291
20
-66.131
11
170.799
21
-65.623
0
LINE
8
BLACK
6
CONTINUOUS
10
170.799
20
-65.623
11
170.291
21
-65.115
0
LINE
8
BLACK
6
CONTINUOUS
10
170.291
20
-65.115
11
169.783
21
-65.623
0
LINE
8
BLACK
6
CONTINUOUS
10
169.783
20
-65.623
11
170.291
21
-66.131
0
LINE
8
BLACK
6
CONTINUOUS
10
170.291
20
-68.671
11
170.799
21
-68.163
0
LINE
8
BLACK
6
CONTINUOUS
10
170.799
20
-68.163
11
170.291
21
-67.655
0
LINE
8
BLACK
6
CONTINUOUS
10
170.291
20
-67.655
11
169.783
21
-68.163
0
LINE
8
BLACK
6
CONTINUOUS
10
169.783
20
-68.163
11
170.291
21
-68.671
0
LINE
8
BLACK
6
CONTINUOUS
10
170.291
20
-71.211
11
170.799
21
-70.703
0
LINE
8
BLACK
6
CONTINUOUS
10
170.799
20
-70.703
11
170.291
21
-70.195
0
LINE
8
BLACK
6
CONTINUOUS
10
170.291
20
-70.195
11
169.783
21
-70.703
0
LINE
8
BLACK
6
CONTINUOUS
10
169.783
20
-70.703
11
170.291
21
-71.211
0
LINE
8
BLACK
6
CONTINUOUS
10
170.291
20
-73.751
11
170.799
21
-73.243
0
LINE
8
BLACK
6
CONTINUOUS
10
170.799
20
-73.243
11
170.291
21
-72.735
0
LINE
8
BLACK
6
CONTINUOUS
10
170.291
20
-72.735
11
169.783
21
-73.243
0
LINE
8
BLACK
6
CONTINUOUS
10
169.783
20
-73.243
11
170.291
21
-73.751
0
LINE
8
BLACK
6
CONTINUOUS
10
170.291
20
-78.831
11
170.799
21
-78.323
0
LINE
8
BLACK
6
CONTINUOUS
10
170.799
20
-78.323
11
170.291
21
-77.815
0
LINE
8
BLACK
6
CONTINUOUS
10
170.291
20
-77.815
11
169.783
21
-78.323
0
LINE
8
BLACK
6
CONTINUOUS
10
169.783
20
-78.323
11
170.291
21
-78.831
0
LINE
8
BLACK
6
CONTINUOUS
10
170.291
20
-81.371
11
170.799
21
-80.863
0
LINE
8
BLACK
6
CONTINUOUS
10
170.799
20
-80.863
11
170.291
21
-80.355
0
LINE
8
BLACK
6
CONTINUOUS
10
170.291
20
-80.355
11
169.783
21
-80.863
0
LINE
8
BLACK
6
CONTINUOUS
10
169.783
20
-80.863
11
170.291
21
-81.371
0
LINE
8
BLACK
6
CONTINUOUS
10
170.291
20
-83.911
11
170.799
21
-83.403
0
LINE
8
BLACK
6
CONTINUOUS
10
170.799
20
-83.403
11
170.291
21
-82.895
0
LINE
8
BLACK
6
CONTINUOUS
10
170.291
20
-82.895
11
169.783
21
-83.403
0
LINE
8
BLACK
6
CONTINUOUS
10
169.783
20
-83.403
11
170.291
21
-83.911
0
LINE
8
BLACK
6
CONTINUOUS
10
170.291
20
-86.451
11
170.799
21
-85.943
0
LINE
8
BLACK
6
CONTINUOUS
10
170.799
20
-85.943
11
170.291
21
-85.435
0
LINE
8
BLACK
6
CONTINUOUS
10
170.291
20
-85.435
11
169.783
21
-85.943
0
LINE
8
BLACK
6
CONTINUOUS
10
169.783
20
-85.943
11
170.291
21
-86.451
0
LINE
8
BLACK
6
CONTINUOUS
10
170.291
20
-88.991
11
170.799
21
-88.483
0
LINE
8
BLACK
6
CONTINUOUS
10
170.799
20
-88.483
11
170.291
21
-87.975
0
LINE
8
BLACK
6
CONTINUOUS
10
170.291
20
-87.975
11
169.783
21
-88.483
0
LINE
8
BLACK
6
CONTINUOUS
10
169.783
20
-88.483
11
170.291
21
-88.991
0
LINE
8
BLACK
6
CONTINUOUS
10
170.291
20
-91.531
11
170.799
21
-91.023
0
LINE
8
BLACK
6
CONTINUOUS
10
170.799
20
-91.023
11
170.291
21
-90.515
0
LINE
8
BLACK
6
CONTINUOUS
10
170.291
20
-90.515
11
169.783
21
-91.023
0
LINE
8
BLACK
6
CONTINUOUS
10
169.783
20
-91.023
11
170.291
21
-91.531
0
LINE
8
BLACK
6
CONTINUOUS
10
170.291
20
-94.071
11
170.799
21
-93.563
0
LINE
8
BLACK
6
CONTINUOUS
10
170.799
20
-93.563
11
170.291
21
-93.055
0
LINE
8
BLACK
6
CONTINUOUS
10
170.291
20
-93.055
11
169.783
21
-93.563
0
LINE
8
BLACK
6
CONTINUOUS
10
169.783
20
-93.563
11
170.291
21
-94.071
0
LINE
8
BLACK
6
CONTINUOUS
10
170.291
20
-96.611
11
170.799
21
-96.103
0
LINE
8
BLACK
6
CONTINUOUS
10
170.799
20
-96.103
11
170.291
21
-95.595
0
LINE
8
BLACK
6
CONTINUOUS
10
170.291
20
-95.595
11
169.783
21
-96.103
0
LINE
8
BLACK
6
CONTINUOUS
10
169.783
20
-96.103
11
170.291
21
-96.611
0
LINE
8
BLACK
6
CONTINUOUS
10
170.291
20
-101.691
11
170.799
21
-101.183
0
LINE
8
BLACK
6
CONTINUOUS
10
170.799
20
-101.183
11
170.291
21
-100.675
0
LINE
8
BLACK
6
CONTINUOUS
10
170.291
20
-100.675
11
169.783
21
-101.183
0
LINE
8
BLACK
6
CONTINUOUS
10
169.783
20
-101.183
11
170.291
21
-101.691
0
LINE
8
BLACK
6
CONTINUOUS
10
170.291
20
-104.231
11
170.799
21
-103.723
0
LINE
8
BLACK
6
CONTINUOUS
10
170.799
20
-103.723
11
170.291
21
-103.215
0
LINE
8
BLACK
6
CONTINUOUS
10
170.291
20
-103.215
11
169.783
21
-103.723
0
LINE
8
BLACK
6
CONTINUOUS
10
169.783
20
-103.723
11
170.291
21
-104.231
0
LINE
8
BLACK
6
CONTINUOUS
10
170.291
20
-106.771
11
170.799
21
-106.263
0
LINE
8
BLACK
6
CONTINUOUS
10
170.799
20
-106.263
11
170.291
21
-105.755
0
LINE
8
BLACK
6
CONTINUOUS
10
170.291
20
-105.755
11
169.783
21
-106.263
0
LINE
8
BLACK
6
CONTINUOUS
10
169.783
20
-106.263
11
170.291
21
-106.771
0
LINE
8
BLACK
6
CONTINUOUS
10
170.291
20
-109.311
11
170.799
21
-108.803
0
LINE
8
BLACK
6
CONTINUOUS
10
170.799
20
-108.803
11
170.291
21
-108.295
0
LINE
8
BLACK
6
CONTINUOUS
10
170.291
20
-108.295
11
169.783
21
-108.803
0
LINE
8
BLACK
6
CONTINUOUS
10
169.783
20
-108.803
11
170.291
21
-109.311
0
LINE
8
BLACK
6
CONTINUOUS
10
170.291
20
-111.851
11
170.799
21
-111.343
0
LINE
8
BLACK
6
CONTINUOUS
10
170.799
20
-111.343
11
170.291
21
-110.835
0
LINE
8
BLACK
6
CONTINUOUS
10
170.291
20
-110.835
11
169.783
21
-111.343
0
LINE
8
BLACK
6
CONTINUOUS
10
169.783
20
-111.343
11
170.291
21
-111.851
0
LINE
8
BLACK
6
CONTINUOUS
10
170.291
20
-114.391
11
170.799
21
-113.883
0
LINE
8
BLACK
6
CONTINUOUS
10
170.799
20
-113.883
11
170.291
21
-113.375
0
LINE
8
BLACK
6
CONTINUOUS
10
170.291
20
-113.375
11
169.783
21
-113.883
0
LINE
8
BLACK
6
CONTINUOUS
10
169.783
20
-113.883
11
170.291
21
-114.391
0
LINE
8
BLACK
6
CONTINUOUS
10
170.291
20
-116.931
11
170.799
21
-116.423
0
LINE
8
BLACK
6
CONTINUOUS
10
170.799
20
-116.423
11
170.291
21
-115.915
0
LINE
8
BLACK
6
CONTINUOUS
10
170.291
20
-115.915
11
169.783
21
-116.423
0
LINE
8
BLACK
6
CONTINUOUS
10
169.783
20
-116.423
11
170.291
21
-116.931
0
LINE
8
BLACK
6
CONTINUOUS
10
170.291
20
-119.471
11
170.799
21
-118.963
0
LINE
8
BLACK
6
CONTINUOUS
10
170.799
20
-118.963
11
170.291
21
-118.455
0
LINE
8
BLACK
6
CONTINUOUS
10
170.291
20
-118.455
11
169.783
21
-118.963
0
LINE
8
BLACK
6
CONTINUOUS
10
169.783
20
-118.963
11
170.291
21
-119.471
0
LINE
8
BLACK
6
CONTINUOUS
10
109.697
20
-49.893
11
110.997
21
-51.193
0
LINE
8
BLACK
6
CONTINUOUS
10
110.997
20
-49.893
11
109.697
21
-51.193
0
CIRCLE
8
BLACK
10
110.347
20
-50.543
40
0.65
0
LINE
8
BLACK
6
CONTINUOUS
10
109.697
20
-54.893
11
110.997
21
-56.193
0
LINE
8
BLACK
6
CONTINUOUS
10
110.997
20
-54.893
11
109.697
21
-56.193
0
CIRCLE
8
BLACK
10
110.347
20
-55.543
40
0.65
0
LINE
8
BLACK
6
CONTINUOUS
10
109.697
20
-59.893
11
110.997
21
-61.193
0
LINE
8
BLACK
6
CONTINUOUS
10
110.997
20
-59.893
11
109.697
21
-61.193
0
CIRCLE
8
BLACK
10
110.347
20
-60.543
40
0.65
0
LINE
8
BLACK
6
CONTINUOUS
10
109.697
20
-64.893
11
110.997
21
-66.193
0
LINE
8
BLACK
6
CONTINUOUS
10
110.997
20
-64.893
11
109.697
21
-66.193
0
CIRCLE
8
BLACK
10
110.347
20
-65.543
40
0.65
0
LINE
8
BLACK
6
CONTINUOUS
10
109.697
20
-85.423
11
110.997
21
-86.723
0
LINE
8
BLACK
6
CONTINUOUS
10
110.997
20
-85.423
11
109.697
21
-86.723
0
CIRCLE
8
BLACK
10
110.347
20
-86.073
40
0.65
0
LINE
8
BLACK
6
CONTINUOUS
10
109.697
20
-90.423
11
110.997
21
-91.723
0
LINE
8
BLACK
6
CONTINUOUS
10
110.997
20
-90.423
11
109.697
21
-91.723
0
CIRCLE
8
BLACK
10
110.347
20
-91.073
40
0.65
0
LINE
8
BLACK
6
CONTINUOUS
10
109.697
20
-95.423
11
110.997
21
-96.723
0
LINE
8
BLACK
6
CONTINUOUS
10
110.997
20
-95.423
11
109.697
21
-96.723
0
CIRCLE
8
BLACK
10
110.347
20
-96.073
40
0.65
0
LINE
8
BLACK
6
CONTINUOUS
10
109.697
20
-100.423
11
110.997
21
-101.723
0
LINE
8
BLACK
6
CONTINUOUS
10
110.997
20
-100.423
11
109.697
21
-101.723
0
CIRCLE
8
BLACK
10
110.347
20
-101.073
40
0.65
0
LINE
8
BLACK
6
CONTINUOUS
10
109.697
20
-106.988
11
110.997
21
-108.288
0
LINE
8
BLACK
6
CONTINUOUS
10
110.997
20
-106.988
11
109.697
21
-108.288
0
CIRCLE
8
BLACK
10
110.347
20
-107.638
40
0.65
0
LINE
8
BLACK
6
CONTINUOUS
10
109.697
20
-111.988
11
110.997
21
-113.288
0
LINE
8
BLACK
6
CONTINUOUS
10
110.997
20
-111.988
11
109.697
21
-113.288
0
CIRCLE
8
BLACK
10
110.347
20
-112.638
40
0.65
0
LINE
8
BLACK
6
CONTINUOUS
10
109.697
20
-116.988
11
110.997
21
-118.288
0
LINE
8
BLACK
6
CONTINUOUS
10
110.997
20
-116.988
11
109.697
21
-118.288
0
CIRCLE
8
BLACK
10
110.347
20
-117.638
40
0.65
0
LINE
8
BLACK
6
CONTINUOUS
10
109.697
20
-123.553
11
110.997
21
-124.853
0
LINE
8
BLACK
6
CONTINUOUS
10
110.997
20
-123.553
11
109.697
21
-124.853
0
CIRCLE
8
BLACK
10
110.347
20
-124.203
40
0.65
0
LINE
8
BLACK
6
CONTINUOUS
10
109.697
20
-128.553
11
110.997
21
-129.853
0
LINE
8
BLACK
6
CONTINUOUS
10
110.997
20
-128.553
11
109.697
21
-129.853
0
CIRCLE
8
BLACK
10
110.347
20
-129.203
40
0.65
0
LINE
8
BLACK
6
CONTINUOUS
10
153.171
20
-34.493
11
154.471
21
-35.793
0
LINE
8
BLACK
6
CONTINUOUS
10
154.471
20
-34.493
11
153.171
21
-35.793
0
CIRCLE
8
BLACK
10
153.821
20
-35.143
40
0.65
0
LINE
8
BLACK
6
CONTINUOUS
10
158.171
20
-34.493
11
159.471
21
-35.793
0
LINE
8
BLACK
6
CONTINUOUS
10
159.471
20
-34.493
11
158.171
21
-35.793
0
CIRCLE
8
BLACK
10
158.821
20
-35.143
40
0.65
0
LINE
8
BLACK
6
CONTINUOUS
10
163.171
20
-34.493
11
164.471
21
-35.793
0
LINE
8
BLACK
6
CONTINUOUS
10
164.471
20
-34.493
11
163.171
21
-35.793
0
CIRCLE
8
BLACK
10
163.821
20
-35.143
40
0.65
0
LINE
8
BLACK
6
CONTINUOUS
10
168.171
20
-34.493
11
169.471
21
-35.793
0
LINE
8
BLACK
6
CONTINUOUS
10
169.471
20
-34.493
11
168.171
21
-35.793
0
CIRCLE
8
BLACK
10
168.821
20
-35.143
40
0.65
0
LINE
8
BLACK
6
CONTINUOUS
10
173.171
20
-34.493
11
174.471
21
-35.793
0
LINE
8
BLACK
6
CONTINUOUS
10
174.471
20
-34.493
11
173.171
21
-35.793
0
CIRCLE
8
BLACK
10
173.821
20
-35.143
40
0.65
0
LINE
8
BLACK
6
CONTINUOUS
10
178.171
20
-34.493
11
179.471
21
-35.793
0
LINE
8
BLACK
6
CONTINUOUS
10
179.471
20
-34.493
11
178.171
21
-35.793
0
CIRCLE
8
BLACK
10
178.821
20
-35.143
40
0.65
0
LINE
8
BLACK
6
CONTINUOUS
10
182.731
20
-59.465
11
184.031
21
-60.765
0
LINE
8
BLACK
6
CONTINUOUS
10
184.031
20
-59.465
11
182.731
21
-60.765
0
CIRCLE
8
BLACK
10
183.381
20
-60.115
40
0.65
0
LINE
8
BLACK
6
CONTINUOUS
10
182.731
20
-64.465
11
184.031
21
-65.765
0
LINE
8
BLACK
6
CONTINUOUS
10
184.031
20
-64.465
11
182.731
21
-65.765
0
CIRCLE
8
BLACK
10
183.381
20
-65.115
40
0.65
0
LINE
8
BLACK
6
CONTINUOUS
10
105.285
20
-154.133
11
105.285
21
-152.133
0
LINE
8
BLACK
6
CONTINUOUS
10
105.285
20
-152.133
11
105.761
21
-152.133
0
LINE
8
BLACK
6
CONTINUOUS
10
105.761
20
-152.133
11
106.047
21
-152.228
0
LINE
8
BLACK
6
CONTINUOUS
10
106.047
20
-152.228
11
106.237
21
-152.419
0
LINE
8
BLACK
6
CONTINUOUS
10
106.237
20
-152.419
11
106.332
21
-152.609
0
LINE
8
BLACK
6
CONTINUOUS
10
106.332
20
-152.609
11
106.428
21
-152.99
0
LINE
8
BLACK
6
CONTINUOUS
10
106.428
20
-152.99
11
106.428
21
-153.276
0
LINE
8
BLACK
6
CONTINUOUS
10
106.428
20
-153.276
11
106.332
21
-153.657
0
LINE
8
BLACK
6
CONTINUOUS
10
106.332
20
-153.657
11
106.237
21
-153.847
0
LINE
8
BLACK
6
CONTINUOUS
10
106.237
20
-153.847
11
106.047
21
-154.038
0
LINE
8
BLACK
6
CONTINUOUS
10
106.047
20
-154.038
11
105.761
21
-154.133
0
LINE
8
BLACK
6
CONTINUOUS
10
105.761
20
-154.133
11
105.285
21
-154.133
0
LINE
8
BLACK
6
CONTINUOUS
10
107.285
20
-154.133
11
107.285
21
-152.8
0
LINE
8
BLACK
6
CONTINUOUS
10
107.285
20
-153.181
11
107.38
21
-152.99
0
LINE
8
BLACK
6
CONTINUOUS
10
107.38
20
-152.99
11
107.475
21
-152.895
0
LINE
8
BLACK
6
CONTINUOUS
10
107.475
20
-152.895
11
107.666
21
-152.8
0
LINE
8
BLACK
6
CONTINUOUS
10
107.666
20
-152.8
11
107.856
21
-152.8
0
LINE
8
BLACK
6
CONTINUOUS
10
108.523
20
-154.133
11
108.523
21
-152.8
0
LINE
8
BLACK
6
CONTINUOUS
10
108.523
20
-152.133
11
108.428
21
-152.228
0
LINE
8
BLACK
6
CONTINUOUS
10
108.428
20
-152.228
11
108.523
21
-152.324
0
LINE
8
BLACK
6
CONTINUOUS
10
108.523
20
-152.324
11
108.618
21
-152.228
0
LINE
8
BLACK
6
CONTINUOUS
10
108.618
20
-152.228
11
108.523
21
-152.133
0
LINE
8
BLACK
6
CONTINUOUS
10
108.523
20
-152.133
11
108.523
21
-152.324
0
LINE
8
BLACK
6
CONTINUOUS
10
109.761
20
-154.133
11
109.57
21
-154.038
0
LINE
8
BLACK
6
CONTINUOUS
10
109.57
20
-154.038
11
109.475
21
-153.847
0
LINE
8
BLACK
6
CONTINUOUS
10
109.475
20
-153.847
11
109.475
21
-152.133
0
LINE
8
BLACK
6
CONTINUOUS
10
110.809
20
-154.133
11
110.618
21
-154.038
0
LINE
8
BLACK
6
CONTINUOUS
10
110.618
20
-154.038
11
110.523
21
-153.847
0
LINE
8
BLACK
6
CONTINUOUS
10
110.523
20
-153.847
11
110.523
21
-152.133
0
LINE
8
BLACK
6
CONTINUOUS
10
113.094
20
-154.133
11
113.094
21
-152.133
0
LINE
8
BLACK
6
CONTINUOUS
10
113.094
20
-152.133
11
113.761
21
-153.562
0
LINE
8
BLACK
6
CONTINUOUS
10
113.761
20
-153.562
11
114.428
21
-152.133
0
LINE
8
BLACK
6
CONTINUOUS
10
114.428
20
-152.133
11
114.428
21
-154.133
0
LINE
8
BLACK
6
CONTINUOUS
10
116.237
20
-154.133
11
116.237
21
-153.085
0
LINE
8
BLACK
6
CONTINUOUS
10
116.237
20
-153.085
11
116.142
21
-152.895
0
LINE
8
BLACK
6
CONTINUOUS
10
116.142
20
-152.895
11
115.951
21
-152.8
0
LINE
8
BLACK
6
CONTINUOUS
10
115.951
20
-152.8
11
115.57
21
-152.8
0
LINE
8
BLACK
6
CONTINUOUS
10
115.57
20
-152.8
11
115.38
21
-152.895
0
LINE
8
BLACK
6
CONTINUOUS
10
116.237
20
-154.038
11
116.047
21
-154.133
0
LINE
8
BLACK
6
CONTINUOUS
10
116.047
20
-154.133
11
115.57
21
-154.133
0
LINE
8
BLACK
6
CONTINUOUS
10
115.57
20
-154.133
11
115.38
21
-154.038
0
LINE
8
BLACK
6
CONTINUOUS
10
115.38
20
-154.038
11
115.285
21
-153.847
0
LINE
8
BLACK
6
CONTINUOUS
10
115.285
20
-153.847
11
115.285
21
-153.657
0
LINE
8
BLACK
6
CONTINUOUS
10
115.285
20
-153.657
11
115.38
21
-153.466
0
LINE
8
BLACK
6
CONTINUOUS
10
115.38
20
-153.466
11
115.57
21
-153.371
0
LINE
8
BLACK
6
CONTINUOUS
10
115.57
20
-153.371
11
116.047
21
-153.371
0
LINE
8
BLACK
6
CONTINUOUS
10
116.047
20
-153.371
11
116.237
21
-153.276
0
LINE
8
BLACK
6
CONTINUOUS
10
117.19
20
-152.8
11
117.19
21
-154.8
0
LINE
8
BLACK
6
CONTINUOUS
10
117.19
20
-152.895
11
117.38
21
-152.8
0
LINE
8
BLACK
6
CONTINUOUS
10
117.38
20
-152.8
11
117.761
21
-152.8
0
LINE
8
BLACK
6
CONTINUOUS
10
117.761
20
-152.8
11
117.951
21
-152.895
0
LINE
8
BLACK
6
CONTINUOUS
10
117.951
20
-152.895
11
118.047
21
-152.99
0
LINE
8
BLACK
6
CONTINUOUS
10
118.047
20
-152.99
11
118.142
21
-153.181
0
LINE
8
BLACK
6
CONTINUOUS
10
118.142
20
-153.181
11
118.142
21
-153.752
0
LINE
8
BLACK
6
CONTINUOUS
10
118.142
20
-153.752
11
118.047
21
-153.943
0
LINE
8
BLACK
6
CONTINUOUS
10
118.047
20
-153.943
11
117.951
21
-154.038
0
LINE
8
BLACK
6
CONTINUOUS
10
117.951
20
-154.038
11
117.761
21
-154.133
0
LINE
8
BLACK
6
CONTINUOUS
10
117.761
20
-154.133
11
117.38
21
-154.133
0
LINE
8
BLACK
6
CONTINUOUS
10
117.38
20
-154.133
11
117.19
21
-154.038
0
LINE
8
BLACK
6
CONTINUOUS
10
118.999
20
-153.943
11
119.094
21
-154.038
0
LINE
8
BLACK
6
CONTINUOUS
10
119.094
20
-154.038
11
118.999
21
-154.133
0
LINE
8
BLACK
6
CONTINUOUS
10
118.999
20
-154.133
11
118.904
21
-154.038
0
LINE
8
BLACK
6
CONTINUOUS
10
118.904
20
-154.038
11
118.999
21
-153.943
0
LINE
8
BLACK
6
CONTINUOUS
10
118.999
20
-153.943
11
118.999
21
-154.133
0
LINE
8
BLACK
6
CONTINUOUS
10
118.999
20
-152.895
11
119.094
21
-152.99
0
LINE
8
BLACK
6
CONTINUOUS
10
119.094
20
-152.99
11
118.999
21
-153.085
0
LINE
8
BLACK
6
CONTINUOUS
10
118.999
20
-153.085
11
118.904
21
-152.99
0
LINE
8
BLACK
6
CONTINUOUS
10
118.904
20
-152.99
11
118.999
21
-152.895
0
LINE
8
BLACK
6
CONTINUOUS
10
118.999
20
-152.895
11
118.999
21
-153.085
0
LINE
8
BLACK
6
CONTINUOUS
10
102.277
20
-157.218
11
102.677
21
-157.618
0
LINE
8
BLACK
6
CONTINUOUS
10
102.677
20
-157.218
11
102.277
21
-157.618
0
LINE
8
BLACK
6
CONTINUOUS
10
105.666
20
-156.333
11
105.856
21
-156.333
0
LINE
8
BLACK
6
CONTINUOUS
10
105.856
20
-156.333
11
106.047
21
-156.428
0
LINE
8
BLACK
6
CONTINUOUS
10
106.047
20
-156.428
11
106.142
21
-156.524
0
LINE
8
BLACK
6
CONTINUOUS
10
106.142
20
-156.524
11
106.237
21
-156.714
0
LINE
8
BLACK
6
CONTINUOUS
10
106.237
20
-156.714
11
106.332
21
-157.095
0
LINE
8
BLACK
6
CONTINUOUS
10
106.332
20
-157.095
11
106.332
21
-157.571
0
LINE
8
BLACK
6
CONTINUOUS
10
106.332
20
-157.571
11
106.237
21
-157.952
0
LINE
8
BLACK
6
CONTINUOUS
10
106.237
20
-157.952
11
106.142
21
-158.143
0
LINE
8
BLACK
6
CONTINUOUS
10
106.142
20
-158.143
11
106.047
21
-158.238
0
LINE
8
BLACK
6
CONTINUOUS
10
106.047
20
-158.238
11
105.856
21
-158.333
0
LINE
8
BLACK
6
CONTINUOUS
10
105.856
20
-158.333
11
105.666
21
-158.333
0
LINE
8
BLACK
6
CONTINUOUS
10
105.666
20
-158.333
11
105.475
21
-158.238
0
LINE
8
BLACK
6
CONTINUOUS
10
105.475
20
-158.238
11
105.38
21
-158.143
0
LINE
8
BLACK
6
CONTINUOUS
10
105.38
20
-158.143
11
105.285
21
-157.952
0
LINE
8
BLACK
6
CONTINUOUS
10
105.285
20
-157.952
11
105.19
21
-157.571
0
LINE
8
BLACK
6
CONTINUOUS
10
105.19
20
-157.571
11
105.19
21
-157.095
0
LINE
8
BLACK
6
CONTINUOUS
10
105.19
20
-157.095
11
105.285
21
-156.714
0
LINE
8
BLACK
6
CONTINUOUS
10
105.285
20
-156.714
11
105.38
21
-156.524
0
LINE
8
BLACK
6
CONTINUOUS
10
105.38
20
-156.524
11
105.475
21
-156.428
0
LINE
8
BLACK
6
CONTINUOUS
10
105.475
20
-156.428
11
105.666
21
-156.333
0
LINE
8
BLACK
6
CONTINUOUS
10
107.19
20
-158.143
11
107.285
21
-158.238
0
LINE
8
BLACK
6
CONTINUOUS
10
107.285
20
-158.238
11
107.19
21
-158.333
0
LINE
8
BLACK
6
CONTINUOUS
10
107.19
20
-158.333
11
107.094
21
-158.238
0
LINE
8
BLACK
6
CONTINUOUS
10
107.094
20
-158.238
11
107.19
21
-158.143
0
LINE
8
BLACK
6
CONTINUOUS
10
107.19
20
-158.143
11
107.19
21
-158.333
0
LINE
8
BLACK
6
CONTINUOUS
10
108.999
20
-157
11
108.999
21
-158.333
0
LINE
8
BLACK
6
CONTINUOUS
10
108.523
20
-156.238
11
108.047
21
-157.666
0
LINE
8
BLACK
6
CONTINUOUS
10
108.047
20
-157.666
11
109.285
21
-157.666
0
LINE
8
BLACK
6
CONTINUOUS
10
110.428
20
-156.333
11
110.618
21
-156.333
0
LINE
8
BLACK
6
CONTINUOUS
10
110.618
20
-156.333
11
110.809
21
-156.428
0
LINE
8
BLACK
6
CONTINUOUS
10
110.809
20
-156.428
11
110.904
21
-156.524
0
LINE
8
BLACK
6
CONTINUOUS
10
110.904
20
-156.524
11
110.999
21
-156.714
0
LINE
8
BLACK
6
CONTINUOUS
10
110.999
20
-156.714
11
111.094
21
-157.095
0
LINE
8
BLACK
6
CONTINUOUS
10
111.094
20
-157.095
11
111.094
21
-157.571
0
LINE
8
BLACK
6
CONTINUOUS
10
111.094
20
-157.571
11
110.999
21
-157.952
0
LINE
8
BLACK
6
CONTINUOUS
10
110.999
20
-157.952
11
110.904
21
-158.143
0
LINE
8
BLACK
6
CONTINUOUS
10
110.904
20
-158.143
11
110.809
21
-158.238
0
LINE
8
BLACK
6
CONTINUOUS
10
110.809
20
-158.238
11
110.618
21
-158.333
0
LINE
8
BLACK
6
CONTINUOUS
10
110.618
20
-158.333
11
110.428
21
-158.333
0
LINE
8
BLACK
6
CONTINUOUS
10
110.428
20
-158.333
11
110.237
21
-158.238
0
LINE
8
BLACK
6
CONTINUOUS
10
110.237
20
-158.238
11
110.142
21
-158.143
0
LINE
8
BLACK
6
CONTINUOUS
10
110.142
20
-158.143
11
110.047
21
-157.952
0
LINE
8
BLACK
6
CONTINUOUS
10
110.047
20
-157.952
11
109.951
21
-157.571
0
LINE
8
BLACK
6
CONTINUOUS
10
109.951
20
-157.571
11
109.951
21
-157.095
0
LINE
8
BLACK
6
CONTINUOUS
10
109.951
20
-157.095
11
110.047
21
-156.714
0
LINE
8
BLACK
6
CONTINUOUS
10
110.047
20
-156.714
11
110.142
21
-156.524
0
LINE
8
BLACK
6
CONTINUOUS
10
110.142
20
-156.524
11
110.237
21
-156.428
0
LINE
8
BLACK
6
CONTINUOUS
10
110.237
20
-156.428
11
110.428
21
-156.333
0
LINE
8
BLACK
6
CONTINUOUS
10
112.332
20
-156.333
11
112.523
21
-156.333
0
LINE
8
BLACK
6
CONTINUOUS
10
112.523
20
-156.333
11
112.713
21
-156.428
0
LINE
8
BLACK
6
CONTINUOUS
10
112.713
20
-156.428
11
112.809
21
-156.524
0
LINE
8
BLACK
6
CONTINUOUS
10
112.809
20
-156.524
11
112.904
21
-156.714
0
LINE
8
BLACK
6
CONTINUOUS
10
112.904
20
-156.714
11
112.999
21
-157.095
0
LINE
8
BLACK
6
CONTINUOUS
10
112.999
20
-157.095
11
112.999
21
-157.571
0
LINE
8
BLACK
6
CONTINUOUS
10
112.999
20
-157.571
11
112.904
21
-157.952
0
LINE
8
BLACK
6
CONTINUOUS
10
112.904
20
-157.952
11
112.809
21
-158.143
0
LINE
8
BLACK
6
CONTINUOUS
10
112.809
20
-158.143
11
112.713
21
-158.238
0
LINE
8
BLACK
6
CONTINUOUS
10
112.713
20
-158.238
11
112.523
21
-158.333
0
LINE
8
BLACK
6
CONTINUOUS
10
112.523
20
-158.333
11
112.332
21
-158.333
0
LINE
8
BLACK
6
CONTINUOUS
10
112.332
20
-158.333
11
112.142
21
-158.238
0
LINE
8
BLACK
6
CONTINUOUS
10
112.142
20
-158.238
11
112.047
21
-158.143
0
LINE
8
BLACK
6
CONTINUOUS
10
112.047
20
-158.143
11
111.951
21
-157.952
0
LINE
8
BLACK
6
CONTINUOUS
10
111.951
20
-157.952
11
111.856
21
-157.571
0
LINE
8
BLACK
6
CONTINUOUS
10
111.856
20
-157.571
11
111.856
21
-157.095
0
LINE
8
BLACK
6
CONTINUOUS
10
111.856
20
-157.095
11
111.951
21
-156.714
0
LINE
8
BLACK
6
CONTINUOUS
10
111.951
20
-156.714
11
112.047
21
-156.524
0
LINE
8
BLACK
6
CONTINUOUS
10
112.047
20
-156.524
11
112.142
21
-156.428
0
LINE
8
BLACK
6
CONTINUOUS
10
112.142
20
-156.428
11
112.332
21
-156.333
0
LINE
8
BLACK
6
CONTINUOUS
10
113.856
20
-158.333
11
113.856
21
-157
0
LINE
8
BLACK
6
CONTINUOUS
10
113.856
20
-157.19
11
113.951
21
-157.095
0
LINE
8
BLACK
6
CONTINUOUS
10
113.951
20
-157.095
11
114.142
21
-157
0
LINE
8
BLACK
6
CONTINUOUS
10
114.142
20
-157
11
114.428
21
-157
0
LINE
8
BLACK
6
CONTINUOUS
10
114.428
20
-157
11
114.618
21
-157.095
0
LINE
8
BLACK
6
CONTINUOUS
10
114.618
20
-157.095
11
114.713
21
-157.285
0
LINE
8
BLACK
6
CONTINUOUS
10
114.713
20
-157.285
11
114.713
21
-158.333
0
LINE
8
BLACK
6
CONTINUOUS
10
114.713
20
-157.285
11
114.809
21
-157.095
0
LINE
8
BLACK
6
CONTINUOUS
10
114.809
20
-157.095
11
114.999
21
-157
0
LINE
8
BLACK
6
CONTINUOUS
10
114.999
20
-157
11
115.285
21
-157
0
LINE
8
BLACK
6
CONTINUOUS
10
115.285
20
-157
11
115.475
21
-157.095
0
LINE
8
BLACK
6
CONTINUOUS
10
115.475
20
-157.095
11
115.57
21
-157.285
0
LINE
8
BLACK
6
CONTINUOUS
10
115.57
20
-157.285
11
115.57
21
-158.333
0
LINE
8
BLACK
6
CONTINUOUS
10
116.523
20
-158.333
11
116.523
21
-157
0
LINE
8
BLACK
6
CONTINUOUS
10
116.523
20
-157.19
11
116.618
21
-157.095
0
LINE
8
BLACK
6
CONTINUOUS
10
116.618
20
-157.095
11
116.809
21
-157
0
LINE
8
BLACK
6
CONTINUOUS
10
116.809
20
-157
11
117.094
21
-157
0
LINE
8
BLACK
6
CONTINUOUS
10
117.094
20
-157
11
117.285
21
-157.095
0
LINE
8
BLACK
6
CONTINUOUS
10
117.285
20
-157.095
11
117.38
21
-157.285
0
LINE
8
BLACK
6
CONTINUOUS
10
117.38
20
-157.285
11
117.38
21
-158.333
0
LINE
8
BLACK
6
CONTINUOUS
10
117.38
20
-157.285
11
117.475
21
-157.095
0
LINE
8
BLACK
6
CONTINUOUS
10
117.475
20
-157.095
11
117.666
21
-157
0
LINE
8
BLACK
6
CONTINUOUS
10
117.666
20
-157
11
117.951
21
-157
0
LINE
8
BLACK
6
CONTINUOUS
10
117.951
20
-157
11
118.142
21
-157.095
0
LINE
8
BLACK
6
CONTINUOUS
10
118.142
20
-157.095
11
118.237
21
-157.285
0
LINE
8
BLACK
6
CONTINUOUS
10
118.237
20
-157.285
11
118.237
21
-158.333
0
LINE
8
BLACK
6
CONTINUOUS
10
122.142
20
-156.238
11
120.428
21
-158.809
0
LINE
8
BLACK
6
CONTINUOUS
10
124.713
20
-156.333
11
124.904
21
-156.333
0
LINE
8
BLACK
6
CONTINUOUS
10
124.904
20
-156.333
11
125.094
21
-156.428
0
LINE
8
BLACK
6
CONTINUOUS
10
125.094
20
-156.428
11
125.19
21
-156.524
0
LINE
8
BLACK
6
CONTINUOUS
10
125.19
20
-156.524
11
125.285
21
-156.714
0
LINE
8
BLACK
6
CONTINUOUS
10
125.285
20
-156.714
11
125.38
21
-157.095
0
LINE
8
BLACK
6
CONTINUOUS
10
125.38
20
-157.095
11
125.38
21
-157.571
0
LINE
8
BLACK
6
CONTINUOUS
10
125.38
20
-157.571
11
125.285
21
-157.952
0
LINE
8
BLACK
6
CONTINUOUS
10
125.285
20
-157.952
11
125.19
21
-158.143
0
LINE
8
BLACK
6
CONTINUOUS
10
125.19
20
-158.143
11
125.094
21
-158.238
0
LINE
8
BLACK
6
CONTINUOUS
10
125.094
20
-158.238
11
124.904
21
-158.333
0
LINE
8
BLACK
6
CONTINUOUS
10
124.904
20
-158.333
11
124.713
21
-158.333
0
LINE
8
BLACK
6
CONTINUOUS
10
124.713
20
-158.333
11
124.523
21
-158.238
0
LINE
8
BLACK
6
CONTINUOUS
10
124.523
20
-158.238
11
124.428
21
-158.143
0
LINE
8
BLACK
6
CONTINUOUS
10
124.428
20
-158.143
11
124.332
21
-157.952
0
LINE
8
BLACK
6
CONTINUOUS
10
124.332
20
-157.952
11
124.237
21
-157.571
0
LINE
8
BLACK
6
CONTINUOUS
10
124.237
20
-157.571
11
124.237
21
-157.095
0
LINE
8
BLACK
6
CONTINUOUS
10
124.237
20
-157.095
11
124.332
21
-156.714
0
LINE
8
BLACK
6
CONTINUOUS
10
124.332
20
-156.714
11
124.428
21
-156.524
0
LINE
8
BLACK
6
CONTINUOUS
10
124.428
20
-156.524
11
124.523
21
-156.428
0
LINE
8
BLACK
6
CONTINUOUS
10
124.523
20
-156.428
11
124.713
21
-156.333
0
LINE
8
BLACK
6
CONTINUOUS
10
126.237
20
-158.143
11
126.332
21
-158.238
0
LINE
8
BLACK
6
CONTINUOUS
10
126.332
20
-158.238
11
126.237
21
-158.333
0
LINE
8
BLACK
6
CONTINUOUS
10
126.237
20
-158.333
11
126.142
21
-158.238
0
LINE
8
BLACK
6
CONTINUOUS
10
126.142
20
-158.238
11
126.237
21
-158.143
0
LINE
8
BLACK
6
CONTINUOUS
10
126.237
20
-158.143
11
126.237
21
-158.333
0
LINE
8
BLACK
6
CONTINUOUS
10
127.57
20
-156.333
11
127.761
21
-156.333
0
LINE
8
BLACK
6
CONTINUOUS
10
127.761
20
-156.333
11
127.951
21
-156.428
0
LINE
8
BLACK
6
CONTINUOUS
10
127.951
20
-156.428
11
128.047
21
-156.524
0
LINE
8
BLACK
6
CONTINUOUS
10
128.047
20
-156.524
11
128.142
21
-156.714
0
LINE
8
BLACK
6
CONTINUOUS
10
128.142
20
-156.714
11
128.237
21
-157.095
0
LINE
8
BLACK
6
CONTINUOUS
10
128.237
20
-157.095
11
128.237
21
-157.571
0
LINE
8
BLACK
6
CONTINUOUS
10
128.237
20
-157.571
11
128.142
21
-157.952
0
LINE
8
BLACK
6
CONTINUOUS
10
128.142
20
-157.952
11
128.047
21
-158.143
0
LINE
8
BLACK
6
CONTINUOUS
10
128.047
20
-158.143
11
127.951
21
-158.238
0
LINE
8
BLACK
6
CONTINUOUS
10
127.951
20
-158.238
11
127.761
21
-158.333
0
LINE
8
BLACK
6
CONTINUOUS
10
127.761
20
-158.333
11
127.57
21
-158.333
0
LINE
8
BLACK
6
CONTINUOUS
10
127.57
20
-158.333
11
127.38
21
-158.238
0
LINE
8
BLACK
6
CONTINUOUS
10
127.38
20
-158.238
11
127.285
21
-158.143
0
LINE
8
BLACK
6
CONTINUOUS
10
127.285
20
-158.143
11
127.19
21
-157.952
0
LINE
8
BLACK
6
CONTINUOUS
10
127.19
20
-157.952
11
127.094
21
-157.571
0
LINE
8
BLACK
6
CONTINUOUS
10
127.094
20
-157.571
11
127.094
21
-157.095
0
LINE
8
BLACK
6
CONTINUOUS
10
127.094
20
-157.095
11
127.19
21
-156.714
0
LINE
8
BLACK
6
CONTINUOUS
10
127.19
20
-156.714
11
127.285
21
-156.524
0
LINE
8
BLACK
6
CONTINUOUS
10
127.285
20
-156.524
11
127.38
21
-156.428
0
LINE
8
BLACK
6
CONTINUOUS
10
127.38
20
-156.428
11
127.57
21
-156.333
0
LINE
8
BLACK
6
CONTINUOUS
10
130.142
20
-158.333
11
128.999
21
-158.333
0
LINE
8
BLACK
6
CONTINUOUS
10
129.57
20
-158.333
11
129.57
21
-156.333
0
LINE
8
BLACK
6
CONTINUOUS
10
129.57
20
-156.333
11
129.38
21
-156.619
0
LINE
8
BLACK
6
CONTINUOUS
10
129.38
20
-156.619
11
129.19
21
-156.809
0
LINE
8
BLACK
6
CONTINUOUS
10
129.19
20
-156.809
11
128.999
21
-156.905
0
LINE
8
BLACK
6
CONTINUOUS
10
131.951
20
-156.333
11
130.999
21
-156.333
0
LINE
8
BLACK
6
CONTINUOUS
10
130.999
20
-156.333
11
130.904
21
-157.285
0
LINE
8
BLACK
6
CONTINUOUS
10
130.904
20
-157.285
11
130.999
21
-157.19
0
LINE
8
BLACK
6
CONTINUOUS
10
130.999
20
-157.19
11
131.19
21
-157.095
0
LINE
8
BLACK
6
CONTINUOUS
10
131.19
20
-157.095
11
131.666
21
-157.095
0
LINE
8
BLACK
6
CONTINUOUS
10
131.666
20
-157.095
11
131.856
21
-157.19
0
LINE
8
BLACK
6
CONTINUOUS
10
131.856
20
-157.19
11
131.951
21
-157.285
0
LINE
8
BLACK
6
CONTINUOUS
10
131.951
20
-157.285
11
132.047
21
-157.476
0
LINE
8
BLACK
6
CONTINUOUS
10
132.047
20
-157.476
11
132.047
21
-157.952
0
LINE
8
BLACK
6
CONTINUOUS
10
132.047
20
-157.952
11
131.951
21
-158.143
0
LINE
8
BLACK
6
CONTINUOUS
10
131.951
20
-158.143
11
131.856
21
-158.238
0
LINE
8
BLACK
6
CONTINUOUS
10
131.856
20
-158.238
11
131.666
21
-158.333
0
LINE
8
BLACK
6
CONTINUOUS
10
131.666
20
-158.333
11
131.19
21
-158.333
0
LINE
8
BLACK
6
CONTINUOUS
10
131.19
20
-158.333
11
130.999
21
-158.238
0
LINE
8
BLACK
6
CONTINUOUS
10
130.999
20
-158.238
11
130.904
21
-158.143
0
LINE
8
BLACK
6
CONTINUOUS
10
132.713
20
-156.333
11
134.047
21
-156.333
0
LINE
8
BLACK
6
CONTINUOUS
10
134.047
20
-156.333
11
133.19
21
-158.333
0
LINE
8
BLACK
6
CONTINUOUS
10
134.713
20
-156.333
11
134.713
21
-156.714
0
LINE
8
BLACK
6
CONTINUOUS
10
135.475
20
-156.333
11
135.475
21
-156.714
0
LINE
8
BLACK
6
CONTINUOUS
10
138.428
20
-159.095
11
138.332
21
-159
0
LINE
8
BLACK
6
CONTINUOUS
10
138.332
20
-159
11
138.142
21
-158.714
0
LINE
8
BLACK
6
CONTINUOUS
10
138.142
20
-158.714
11
138.047
21
-158.524
0
LINE
8
BLACK
6
CONTINUOUS
10
138.047
20
-158.524
11
137.951
21
-158.238
0
LINE
8
BLACK
6
CONTINUOUS
10
137.951
20
-158.238
11
137.856
21
-157.762
0
LINE
8
BLACK
6
CONTINUOUS
10
137.856
20
-157.762
11
137.856
21
-157.381
0
LINE
8
BLACK
6
CONTINUOUS
10
137.856
20
-157.381
11
137.951
21
-156.905
0
LINE
8
BLACK
6
CONTINUOUS
10
137.951
20
-156.905
11
138.047
21
-156.619
0
LINE
8
BLACK
6
CONTINUOUS
10
138.047
20
-156.619
11
138.142
21
-156.428
0
LINE
8
BLACK
6
CONTINUOUS
10
138.142
20
-156.428
11
138.332
21
-156.143
0
LINE
8
BLACK
6
CONTINUOUS
10
138.332
20
-156.143
11
138.428
21
-156.047
0
LINE
8
BLACK
6
CONTINUOUS
10
140.237
20
-158.333
11
139.094
21
-158.333
0
LINE
8
BLACK
6
CONTINUOUS
10
139.666
20
-158.333
11
139.666
21
-156.333
0
LINE
8
BLACK
6
CONTINUOUS
10
139.666
20
-156.333
11
139.475
21
-156.619
0
LINE
8
BLACK
6
CONTINUOUS
10
139.475
20
-156.619
11
139.285
21
-156.809
0
LINE
8
BLACK
6
CONTINUOUS
10
139.285
20
-156.809
11
139.094
21
-156.905
0
LINE
8
BLACK
6
CONTINUOUS
10
140.904
20
-156.333
11
142.142
21
-156.333
0
LINE
8
BLACK
6
CONTINUOUS
10
142.142
20
-156.333
11
141.475
21
-157.095
0
LINE
8
BLACK
6
CONTINUOUS
10
141.475
20
-157.095
11
141.761
21
-157.095
0
LINE
8
BLACK
6
CONTINUOUS
10
141.761
20
-157.095
11
141.951
21
-157.19
0
LINE
8
BLACK
6
CONTINUOUS
10
141.951
20
-157.19
11
142.047
21
-157.285
0
LINE
8
BLACK
6
CONTINUOUS
10
142.047
20
-157.285
11
142.142
21
-157.476
0
LINE
8
BLACK
6
CONTINUOUS
10
142.142
20
-157.476
11
142.142
21
-157.952
0
LINE
8
BLACK
6
CONTINUOUS
10
142.142
20
-157.952
11
142.047
21
-158.143
0
LINE
8
BLACK
6
CONTINUOUS
10
142.047
20
-158.143
11
141.951
21
-158.238
0
LINE
8
BLACK
6
CONTINUOUS
10
141.951
20
-158.238
11
141.761
21
-158.333
0
LINE
8
BLACK
6
CONTINUOUS
10
141.761
20
-158.333
11
141.19
21
-158.333
0
LINE
8
BLACK
6
CONTINUOUS
10
141.19
20
-158.333
11
140.999
21
-158.238
0
LINE
8
BLACK
6
CONTINUOUS
10
140.999
20
-158.238
11
140.904
21
-158.143
0
LINE
8
BLACK
6
CONTINUOUS
10
144.523
20
-158.333
11
144.523
21
-156.333
0
LINE
8
BLACK
6
CONTINUOUS
10
145.38
20
-158.333
11
145.38
21
-157.285
0
LINE
8
BLACK
6
CONTINUOUS
10
145.38
20
-157.285
11
145.285
21
-157.095
0
LINE
8
BLACK
6
CONTINUOUS
10
145.285
20
-157.095
11
145.094
21
-157
0
LINE
8
BLACK
6
CONTINUOUS
10
145.094
20
-157
11
144.809
21
-157
0
LINE
8
BLACK
6
CONTINUOUS
10
144.809
20
-157
11
144.618
21
-157.095
0
LINE
8
BLACK
6
CONTINUOUS
10
144.618
20
-157.095
11
144.523
21
-157.19
0
LINE
8
BLACK
6
CONTINUOUS
10
146.618
20
-158.333
11
146.428
21
-158.238
0
LINE
8
BLACK
6
CONTINUOUS
10
146.428
20
-158.238
11
146.332
21
-158.143
0
LINE
8
BLACK
6
CONTINUOUS
10
146.332
20
-158.143
11
146.237
21
-157.952
0
LINE
8
BLACK
6
CONTINUOUS
10
146.237
20
-157.952
11
146.237
21
-157.381
0
LINE
8
BLACK
6
CONTINUOUS
10
146.237
20
-157.381
11
146.332
21
-157.19
0
LINE
8
BLACK
6
CONTINUOUS
10
146.332
20
-157.19
11
146.428
21
-157.095
0
LINE
8
BLACK
6
CONTINUOUS
10
146.428
20
-157.095
11
146.618
21
-157
0
LINE
8
BLACK
6
CONTINUOUS
10
146.618
20
-157
11
146.904
21
-157
0
LINE
8
BLACK
6
CONTINUOUS
10
146.904
20
-157
11
147.094
21
-157.095
0
LINE
8
BLACK
6
CONTINUOUS
10
147.094
20
-157.095
11
147.19
21
-157.19
0
LINE
8
BLACK
6
CONTINUOUS
10
147.19
20
-157.19
11
147.285
21
-157.381
0
LINE
8
BLACK
6
CONTINUOUS
10
147.285
20
-157.381
11
147.285
21
-157.952
0
LINE
8
BLACK
6
CONTINUOUS
10
147.285
20
-157.952
11
147.19
21
-158.143
0
LINE
8
BLACK
6
CONTINUOUS
10
147.19
20
-158.143
11
147.094
21
-158.238
0
LINE
8
BLACK
6
CONTINUOUS
10
147.094
20
-158.238
11
146.904
21
-158.333
0
LINE
8
BLACK
6
CONTINUOUS
10
146.904
20
-158.333
11
146.618
21
-158.333
0
LINE
8
BLACK
6
CONTINUOUS
10
148.428
20
-158.333
11
148.237
21
-158.238
0
LINE
8
BLACK
6
CONTINUOUS
10
148.237
20
-158.238
11
148.142
21
-158.047
0
LINE
8
BLACK
6
CONTINUOUS
10
148.142
20
-158.047
11
148.142
21
-156.333
0
LINE
8
BLACK
6
CONTINUOUS
10
149.951
20
-158.238
11
149.761
21
-158.333
0
LINE
8
BLACK
6
CONTINUOUS
10
149.761
20
-158.333
11
149.38
21
-158.333
0
LINE
8
BLACK
6
CONTINUOUS
10
149.38
20
-158.333
11
149.19
21
-158.238
0
LINE
8
BLACK
6
CONTINUOUS
10
149.19
20
-158.238
11
149.094
21
-158.047
0
LINE
8
BLACK
6
CONTINUOUS
10
149.094
20
-158.047
11
149.094
21
-157.285
0
LINE
8
BLACK
6
CONTINUOUS
10
149.094
20
-157.285
11
149.19
21
-157.095
0
LINE
8
BLACK
6
CONTINUOUS
10
149.19
20
-157.095
11
149.38
21
-157
0
LINE
8
BLACK
6
CONTINUOUS
10
149.38
20
-157
11
149.761
21
-157
0
LINE
8
BLACK
6
CONTINUOUS
10
149.761
20
-157
11
149.951
21
-157.095
0
LINE
8
BLACK
6
CONTINUOUS
10
149.951
20
-157.095
11
150.047
21
-157.285
0
LINE
8
BLACK
6
CONTINUOUS
10
150.047
20
-157.285
11
150.047
21
-157.476
0
LINE
8
BLACK
6
CONTINUOUS
10
150.047
20
-157.476
11
149.094
21
-157.666
0
LINE
8
BLACK
6
CONTINUOUS
10
150.809
20
-158.238
11
150.999
21
-158.333
0
LINE
8
BLACK
6
CONTINUOUS
10
150.999
20
-158.333
11
151.38
21
-158.333
0
LINE
8
BLACK
6
CONTINUOUS
10
151.38
20
-158.333
11
151.57
21
-158.238
0
LINE
8
BLACK
6
CONTINUOUS
10
151.57
20
-158.238
11
151.666
21
-158.047
0
LINE
8
BLACK
6
CONTINUOUS
10
151.666
20
-158.047
11
151.666
21
-157.952
0
LINE
8
BLACK
6
CONTINUOUS
10
151.666
20
-157.952
11
151.57
21
-157.762
0
LINE
8
BLACK
6
CONTINUOUS
10
151.57
20
-157.762
11
151.38
21
-157.666
0
LINE
8
BLACK
6
CONTINUOUS
10
151.38
20
-157.666
11
151.094
21
-157.666
0
LINE
8
BLACK
6
CONTINUOUS
10
151.094
20
-157.666
11
150.904
21
-157.571
0
LINE
8
BLACK
6
CONTINUOUS
10
150.904
20
-157.571
11
150.809
21
-157.381
0
LINE
8
BLACK
6
CONTINUOUS
10
150.809
20
-157.381
11
150.809
21
-157.285
0
LINE
8
BLACK
6
CONTINUOUS
10
150.809
20
-157.285
11
150.904
21
-157.095
0
LINE
8
BLACK
6
CONTINUOUS
10
150.904
20
-157.095
11
151.094
21
-157
0
LINE
8
BLACK
6
CONTINUOUS
10
151.094
20
-157
11
151.38
21
-157
0
LINE
8
BLACK
6
CONTINUOUS
10
151.38
20
-157
11
151.57
21
-157.095
0
LINE
8
BLACK
6
CONTINUOUS
10
152.332
20
-159.095
11
152.428
21
-159
0
LINE
8
BLACK
6
CONTINUOUS
10
152.428
20
-159
11
152.618
21
-158.714
0
LINE
8
BLACK
6
CONTINUOUS
10
152.618
20
-158.714
11
152.713
21
-158.524
0
LINE
8
BLACK
6
CONTINUOUS
10
152.713
20
-158.524
11
152.809
21
-158.238
0
LINE
8
BLACK
6
CONTINUOUS
10
152.809
20
-158.238
11
152.904
21
-157.762
0
LINE
8
BLACK
6
CONTINUOUS
10
152.904
20
-157.762
11
152.904
21
-157.381
0
LINE
8
BLACK
6
CONTINUOUS
10
152.904
20
-157.381
11
152.809
21
-156.905
0
LINE
8
BLACK
6
CONTINUOUS
10
152.809
20
-156.905
11
152.713
21
-156.619
0
LINE
8
BLACK
6
CONTINUOUS
10
152.713
20
-156.619
11
152.618
21
-156.428
0
LINE
8
BLACK
6
CONTINUOUS
10
152.618
20
-156.428
11
152.428
21
-156.143
0
LINE
8
BLACK
6
CONTINUOUS
10
152.428
20
-156.143
11
152.332
21
-156.047
0
CIRCLE
8
BLACK
10
102.277
20
-160.058
40
0.4
0
LINE
8
BLACK
6
CONTINUOUS
10
105.666
20
-158.973
11
105.856
21
-158.973
0
LINE
8
BLACK
6
CONTINUOUS
10
105.856
20
-158.973
11
106.047
21
-159.068
0
LINE
8
BLACK
6
CONTINUOUS
10
106.047
20
-159.068
11
106.142
21
-159.164
0
LINE
8
BLACK
6
CONTINUOUS
10
106.142
20
-159.164
11
106.237
21
-159.354
0
LINE
8
BLACK
6
CONTINUOUS
10
106.237
20
-159.354
11
106.332
21
-159.735
0
LINE
8
BLACK
6
CONTINUOUS
10
106.332
20
-159.735
11
106.332
21
-160.211
0
LINE
8
BLACK
6
CONTINUOUS
10
106.332
20
-160.211
11
106.237
21
-160.592
0
LINE
8
BLACK
6
CONTINUOUS
10
106.237
20
-160.592
11
106.142
21
-160.783
0
LINE
8
BLACK
6
CONTINUOUS
10
106.142
20
-160.783
11
106.047
21
-160.878
0
LINE
8
BLACK
6
CONTINUOUS
10
106.047
20
-160.878
11
105.856
21
-160.973
0
LINE
8
BLACK
6
CONTINUOUS
10
105.856
20
-160.973
11
105.666
21
-160.973
0
LINE
8
BLACK
6
CONTINUOUS
10
105.666
20
-160.973
11
105.475
21
-160.878
0
LINE
8
BLACK
6
CONTINUOUS
10
105.475
20
-160.878
11
105.38
21
-160.783
0
LINE
8
BLACK
6
CONTINUOUS
10
105.38
20
-160.783
11
105.285
21
-160.592
0
LINE
8
BLACK
6
CONTINUOUS
10
105.285
20
-160.592
11
105.19
21
-160.211
0
LINE
8
BLACK
6
CONTINUOUS
10
105.19
20
-160.211
11
105.19
21
-159.735
0
LINE
8
BLACK
6
CONTINUOUS
10
105.19
20
-159.735
11
105.285
21
-159.354
0
LINE
8
BLACK
6
CONTINUOUS
10
105.285
20
-159.354
11
105.38
21
-159.164
0
LINE
8
BLACK
6
CONTINUOUS
10
105.38
20
-159.164
11
105.475
21
-159.068
0
LINE
8
BLACK
6
CONTINUOUS
10
105.475
20
-159.068
11
105.666
21
-158.973
0
LINE
8
BLACK
6
CONTINUOUS
10
107.19
20
-160.783
11
107.285
21
-160.878
0
LINE
8
BLACK
6
CONTINUOUS
10
107.285
20
-160.878
11
107.19
21
-160.973
0
LINE
8
BLACK
6
CONTINUOUS
10
107.19
20
-160.973
11
107.094
21
-160.878
0
LINE
8
BLACK
6
CONTINUOUS
10
107.094
20
-160.878
11
107.19
21
-160.783
0
LINE
8
BLACK
6
CONTINUOUS
10
107.19
20
-160.783
11
107.19
21
-160.973
0
LINE
8
BLACK
6
CONTINUOUS
10
108.428
20
-159.83
11
108.237
21
-159.735
0
LINE
8
BLACK
6
CONTINUOUS
10
108.237
20
-159.735
11
108.142
21
-159.64
0
LINE
8
BLACK
6
CONTINUOUS
10
108.142
20
-159.64
11
108.047
21
-159.449
0
LINE
8
BLACK
6
CONTINUOUS
10
108.047
20
-159.449
11
108.047
21
-159.354
0
LINE
8
BLACK
6
CONTINUOUS
10
108.047
20
-159.354
11
108.142
21
-159.164
0
LINE
8
BLACK
6
CONTINUOUS
10
108.142
20
-159.164
11
108.237
21
-159.068
0
LINE
8
BLACK
6
CONTINUOUS
10
108.237
20
-159.068
11
108.428
21
-158.973
0
LINE
8
BLACK
6
CONTINUOUS
10
108.428
20
-158.973
11
108.809
21
-158.973
0
LINE
8
BLACK
6
CONTINUOUS
10
108.809
20
-158.973
11
108.999
21
-159.068
0
LINE
8
BLACK
6
CONTINUOUS
10
108.999
20
-159.068
11
109.094
21
-159.164
0
LINE
8
BLACK
6
CONTINUOUS
10
109.094
20
-159.164
11
109.19
21
-159.354
0
LINE
8
BLACK
6
CONTINUOUS
10
109.19
20
-159.354
11
109.19
21
-159.449
0
LINE
8
BLACK
6
CONTINUOUS
10
109.19
20
-159.449
11
109.094
21
-159.64
0
LINE
8
BLACK
6
CONTINUOUS
10
109.094
20
-159.64
11
108.999
21
-159.735
0
LINE
8
BLACK
6
CONTINUOUS
10
108.999
20
-159.735
11
108.809
21
-159.83
0
LINE
8
BLACK
6
CONTINUOUS
10
108.809
20
-159.83
11
108.428
21
-159.83
0
LINE
8
BLACK
6
CONTINUOUS
10
108.428
20
-159.83
11
108.237
21
-159.925
0
LINE
8
BLACK
6
CONTINUOUS
10
108.237
20
-159.925
11
108.142
21
-160.021
0
LINE
8
BLACK
6
CONTINUOUS
10
108.142
20
-160.021
11
108.047
21
-160.211
0
LINE
8
BLACK
6
CONTINUOUS
10
108.047
20
-160.211
11
108.047
21
-160.592
0
LINE
8
BLACK
6
CONTINUOUS
10
108.047
20
-160.592
11
108.142
21
-160.783
0
LINE
8
BLACK
6
CONTINUOUS
10
108.142
20
-160.783
11
108.237
21
-160.878
0
LINE
8
BLACK
6
CONTINUOUS
10
108.237
20
-160.878
11
108.428
21
-160.973
0
LINE
8
BLACK
6
CONTINUOUS
10
108.428
20
-160.973
11
108.809
21
-160.973
0
LINE
8
BLACK
6
CONTINUOUS
10
108.809
20
-160.973
11
108.999
21
-160.878
0
LINE
8
BLACK
6
CONTINUOUS
10
108.999
20
-160.878
11
109.094
21
-160.783
0
LINE
8
BLACK
6
CONTINUOUS
10
109.094
20
-160.783
11
109.19
21
-160.592
0
LINE
8
BLACK
6
CONTINUOUS
10
109.19
20
-160.592
11
109.19
21
-160.211
0
LINE
8
BLACK
6
CONTINUOUS
10
109.19
20
-160.211
11
109.094
21
-160.021
0
LINE
8
BLACK
6
CONTINUOUS
10
109.094
20
-160.021
11
108.999
21
-159.925
0
LINE
8
BLACK
6
CONTINUOUS
10
108.999
20
-159.925
11
108.809
21
-159.83
0
LINE
8
BLACK
6
CONTINUOUS
10
110.428
20
-158.973
11
110.618
21
-158.973
0
LINE
8
BLACK
6
CONTINUOUS
10
110.618
20
-158.973
11
110.809
21
-159.068
0
LINE
8
BLACK
6
CONTINUOUS
10
110.809
20
-159.068
11
110.904
21
-159.164
0
LINE
8
BLACK
6
CONTINUOUS
10
110.904
20
-159.164
11
110.999
21
-159.354
0
LINE
8
BLACK
6
CONTINUOUS
10
110.999
20
-159.354
11
111.094
21
-159.735
0
LINE
8
BLACK
6
CONTINUOUS
10
111.094
20
-159.735
11
111.094
21
-160.211
0
LINE
8
BLACK
6
CONTINUOUS
10
111.094
20
-160.211
11
110.999
21
-160.592
0
LINE
8
BLACK
6
CONTINUOUS
10
110.999
20
-160.592
11
110.904
21
-160.783
0
LINE
8
BLACK
6
CONTINUOUS
10
110.904
20
-160.783
11
110.809
21
-160.878
0
LINE
8
BLACK
6
CONTINUOUS
10
110.809
20
-160.878
11
110.618
21
-160.973
0
LINE
8
BLACK
6
CONTINUOUS
10
110.618
20
-160.973
11
110.428
21
-160.973
0
LINE
8
BLACK
6
CONTINUOUS
10
110.428
20
-160.973
11
110.237
21
-160.878
0
LINE
8
BLACK
6
CONTINUOUS
10
110.237
20
-160.878
11
110.142
21
-160.783
0
LINE
8
BLACK
6
CONTINUOUS
10
110.142
20
-160.783
11
110.047
21
-160.592
0
LINE
8
BLACK
6
CONTINUOUS
10
110.047
20
-160.592
11
109.951
21
-160.211
0
LINE
8
BLACK
6
CONTINUOUS
10
109.951
20
-160.211
11
109.951
21
-159.735
0
LINE
8
BLACK
6
CONTINUOUS
10
109.951
20
-159.735
11
110.047
21
-159.354
0
LINE
8
BLACK
6
CONTINUOUS
10
110.047
20
-159.354
11
110.142
21
-159.164
0
LINE
8
BLACK
6
CONTINUOUS
10
110.142
20
-159.164
11
110.237
21
-159.068
0
LINE
8
BLACK
6
CONTINUOUS
10
110.237
20
-159.068
11
110.428
21
-158.973
0
LINE
8
BLACK
6
CONTINUOUS
10
112.332
20
-158.973
11
112.523
21
-158.973
0
LINE
8
BLACK
6
CONTINUOUS
10
112.523
20
-158.973
11
112.713
21
-159.068
0
LINE
8
BLACK
6
CONTINUOUS
10
112.713
20
-159.068
11
112.809
21
-159.164
0
LINE
8
BLACK
6
CONTINUOUS
10
112.809
20
-159.164
11
112.904
21
-159.354
0
LINE
8
BLACK
6
CONTINUOUS
10
112.904
20
-159.354
11
112.999
21
-159.735
0
LINE
8
BLACK
6
CONTINUOUS
10
112.999
20
-159.735
11
112.999
21
-160.211
0
LINE
8
BLACK
6
CONTINUOUS
10
112.999
20
-160.211
11
112.904
21
-160.592
0
LINE
8
BLACK
6
CONTINUOUS
10
112.904
20
-160.592
11
112.809
21
-160.783
0
LINE
8
BLACK
6
CONTINUOUS
10
112.809
20
-160.783
11
112.713
21
-160.878
0
LINE
8
BLACK
6
CONTINUOUS
10
112.713
20
-160.878
11
112.523
21
-160.973
0
LINE
8
BLACK
6
CONTINUOUS
10
112.523
20
-160.973
11
112.332
21
-160.973
0
LINE
8
BLACK
6
CONTINUOUS
10
112.332
20
-160.973
11
112.142
21
-160.878
0
LINE
8
BLACK
6
CONTINUOUS
10
112.142
20
-160.878
11
112.047
21
-160.783
0
LINE
8
BLACK
6
CONTINUOUS
10
112.047
20
-160.783
11
111.951
21
-160.592
0
LINE
8
BLACK
6
CONTINUOUS
10
111.951
20
-160.592
11
111.856
21
-160.211
0
LINE
8
BLACK
6
CONTINUOUS
10
111.856
20
-160.211
11
111.856
21
-159.735
0
LINE
8
BLACK
6
CONTINUOUS
10
111.856
20
-159.735
11
111.951
21
-159.354
0
LINE
8
BLACK
6
CONTINUOUS
10
111.951
20
-159.354
11
112.047
21
-159.164
0
LINE
8
BLACK
6
CONTINUOUS
10
112.047
20
-159.164
11
112.142
21
-159.068
0
LINE
8
BLACK
6
CONTINUOUS
10
112.142
20
-159.068
11
112.332
21
-158.973
0
LINE
8
BLACK
6
CONTINUOUS
10
113.856
20
-160.973
11
113.856
21
-159.64
0
LINE
8
BLACK
6
CONTINUOUS
10
113.856
20
-159.83
11
113.951
21
-159.735
0
LINE
8
BLACK
6
CONTINUOUS
10
113.951
20
-159.735
11
114.142
21
-159.64
0
LINE
8
BLACK
6
CONTINUOUS
10
114.142
20
-159.64
11
114.428
21
-159.64
0
LINE
8
BLACK
6
CONTINUOUS
10
114.428
20
-159.64
11
114.618
21
-159.735
0
LINE
8
BLACK
6
CONTINUOUS
10
114.618
20
-159.735
11
114.713
21
-159.925
0
LINE
8
BLACK
6
CONTINUOUS
10
114.713
20
-159.925
11
114.713
21
-160.973
0
LINE
8
BLACK
6
CONTINUOUS
10
114.713
20
-159.925
11
114.809
21
-159.735
0
LINE
8
BLACK
6
CONTINUOUS
10
114.809
20
-159.735
11
114.999
21
-159.64
0
LINE
8
BLACK
6
CONTINUOUS
10
114.999
20
-159.64
11
115.285
21
-159.64
0
LINE
8
BLACK
6
CONTINUOUS
10
115.285
20
-159.64
11
115.475
21
-159.735
0
LINE
8
BLACK
6
CONTINUOUS
10
115.475
20
-159.735
11
115.57
21
-159.925
0
LINE
8
BLACK
6
CONTINUOUS
10
115.57
20
-159.925
11
115.57
21
-160.973
0
LINE
8
BLACK
6
CONTINUOUS
10
116.523
20
-160.973
11
116.523
21
-159.64
0
LINE
8
BLACK
6
CONTINUOUS
10
116.523
20
-159.83
11
116.618
21
-159.735
0
LINE
8
BLACK
6
CONTINUOUS
10
116.618
20
-159.735
11
116.809
21
-159.64
0
LINE
8
BLACK
6
CONTINUOUS
10
116.809
20
-159.64
11
117.094
21
-159.64
0
LINE
8
BLACK
6
CONTINUOUS
10
117.094
20
-159.64
11
117.285
21
-159.735
0
LINE
8
BLACK
6
CONTINUOUS
10
117.285
20
-159.735
11
117.38
21
-159.925
0
LINE
8
BLACK
6
CONTINUOUS
10
117.38
20
-159.925
11
117.38
21
-160.973
0
LINE
8
BLACK
6
CONTINUOUS
10
117.38
20
-159.925
11
117.475
21
-159.735
0
LINE
8
BLACK
6
CONTINUOUS
10
117.475
20
-159.735
11
117.666
21
-159.64
0
LINE
8
BLACK
6
CONTINUOUS
10
117.666
20
-159.64
11
117.951
21
-159.64
0
LINE
8
BLACK
6
CONTINUOUS
10
117.951
20
-159.64
11
118.142
21
-159.735
0
LINE
8
BLACK
6
CONTINUOUS
10
118.142
20
-159.735
11
118.237
21
-159.925
0
LINE
8
BLACK
6
CONTINUOUS
10
118.237
20
-159.925
11
118.237
21
-160.973
0
LINE
8
BLACK
6
CONTINUOUS
10
122.142
20
-158.878
11
120.428
21
-161.449
0
LINE
8
BLACK
6
CONTINUOUS
10
124.713
20
-158.973
11
124.904
21
-158.973
0
LINE
8
BLACK
6
CONTINUOUS
10
124.904
20
-158.973
11
125.094
21
-159.068
0
LINE
8
BLACK
6
CONTINUOUS
10
125.094
20
-159.068
11
125.19
21
-159.164
0
LINE
8
BLACK
6
CONTINUOUS
10
125.19
20
-159.164
11
125.285
21
-159.354
0
LINE
8
BLACK
6
CONTINUOUS
10
125.285
20
-159.354
11
125.38
21
-159.735
0
LINE
8
BLACK
6
CONTINUOUS
10
125.38
20
-159.735
11
125.38
21
-160.211
0
LINE
8
BLACK
6
CONTINUOUS
10
125.38
20
-160.211
11
125.285
21
-160.592
0
LINE
8
BLACK
6
CONTINUOUS
10
125.285
20
-160.592
11
125.19
21
-160.783
0
LINE
8
BLACK
6
CONTINUOUS
10
125.19
20
-160.783
11
125.094
21
-160.878
0
LINE
8
BLACK
6
CONTINUOUS
10
125.094
20
-160.878
11
124.904
21
-160.973
0
LINE
8
BLACK
6
CONTINUOUS
10
124.904
20
-160.973
11
124.713
21
-160.973
0
LINE
8
BLACK
6
CONTINUOUS
10
124.713
20
-160.973
11
124.523
21
-160.878
0
LINE
8
BLACK
6
CONTINUOUS
10
124.523
20
-160.878
11
124.428
21
-160.783
0
LINE
8
BLACK
6
CONTINUOUS
10
124.428
20
-160.783
11
124.332
21
-160.592
0
LINE
8
BLACK
6
CONTINUOUS
10
124.332
20
-160.592
11
124.237
21
-160.211
0
LINE
8
BLACK
6
CONTINUOUS
10
124.237
20
-160.211
11
124.237
21
-159.735
0
LINE
8
BLACK
6
CONTINUOUS
10
124.237
20
-159.735
11
124.332
21
-159.354
0
LINE
8
BLACK
6
CONTINUOUS
10
124.332
20
-159.354
11
124.428
21
-159.164
0
LINE
8
BLACK
6
CONTINUOUS
10
124.428
20
-159.164
11
124.523
21
-159.068
0
LINE
8
BLACK
6
CONTINUOUS
10
124.523
20
-159.068
11
124.713
21
-158.973
0
LINE
8
BLACK
6
CONTINUOUS
10
126.237
20
-160.783
11
126.332
21
-160.878
0
LINE
8
BLACK
6
CONTINUOUS
10
126.332
20
-160.878
11
126.237
21
-160.973
0
LINE
8
BLACK
6
CONTINUOUS
10
126.237
20
-160.973
11
126.142
21
-160.878
0
LINE
8
BLACK
6
CONTINUOUS
10
126.142
20
-160.878
11
126.237
21
-160.783
0
LINE
8
BLACK
6
CONTINUOUS
10
126.237
20
-160.783
11
126.237
21
-160.973
0
LINE
8
BLACK
6
CONTINUOUS
10
127.57
20
-158.973
11
127.761
21
-158.973
0
LINE
8
BLACK
6
CONTINUOUS
10
127.761
20
-158.973
11
127.951
21
-159.068
0
LINE
8
BLACK
6
CONTINUOUS
10
127.951
20
-159.068
11
128.047
21
-159.164
0
LINE
8
BLACK
6
CONTINUOUS
10
128.047
20
-159.164
11
128.142
21
-159.354
0
LINE
8
BLACK
6
CONTINUOUS
10
128.142
20
-159.354
11
128.237
21
-159.735
0
LINE
8
BLACK
6
CONTINUOUS
10
128.237
20
-159.735
11
128.237
21
-160.211
0
LINE
8
BLACK
6
CONTINUOUS
10
128.237
20
-160.211
11
128.142
21
-160.592
0
LINE
8
BLACK
6
CONTINUOUS
10
128.142
20
-160.592
11
128.047
21
-160.783
0
LINE
8
BLACK
6
CONTINUOUS
10
128.047
20
-160.783
11
127.951
21
-160.878
0
LINE
8
BLACK
6
CONTINUOUS
10
127.951
20
-160.878
11
127.761
21
-160.973
0
LINE
8
BLACK
6
CONTINUOUS
10
127.761
20
-160.973
11
127.57
21
-160.973
0
LINE
8
BLACK
6
CONTINUOUS
10
127.57
20
-160.973
11
127.38
21
-160.878
0
LINE
8
BLACK
6
CONTINUOUS
10
127.38
20
-160.878
11
127.285
21
-160.783
0
LINE
8
BLACK
6
CONTINUOUS
10
127.285
20
-160.783
11
127.19
21
-160.592
0
LINE
8
BLACK
6
CONTINUOUS
10
127.19
20
-160.592
11
127.094
21
-160.211
0
LINE
8
BLACK
6
CONTINUOUS
10
127.094
20
-160.211
11
127.094
21
-159.735
0
LINE
8
BLACK
6
CONTINUOUS
10
127.094
20
-159.735
11
127.19
21
-159.354
0
LINE
8
BLACK
6
CONTINUOUS
10
127.19
20
-159.354
11
127.285
21
-159.164
0
LINE
8
BLACK
6
CONTINUOUS
10
127.285
20
-159.164
11
127.38
21
-159.068
0
LINE
8
BLACK
6
CONTINUOUS
10
127.38
20
-159.068
11
127.57
21
-158.973
0
LINE
8
BLACK
6
CONTINUOUS
10
128.904
20
-158.973
11
130.142
21
-158.973
0
LINE
8
BLACK
6
CONTINUOUS
10
130.142
20
-158.973
11
129.475
21
-159.735
0
LINE
8
BLACK
6
CONTINUOUS
10
129.475
20
-159.735
11
129.761
21
-159.735
0
LINE
8
BLACK
6
CONTINUOUS
10
129.761
20
-159.735
11
129.951
21
-159.83
0
LINE
8
BLACK
6
CONTINUOUS
10
129.951
20
-159.83
11
130.047
21
-159.925
0
LINE
8
BLACK
6
CONTINUOUS
10
130.047
20
-159.925
11
130.142
21
-160.116
0
LINE
8
BLACK
6
CONTINUOUS
10
130.142
20
-160.116
11
130.142
21
-160.592
0
LINE
8
BLACK
6
CONTINUOUS
10
130.142
20
-160.592
11
130.047
21
-160.783
0
LINE
8
BLACK
6
CONTINUOUS
10
130.047
20
-160.783
11
129.951
21
-160.878
0
LINE
8
BLACK
6
CONTINUOUS
10
129.951
20
-160.878
11
129.761
21
-160.973
0
LINE
8
BLACK
6
CONTINUOUS
10
129.761
20
-160.973
11
129.19
21
-160.973
0
LINE
8
BLACK
6
CONTINUOUS
10
129.19
20
-160.973
11
128.999
21
-160.878
0
LINE
8
BLACK
6
CONTINUOUS
10
128.999
20
-160.878
11
128.904
21
-160.783
0
LINE
8
BLACK
6
CONTINUOUS
10
132.047
20
-160.973
11
130.904
21
-160.973
0
LINE
8
BLACK
6
CONTINUOUS
10
131.475
20
-160.973
11
131.475
21
-158.973
0
LINE
8
BLACK
6
CONTINUOUS
10
131.475
20
-158.973
11
131.285
21
-159.259
0
LINE
8
BLACK
6
CONTINUOUS
10
131.285
20
-159.259
11
131.094
21
-159.449
0
LINE
8
BLACK
6
CONTINUOUS
10
131.094
20
-159.449
11
130.904
21
-159.545
0
LINE
8
BLACK
6
CONTINUOUS
10
133.856
20
-158.973
11
132.904
21
-158.973
0
LINE
8
BLACK
6
CONTINUOUS
10
132.904
20
-158.973
11
132.809
21
-159.925
0
LINE
8
BLACK
6
CONTINUOUS
10
132.809
20
-159.925
11
132.904
21
-159.83
0
LINE
8
BLACK
6
CONTINUOUS
10
132.904
20
-159.83
11
133.094
21
-159.735
0
LINE
8
BLACK
6
CONTINUOUS
10
133.094
20
-159.735
11
133.57
21
-159.735
0
LINE
8
BLACK
6
CONTINUOUS
10
133.57
20
-159.735
11
133.761
21
-159.83
0
LINE
8
BLACK
6
CONTINUOUS
10
133.761
20
-159.83
11
133.856
21
-159.925
0
LINE
8
BLACK
6
CONTINUOUS
10
133.856
20
-159.925
11
133.951
21
-160.116
0
LINE
8
BLACK
6
CONTINUOUS
10
133.951
20
-160.116
11
133.951
21
-160.592
0
LINE
8
BLACK
6
CONTINUOUS
10
133.951
20
-160.592
11
133.856
21
-160.783
0
LINE
8
BLACK
6
CONTINUOUS
10
133.856
20
-160.783
11
133.761
21
-160.878
0
LINE
8
BLACK
6
CONTINUOUS
10
133.761
20
-160.878
11
133.57
21
-160.973
0
LINE
8
BLACK
6
CONTINUOUS
10
133.57
20
-160.973
11
133.094
21
-160.973
0
LINE
8
BLACK
6
CONTINUOUS
10
133.094
20
-160.973
11
132.904
21
-160.878
0
LINE
8
BLACK
6
CONTINUOUS
10
132.904
20
-160.878
11
132.809
21
-160.783
0
LINE
8
BLACK
6
CONTINUOUS
10
134.713
20
-158.973
11
134.713
21
-159.354
0
LINE
8
BLACK
6
CONTINUOUS
10
135.475
20
-158.973
11
135.475
21
-159.354
0
LINE
8
BLACK
6
CONTINUOUS
10
138.428
20
-161.735
11
138.332
21
-161.64
0
LINE
8
BLACK
6
CONTINUOUS
10
138.332
20
-161.64
11
138.142
21
-161.354
0
LINE
8
BLACK
6
CONTINUOUS
10
138.142
20
-161.354
11
138.047
21
-161.164
0
LINE
8
BLACK
6
CONTINUOUS
10
138.047
20
-161.164
11
137.951
21
-160.878
0
LINE
8
BLACK
6
CONTINUOUS
10
137.951
20
-160.878
11
137.856
21
-160.402
0
LINE
8
BLACK
6
CONTINUOUS
10
137.856
20
-160.402
11
137.856
21
-160.021
0
LINE
8
BLACK
6
CONTINUOUS
10
137.856
20
-160.021
11
137.951
21
-159.545
0
LINE
8
BLACK
6
CONTINUOUS
10
137.951
20
-159.545
11
138.047
21
-159.259
0
LINE
8
BLACK
6
CONTINUOUS
10
138.047
20
-159.259
11
138.142
21
-159.068
0
LINE
8
BLACK
6
CONTINUOUS
10
138.142
20
-159.068
11
138.332
21
-158.783
0
LINE
8
BLACK
6
CONTINUOUS
10
138.332
20
-158.783
11
138.428
21
-158.687
0
LINE
8
BLACK
6
CONTINUOUS
10
139.094
20
-159.164
11
139.19
21
-159.068
0
LINE
8
BLACK
6
CONTINUOUS
10
139.19
20
-159.068
11
139.38
21
-158.973
0
LINE
8
BLACK
6
CONTINUOUS
10
139.38
20
-158.973
11
139.856
21
-158.973
0
LINE
8
BLACK
6
CONTINUOUS
10
139.856
20
-158.973
11
140.047
21
-159.068
0
LINE
8
BLACK
6
CONTINUOUS
10
140.047
20
-159.068
11
140.142
21
-159.164
0
LINE
8
BLACK
6
CONTINUOUS
10
140.142
20
-159.164
11
140.237
21
-159.354
0
LINE
8
BLACK
6
CONTINUOUS
10
140.237
20
-159.354
11
140.237
21
-159.545
0
LINE
8
BLACK
6
CONTINUOUS
10
140.237
20
-159.545
11
140.142
21
-159.83
0
LINE
8
BLACK
6
CONTINUOUS
10
140.142
20
-159.83
11
138.999
21
-160.973
0
LINE
8
BLACK
6
CONTINUOUS
10
138.999
20
-160.973
11
140.237
21
-160.973
0
LINE
8
BLACK
6
CONTINUOUS
10
142.618
20
-160.973
11
142.618
21
-158.973
0
LINE
8
BLACK
6
CONTINUOUS
10
143.475
20
-160.973
11
143.475
21
-159.925
0
LINE
8
BLACK
6
CONTINUOUS
10
143.475
20
-159.925
11
143.38
21
-159.735
0
LINE
8
BLACK
6
CONTINUOUS
10
143.38
20
-159.735
11
143.19
21
-159.64
0
LINE
8
BLACK
6
CONTINUOUS
10
143.19
20
-159.64
11
142.904
21
-159.64
0
LINE
8
BLACK
6
CONTINUOUS
10
142.904
20
-159.64
11
142.713
21
-159.735
0
LINE
8
BLACK
6
CONTINUOUS
10
142.713
20
-159.735
11
142.618
21
-159.83
0
LINE
8
BLACK
6
CONTINUOUS
10
144.713
20
-160.973
11
144.523
21
-160.878
0
LINE
8
BLACK
6
CONTINUOUS
10
144.523
20
-160.878
11
144.428
21
-160.783
0
LINE
8
BLACK
6
CONTINUOUS
10
144.428
20
-160.783
11
144.332
21
-160.592
0
LINE
8
BLACK
6
CONTINUOUS
10
144.332
20
-160.592
11
144.332
21
-160.021
0
LINE
8
BLACK
6
CONTINUOUS
10
144.332
20
-160.021
11
144.428
21
-159.83
0
LINE
8
BLACK
6
CONTINUOUS
10
144.428
20
-159.83
11
144.523
21
-159.735
0
LINE
8
BLACK
6
CONTINUOUS
10
144.523
20
-159.735
11
144.713
21
-159.64
0
LINE
8
BLACK
6
CONTINUOUS
10
144.713
20
-159.64
11
144.999
21
-159.64
0
LINE
8
BLACK
6
CONTINUOUS
10
144.999
20
-159.64
11
145.19
21
-159.735
0
LINE
8
BLACK
6
CONTINUOUS
10
145.19
20
-159.735
11
145.285
21
-159.83
0
LINE
8
BLACK
6
CONTINUOUS
10
145.285
20
-159.83
11
145.38
21
-160.021
0
LINE
8
BLACK
6
CONTINUOUS
10
145.38
20
-160.021
11
145.38
21
-160.592
0
LINE
8
BLACK
6
CONTINUOUS
10
145.38
20
-160.592
11
145.285
21
-160.783
0
LINE
8
BLACK
6
CONTINUOUS
10
145.285
20
-160.783
11
145.19
21
-160.878
0
LINE
8
BLACK
6
CONTINUOUS
10
145.19
20
-160.878
11
144.999
21
-160.973
0
LINE
8
BLACK
6
CONTINUOUS
10
144.999
20
-160.973
11
144.713
21
-160.973
0
LINE
8
BLACK
6
CONTINUOUS
10
146.523
20
-160.973
11
146.332
21
-160.878
0
LINE
8
BLACK
6
CONTINUOUS
10
146.332
20
-160.878
11
146.237
21
-160.687
0
LINE
8
BLACK
6
CONTINUOUS
10
146.237
20
-160.687
11
146.237
21
-158.973
0
LINE
8
BLACK
6
CONTINUOUS
10
148.047
20
-160.878
11
147.856
21
-160.973
0
LINE
8
BLACK
6
CONTINUOUS
10
147.856
20
-160.973
11
147.475
21
-160.973
0
LINE
8
BLACK
6
CONTINUOUS
10
147.475
20
-160.973
11
147.285
21
-160.878
0
LINE
8
BLACK
6
CONTINUOUS
10
147.285
20
-160.878
11
147.19
21
-160.687
0
LINE
8
BLACK
6
CONTINUOUS
10
147.19
20
-160.687
11
147.19
21
-159.925
0
LINE
8
BLACK
6
CONTINUOUS
10
147.19
20
-159.925
11
147.285
21
-159.735
0
LINE
8
BLACK
6
CONTINUOUS
10
147.285
20
-159.735
11
147.475
21
-159.64
0
LINE
8
BLACK
6
CONTINUOUS
10
147.475
20
-159.64
11
147.856
21
-159.64
0
LINE
8
BLACK
6
CONTINUOUS
10
147.856
20
-159.64
11
148.047
21
-159.735
0
LINE
8
BLACK
6
CONTINUOUS
10
148.047
20
-159.735
11
148.142
21
-159.925
0
LINE
8
BLACK
6
CONTINUOUS
10
148.142
20
-159.925
11
148.142
21
-160.116
0
LINE
8
BLACK
6
CONTINUOUS
10
148.142
20
-160.116
11
147.19
21
-160.306
0
LINE
8
BLACK
6
CONTINUOUS
10
148.904
20
-160.878
11
149.094
21
-160.973
0
LINE
8
BLACK
6
CONTINUOUS
10
149.094
20
-160.973
11
149.475
21
-160.973
0
LINE
8
BLACK
6
CONTINUOUS
10
149.475
20
-160.973
11
149.666
21
-160.878
0
LINE
8
BLACK
6
CONTINUOUS
10
149.666
20
-160.878
11
149.761
21
-160.687
0
LINE
8
BLACK
6
CONTINUOUS
10
149.761
20
-160.687
11
149.761
21
-160.592
0
LINE
8
BLACK
6
CONTINUOUS
10
149.761
20
-160.592
11
149.666
21
-160.402
0
LINE
8
BLACK
6
CONTINUOUS
10
149.666
20
-160.402
11
149.475
21
-160.306
0
LINE
8
BLACK
6
CONTINUOUS
10
149.475
20
-160.306
11
149.19
21
-160.306
0
LINE
8
BLACK
6
CONTINUOUS
10
149.19
20
-160.306
11
148.999
21
-160.211
0
LINE
8
BLACK
6
CONTINUOUS
10
148.999
20
-160.211
11
148.904
21
-160.021
0
LINE
8
BLACK
6
CONTINUOUS
10
148.904
20
-160.021
11
148.904
21
-159.925
0
LINE
8
BLACK
6
CONTINUOUS
10
148.904
20
-159.925
11
148.999
21
-159.735
0
LINE
8
BLACK
6
CONTINUOUS
10
148.999
20
-159.735
11
149.19
21
-159.64
0
LINE
8
BLACK
6
CONTINUOUS
10
149.19
20
-159.64
11
149.475
21
-159.64
0
LINE
8
BLACK
6
CONTINUOUS
10
149.475
20
-159.64
11
149.666
21
-159.735
0
LINE
8
BLACK
6
CONTINUOUS
10
150.428
20
-161.735
11
150.523
21
-161.64
0
LINE
8
BLACK
6
CONTINUOUS
10
150.523
20
-161.64
11
150.713
21
-161.354
0
LINE
8
BLACK
6
CONTINUOUS
10
150.713
20
-161.354
11
150.809
21
-161.164
0
LINE
8
BLACK
6
CONTINUOUS
10
150.809
20
-161.164
11
150.904
21
-160.878
0
LINE
8
BLACK
6
CONTINUOUS
10
150.904
20
-160.878
11
150.999
21
-160.402
0
LINE
8
BLACK
6
CONTINUOUS
10
150.999
20
-160.402
11
150.999
21
-160.021
0
LINE
8
BLACK
6
CONTINUOUS
10
150.999
20
-160.021
11
150.904
21
-159.545
0
LINE
8
BLACK
6
CONTINUOUS
10
150.904
20
-159.545
11
150.809
21
-159.259
0
LINE
8
BLACK
6
CONTINUOUS
10
150.809
20
-159.259
11
150.713
21
-159.068
0
LINE
8
BLACK
6
CONTINUOUS
10
150.713
20
-159.068
11
150.523
21
-158.783
0
LINE
8
BLACK
6
CONTINUOUS
10
150.523
20
-158.783
11
150.428
21
-158.687
0
LINE
8
BLACK
6
CONTINUOUS
10
102.202
20
-162.223
11
102.202
21
-163.173
0
LINE
8
BLACK
6
CONTINUOUS
10
101.727
20
-162.698
11
102.677
21
-162.698
0
LINE
8
BLACK
6
CONTINUOUS
10
105.666
20
-161.613
11
105.856
21
-161.613
0
LINE
8
BLACK
6
CONTINUOUS
10
105.856
20
-161.613
11
106.047
21
-161.708
0
LINE
8
BLACK
6
CONTINUOUS
10
106.047
20
-161.708
11
106.142
21
-161.804
0
LINE
8
BLACK
6
CONTINUOUS
10
106.142
20
-161.804
11
106.237
21
-161.994
0
LINE
8
BLACK
6
CONTINUOUS
10
106.237
20
-161.994
11
106.332
21
-162.375
0
LINE
8
BLACK
6
CONTINUOUS
10
106.332
20
-162.375
11
106.332
21
-162.851
0
LINE
8
BLACK
6
CONTINUOUS
10
106.332
20
-162.851
11
106.237
21
-163.232
0
LINE
8
BLACK
6
CONTINUOUS
10
106.237
20
-163.232
11
106.142
21
-163.423
0
LINE
8
BLACK
6
CONTINUOUS
10
106.142
20
-163.423
11
106.047
21
-163.518
0
LINE
8
BLACK
6
CONTINUOUS
10
106.047
20
-163.518
11
105.856
21
-163.613
0
LINE
8
BLACK
6
CONTINUOUS
10
105.856
20
-163.613
11
105.666
21
-163.613
0
LINE
8
BLACK
6
CONTINUOUS
10
105.666
20
-163.613
11
105.475
21
-163.518
0
LINE
8
BLACK
6
CONTINUOUS
10
105.475
20
-163.518
11
105.38
21
-163.423
0
LINE
8
BLACK
6
CONTINUOUS
10
105.38
20
-163.423
11
105.285
21
-163.232
0
LINE
8
BLACK
6
CONTINUOUS
10
105.285
20
-163.232
11
105.19
21
-162.851
0
LINE
8
BLACK
6
CONTINUOUS
10
105.19
20
-162.851
11
105.19
21
-162.375
0
LINE
8
BLACK
6
CONTINUOUS
10
105.19
20
-162.375
11
105.285
21
-161.994
0
LINE
8
BLACK
6
CONTINUOUS
10
105.285
20
-161.994
11
105.38
21
-161.804
0
LINE
8
BLACK
6
CONTINUOUS
10
105.38
20
-161.804
11
105.475
21
-161.708
0
LINE
8
BLACK
6
CONTINUOUS
10
105.475
20
-161.708
11
105.666
21
-161.613
0
LINE
8
BLACK
6
CONTINUOUS
10
107.19
20
-163.423
11
107.285
21
-163.518
0
LINE
8
BLACK
6
CONTINUOUS
10
107.285
20
-163.518
11
107.19
21
-163.613
0
LINE
8
BLACK
6
CONTINUOUS
10
107.19
20
-163.613
11
107.094
21
-163.518
0
LINE
8
BLACK
6
CONTINUOUS
10
107.094
20
-163.518
11
107.19
21
-163.423
0
LINE
8
BLACK
6
CONTINUOUS
10
107.19
20
-163.423
11
107.19
21
-163.613
0
LINE
8
BLACK
6
CONTINUOUS
10
108.237
20
-163.613
11
108.618
21
-163.613
0
LINE
8
BLACK
6
CONTINUOUS
10
108.618
20
-163.613
11
108.809
21
-163.518
0
LINE
8
BLACK
6
CONTINUOUS
10
108.809
20
-163.518
11
108.904
21
-163.423
0
LINE
8
BLACK
6
CONTINUOUS
10
108.904
20
-163.423
11
109.094
21
-163.137
0
LINE
8
BLACK
6
CONTINUOUS
10
109.094
20
-163.137
11
109.19
21
-162.756
0
LINE
8
BLACK
6
CONTINUOUS
10
109.19
20
-162.756
11
109.19
21
-161.994
0
LINE
8
BLACK
6
CONTINUOUS
10
109.19
20
-161.994
11
109.094
21
-161.804
0
LINE
8
BLACK
6
CONTINUOUS
10
109.094
20
-161.804
11
108.999
21
-161.708
0
LINE
8
BLACK
6
CONTINUOUS
10
108.999
20
-161.708
11
108.809
21
-161.613
0
LINE
8
BLACK
6
CONTINUOUS
10
108.809
20
-161.613
11
108.428
21
-161.613
0
LINE
8
BLACK
6
CONTINUOUS
10
108.428
20
-161.613
11
108.237
21
-161.708
0
LINE
8
BLACK
6
CONTINUOUS
10
108.237
20
-161.708
11
108.142
21
-161.804
0
LINE
8
BLACK
6
CONTINUOUS
10
108.142
20
-161.804
11
108.047
21
-161.994
0
LINE
8
BLACK
6
CONTINUOUS
10
108.047
20
-161.994
11
108.047
21
-162.47
0
LINE
8
BLACK
6
CONTINUOUS
10
108.047
20
-162.47
11
108.142
21
-162.661
0
LINE
8
BLACK
6
CONTINUOUS
10
108.142
20
-162.661
11
108.237
21
-162.756
0
LINE
8
BLACK
6
CONTINUOUS
10
108.237
20
-162.756
11
108.428
21
-162.851
0
LINE
8
BLACK
6
CONTINUOUS
10
108.428
20
-162.851
11
108.809
21
-162.851
0
LINE
8
BLACK
6
CONTINUOUS
10
108.809
20
-162.851
11
108.999
21
-162.756
0
LINE
8
BLACK
6
CONTINUOUS
10
108.999
20
-162.756
11
109.094
21
-162.661
0
LINE
8
BLACK
6
CONTINUOUS
10
109.094
20
-162.661
11
109.19
21
-162.47
0
LINE
8
BLACK
6
CONTINUOUS
10
110.999
20
-161.613
11
110.047
21
-161.613
0
LINE
8
BLACK
6
CONTINUOUS
10
110.047
20
-161.613
11
109.951
21
-162.565
0
LINE
8
BLACK
6
CONTINUOUS
10
109.951
20
-162.565
11
110.047
21
-162.47
0
LINE
8
BLACK
6
CONTINUOUS
10
110.047
20
-162.47
11
110.237
21
-162.375
0
LINE
8
BLACK
6
CONTINUOUS
10
110.237
20
-162.375
11
110.713
21
-162.375
0
LINE
8
BLACK
6
CONTINUOUS
10
110.713
20
-162.375
11
110.904
21
-162.47
0
LINE
8
BLACK
6
CONTINUOUS
10
110.904
20
-162.47
11
110.999
21
-162.565
0
LINE
8
BLACK
6
CONTINUOUS
10
110.999
20
-162.565
11
111.094
21
-162.756
0
LINE
8
BLACK
6
CONTINUOUS
10
111.094
20
-162.756
11
111.094
21
-163.232
0
LINE
8
BLACK
6
CONTINUOUS
10
111.094
20
-163.232
11
110.999
21
-163.423
0
LINE
8
BLACK
6
CONTINUOUS
10
110.999
20
-163.423
11
110.904
21
-163.518
0
LINE
8
BLACK
6
CONTINUOUS
10
110.904
20
-163.518
11
110.713
21
-163.613
0
LINE
8
BLACK
6
CONTINUOUS
10
110.713
20
-163.613
11
110.237
21
-163.613
0
LINE
8
BLACK
6
CONTINUOUS
10
110.237
20
-163.613
11
110.047
21
-163.518
0
LINE
8
BLACK
6
CONTINUOUS
10
110.047
20
-163.518
11
109.951
21
-163.423
0
LINE
8
BLACK
6
CONTINUOUS
10
112.332
20
-161.613
11
112.523
21
-161.613
0
LINE
8
BLACK
6
CONTINUOUS
10
112.523
20
-161.613
11
112.713
21
-161.708
0
LINE
8
BLACK
6
CONTINUOUS
10
112.713
20
-161.708
11
112.809
21
-161.804
0
LINE
8
BLACK
6
CONTINUOUS
10
112.809
20
-161.804
11
112.904
21
-161.994
0
LINE
8
BLACK
6
CONTINUOUS
10
112.904
20
-161.994
11
112.999
21
-162.375
0
LINE
8
BLACK
6
CONTINUOUS
10
112.999
20
-162.375
11
112.999
21
-162.851
0
LINE
8
BLACK
6
CONTINUOUS
10
112.999
20
-162.851
11
112.904
21
-163.232
0
LINE
8
BLACK
6
CONTINUOUS
10
112.904
20
-163.232
11
112.809
21
-163.423
0
LINE
8
BLACK
6
CONTINUOUS
10
112.809
20
-163.423
11
112.713
21
-163.518
0
LINE
8
BLACK
6
CONTINUOUS
10
112.713
20
-163.518
11
112.523
21
-163.613
0
LINE
8
BLACK
6
CONTINUOUS
10
112.523
20
-163.613
11
112.332
21
-163.613
0
LINE
8
BLACK
6
CONTINUOUS
10
112.332
20
-163.613
11
112.142
21
-163.518
0
LINE
8
BLACK
6
CONTINUOUS
10
112.142
20
-163.518
11
112.047
21
-163.423
0
LINE
8
BLACK
6
CONTINUOUS
10
112.047
20
-163.423
11
111.951
21
-163.232
0
LINE
8
BLACK
6
CONTINUOUS
10
111.951
20
-163.232
11
111.856
21
-162.851
0
LINE
8
BLACK
6
CONTINUOUS
10
111.856
20
-162.851
11
111.856
21
-162.375
0
LINE
8
BLACK
6
CONTINUOUS
10
111.856
20
-162.375
11
111.951
21
-161.994
0
LINE
8
BLACK
6
CONTINUOUS
10
111.951
20
-161.994
11
112.047
21
-161.804
0
LINE
8
BLACK
6
CONTINUOUS
10
112.047
20
-161.804
11
112.142
21
-161.708
0
LINE
8
BLACK
6
CONTINUOUS
10
112.142
20
-161.708
11
112.332
21
-161.613
0
LINE
8
BLACK
6
CONTINUOUS
10
113.856
20
-163.613
11
113.856
21
-162.28
0
LINE
8
BLACK
6
CONTINUOUS
10
113.856
20
-162.47
11
113.951
21
-162.375
0
LINE
8
BLACK
6
CONTINUOUS
10
113.951
20
-162.375
11
114.142
21
-162.28
0
LINE
8
BLACK
6
CONTINUOUS
10
114.142
20
-162.28
11
114.428
21
-162.28
0
LINE
8
BLACK
6
CONTINUOUS
10
114.428
20
-162.28
11
114.618
21
-162.375
0
LINE
8
BLACK
6
CONTINUOUS
10
114.618
20
-162.375
11
114.713
21
-162.565
0
LINE
8
BLACK
6
CONTINUOUS
10
114.713
20
-162.565
11
114.713
21
-163.613
0
LINE
8
BLACK
6
CONTINUOUS
10
114.713
20
-162.565
11
114.809
21
-162.375
0
LINE
8
BLACK
6
CONTINUOUS
10
114.809
20
-162.375
11
114.999
21
-162.28
0
LINE
8
BLACK
6
CONTINUOUS
10
114.999
20
-162.28
11
115.285
21
-162.28
0
LINE
8
BLACK
6
CONTINUOUS
10
115.285
20
-162.28
11
115.475
21
-162.375
0
LINE
8
BLACK
6
CONTINUOUS
10
115.475
20
-162.375
11
115.57
21
-162.565
0
LINE
8
BLACK
6
CONTINUOUS
10
115.57
20
-162.565
11
115.57
21
-163.613
0
LINE
8
BLACK
6
CONTINUOUS
10
116.523
20
-163.613
11
116.523
21
-162.28
0
LINE
8
BLACK
6
CONTINUOUS
10
116.523
20
-162.47
11
116.618
21
-162.375
0
LINE
8
BLACK
6
CONTINUOUS
10
116.618
20
-162.375
11
116.809
21
-162.28
0
LINE
8
BLACK
6
CONTINUOUS
10
116.809
20
-162.28
11
117.094
21
-162.28
0
LINE
8
BLACK
6
CONTINUOUS
10
117.094
20
-162.28
11
117.285
21
-162.375
0
LINE
8
BLACK
6
CONTINUOUS
10
117.285
20
-162.375
11
117.38
21
-162.565
0
LINE
8
BLACK
6
CONTINUOUS
10
117.38
20
-162.565
11
117.38
21
-163.613
0
LINE
8
BLACK
6
CONTINUOUS
10
117.38
20
-162.565
11
117.475
21
-162.375
0
LINE
8
BLACK
6
CONTINUOUS
10
117.475
20
-162.375
11
117.666
21
-162.28
0
LINE
8
BLACK
6
CONTINUOUS
10
117.666
20
-162.28
11
117.951
21
-162.28
0
LINE
8
BLACK
6
CONTINUOUS
10
117.951
20
-162.28
11
118.142
21
-162.375
0
LINE
8
BLACK
6
CONTINUOUS
10
118.142
20
-162.375
11
118.237
21
-162.565
0
LINE
8
BLACK
6
CONTINUOUS
10
118.237
20
-162.565
11
118.237
21
-163.613
0
LINE
8
BLACK
6
CONTINUOUS
10
122.142
20
-161.518
11
120.428
21
-164.089
0
LINE
8
BLACK
6
CONTINUOUS
10
124.713
20
-161.613
11
124.904
21
-161.613
0
LINE
8
BLACK
6
CONTINUOUS
10
124.904
20
-161.613
11
125.094
21
-161.708
0
LINE
8
BLACK
6
CONTINUOUS
10
125.094
20
-161.708
11
125.19
21
-161.804
0
LINE
8
BLACK
6
CONTINUOUS
10
125.19
20
-161.804
11
125.285
21
-161.994
0
LINE
8
BLACK
6
CONTINUOUS
10
125.285
20
-161.994
11
125.38
21
-162.375
0
LINE
8
BLACK
6
CONTINUOUS
10
125.38
20
-162.375
11
125.38
21
-162.851
0
LINE
8
BLACK
6
CONTINUOUS
10
125.38
20
-162.851
11
125.285
21
-163.232
0
LINE
8
BLACK
6
CONTINUOUS
10
125.285
20
-163.232
11
125.19
21
-163.423
0
LINE
8
BLACK
6
CONTINUOUS
10
125.19
20
-163.423
11
125.094
21
-163.518
0
LINE
8
BLACK
6
CONTINUOUS
10
125.094
20
-163.518
11
124.904
21
-163.613
0
LINE
8
BLACK
6
CONTINUOUS
10
124.904
20
-163.613
11
124.713
21
-163.613
0
LINE
8
BLACK
6
CONTINUOUS
10
124.713
20
-163.613
11
124.523
21
-163.518
0
LINE
8
BLACK
6
CONTINUOUS
10
124.523
20
-163.518
11
124.428
21
-163.423
0
LINE
8
BLACK
6
CONTINUOUS
10
124.428
20
-163.423
11
124.332
21
-163.232
0
LINE
8
BLACK
6
CONTINUOUS
10
124.332
20
-163.232
11
124.237
21
-162.851
0
LINE
8
BLACK
6
CONTINUOUS
10
124.237
20
-162.851
11
124.237
21
-162.375
0
LINE
8
BLACK
6
CONTINUOUS
10
124.237
20
-162.375
11
124.332
21
-161.994
0
LINE
8
BLACK
6
CONTINUOUS
10
124.332
20
-161.994
11
124.428
21
-161.804
0
LINE
8
BLACK
6
CONTINUOUS
10
124.428
20
-161.804
11
124.523
21
-161.708
0
LINE
8
BLACK
6
CONTINUOUS
10
124.523
20
-161.708
11
124.713
21
-161.613
0
LINE
8
BLACK
6
CONTINUOUS
10
126.237
20
-163.423
11
126.332
21
-163.518
0
LINE
8
BLACK
6
CONTINUOUS
10
126.332
20
-163.518
11
126.237
21
-163.613
0
LINE
8
BLACK
6
CONTINUOUS
10
126.237
20
-163.613
11
126.142
21
-163.518
0
LINE
8
BLACK
6
CONTINUOUS
10
126.142
20
-163.518
11
126.237
21
-163.423
0
LINE
8
BLACK
6
CONTINUOUS
10
126.237
20
-163.423
11
126.237
21
-163.613
0
LINE
8
BLACK
6
CONTINUOUS
10
127.57
20
-161.613
11
127.761
21
-161.613
0
LINE
8
BLACK
6
CONTINUOUS
10
127.761
20
-161.613
11
127.951
21
-161.708
0
LINE
8
BLACK
6
CONTINUOUS
10
127.951
20
-161.708
11
128.047
21
-161.804
0
LINE
8
BLACK
6
CONTINUOUS
10
128.047
20
-161.804
11
128.142
21
-161.994
0
LINE
8
BLACK
6
CONTINUOUS
10
128.142
20
-161.994
11
128.237
21
-162.375
0
LINE
8
BLACK
6
CONTINUOUS
10
128.237
20
-162.375
11
128.237
21
-162.851
0
LINE
8
BLACK
6
CONTINUOUS
10
128.237
20
-162.851
11
128.142
21
-163.232
0
LINE
8
BLACK
6
CONTINUOUS
10
128.142
20
-163.232
11
128.047
21
-163.423
0
LINE
8
BLACK
6
CONTINUOUS
10
128.047
20
-163.423
11
127.951
21
-163.518
0
LINE
8
BLACK
6
CONTINUOUS
10
127.951
20
-163.518
11
127.761
21
-163.613
0
LINE
8
BLACK
6
CONTINUOUS
10
127.761
20
-163.613
11
127.57
21
-163.613
0
LINE
8
BLACK
6
CONTINUOUS
10
127.57
20
-163.613
11
127.38
21
-163.518
0
LINE
8
BLACK
6
CONTINUOUS
10
127.38
20
-163.518
11
127.285
21
-163.423
0
LINE
8
BLACK
6
CONTINUOUS
10
127.285
20
-163.423
11
127.19
21
-163.232
0
LINE
8
BLACK
6
CONTINUOUS
10
127.19
20
-163.232
11
127.094
21
-162.851
0
LINE
8
BLACK
6
CONTINUOUS
10
127.094
20
-162.851
11
127.094
21
-162.375
0
LINE
8
BLACK
6
CONTINUOUS
10
127.094
20
-162.375
11
127.19
21
-161.994
0
LINE
8
BLACK
6
CONTINUOUS
10
127.19
20
-161.994
11
127.285
21
-161.804
0
LINE
8
BLACK
6
CONTINUOUS
10
127.285
20
-161.804
11
127.38
21
-161.708
0
LINE
8
BLACK
6
CONTINUOUS
10
127.38
20
-161.708
11
127.57
21
-161.613
0
LINE
8
BLACK
6
CONTINUOUS
10
128.904
20
-161.613
11
130.142
21
-161.613
0
LINE
8
BLACK
6
CONTINUOUS
10
130.142
20
-161.613
11
129.475
21
-162.375
0
LINE
8
BLACK
6
CONTINUOUS
10
129.475
20
-162.375
11
129.761
21
-162.375
0
LINE
8
BLACK
6
CONTINUOUS
10
129.761
20
-162.375
11
129.951
21
-162.47
0
LINE
8
BLACK
6
CONTINUOUS
10
129.951
20
-162.47
11
130.047
21
-162.565
0
LINE
8
BLACK
6
CONTINUOUS
10
130.047
20
-162.565
11
130.142
21
-162.756
0
LINE
8
BLACK
6
CONTINUOUS
10
130.142
20
-162.756
11
130.142
21
-163.232
0
LINE
8
BLACK
6
CONTINUOUS
10
130.142
20
-163.232
11
130.047
21
-163.423
0
LINE
8
BLACK
6
CONTINUOUS
10
130.047
20
-163.423
11
129.951
21
-163.518
0
LINE
8
BLACK
6
CONTINUOUS
10
129.951
20
-163.518
11
129.761
21
-163.613
0
LINE
8
BLACK
6
CONTINUOUS
10
129.761
20
-163.613
11
129.19
21
-163.613
0
LINE
8
BLACK
6
CONTINUOUS
10
129.19
20
-163.613
11
128.999
21
-163.518
0
LINE
8
BLACK
6
CONTINUOUS
10
128.999
20
-163.518
11
128.904
21
-163.423
0
LINE
8
BLACK
6
CONTINUOUS
10
130.809
20
-161.613
11
132.142
21
-161.613
0
LINE
8
BLACK
6
CONTINUOUS
10
132.142
20
-161.613
11
131.285
21
-163.613
0
LINE
8
BLACK
6
CONTINUOUS
10
133.761
20
-162.28
11
133.761
21
-163.613
0
LINE
8
BLACK
6
CONTINUOUS
10
133.285
20
-161.518
11
132.809
21
-162.946
0
LINE
8
BLACK
6
CONTINUOUS
10
132.809
20
-162.946
11
134.047
21
-162.946
0
LINE
8
BLACK
6
CONTINUOUS
10
134.713
20
-161.613
11
134.713
21
-161.994
0
LINE
8
BLACK
6
CONTINUOUS
10
135.475
20
-161.613
11
135.475
21
-161.994
0
LINE
8
BLACK
6
CONTINUOUS
10
138.428
20
-164.375
11
138.332
21
-164.28
0
LINE
8
BLACK
6
CONTINUOUS
10
138.332
20
-164.28
11
138.142
21
-163.994
0
LINE
8
BLACK
6
CONTINUOUS
10
138.142
20
-163.994
11
138.047
21
-163.804
0
LINE
8
BLACK
6
CONTINUOUS
10
138.047
20
-163.804
11
137.951
21
-163.518
0
LINE
8
BLACK
6
CONTINUOUS
10
137.951
20
-163.518
11
137.856
21
-163.042
0
LINE
8
BLACK
6
CONTINUOUS
10
137.856
20
-163.042
11
137.856
21
-162.661
0
LINE
8
BLACK
6
CONTINUOUS
10
137.856
20
-162.661
11
137.951
21
-162.185
0
LINE
8
BLACK
6
CONTINUOUS
10
137.951
20
-162.185
11
138.047
21
-161.899
0
LINE
8
BLACK
6
CONTINUOUS
10
138.047
20
-161.899
11
138.142
21
-161.708
0
LINE
8
BLACK
6
CONTINUOUS
10
138.142
20
-161.708
11
138.332
21
-161.423
0
LINE
8
BLACK
6
CONTINUOUS
10
138.332
20
-161.423
11
138.428
21
-161.327
0
LINE
8
BLACK
6
CONTINUOUS
10
139.094
20
-161.804
11
139.19
21
-161.708
0
LINE
8
BLACK
6
CONTINUOUS
10
139.19
20
-161.708
11
139.38
21
-161.613
0
LINE
8
BLACK
6
CONTINUOUS
10
139.38
20
-161.613
11
139.856
21
-161.613
0
LINE
8
BLACK
6
CONTINUOUS
10
139.856
20
-161.613
11
140.047
21
-161.708
0
LINE
8
BLACK
6
CONTINUOUS
10
140.047
20
-161.708
11
140.142
21
-161.804
0
LINE
8
BLACK
6
CONTINUOUS
10
140.142
20
-161.804
11
140.237
21
-161.994
0
LINE
8
BLACK
6
CONTINUOUS
10
140.237
20
-161.994
11
140.237
21
-162.185
0
LINE
8
BLACK
6
CONTINUOUS
10
140.237
20
-162.185
11
140.142
21
-162.47
0
LINE
8
BLACK
6
CONTINUOUS
10
140.142
20
-162.47
11
138.999
21
-163.613
0
LINE
8
BLACK
6
CONTINUOUS
10
138.999
20
-163.613
11
140.237
21
-163.613
0
LINE
8
BLACK
6
CONTINUOUS
10
140.999
20
-161.804
11
141.094
21
-161.708
0
LINE
8
BLACK
6
CONTINUOUS
10
141.094
20
-161.708
11
141.285
21
-161.613
0
LINE
8
BLACK
6
CONTINUOUS
10
141.285
20
-161.613
11
141.761
21
-161.613
0
LINE
8
BLACK
6
CONTINUOUS
10
141.761
20
-161.613
11
141.951
21
-161.708
0
LINE
8
BLACK
6
CONTINUOUS
10
141.951
20
-161.708
11
142.047
21
-161.804
0
LINE
8
BLACK
6
CONTINUOUS
10
142.047
20
-161.804
11
142.142
21
-161.994
0
LINE
8
BLACK
6
CONTINUOUS
10
142.142
20
-161.994
11
142.142
21
-162.185
0
LINE
8
BLACK
6
CONTINUOUS
10
142.142
20
-162.185
11
142.047
21
-162.47
0
LINE
8
BLACK
6
CONTINUOUS
10
142.047
20
-162.47
11
140.904
21
-163.613
0
LINE
8
BLACK
6
CONTINUOUS
10
140.904
20
-163.613
11
142.142
21
-163.613
0
LINE
8
BLACK
6
CONTINUOUS
10
144.523
20
-163.613
11
144.523
21
-161.613
0
LINE
8
BLACK
6
CONTINUOUS
10
145.38
20
-163.613
11
145.38
21
-162.565
0
LINE
8
BLACK
6
CONTINUOUS
10
145.38
20
-162.565
11
145.285
21
-162.375
0
LINE
8
BLACK
6
CONTINUOUS
10
145.285
20
-162.375
11
145.094
21
-162.28
0
LINE
8
BLACK
6
CONTINUOUS
10
145.094
20
-162.28
11
144.809
21
-162.28
0
LINE
8
BLACK
6
CONTINUOUS
10
144.809
20
-162.28
11
144.618
21
-162.375
0
LINE
8
BLACK
6
CONTINUOUS
10
144.618
20
-162.375
11
144.523
21
-162.47
0
LINE
8
BLACK
6
CONTINUOUS
10
146.618
20
-163.613
11
146.428
21
-163.518
0
LINE
8
BLACK
6
CONTINUOUS
10
146.428
20
-163.518
11
146.332
21
-163.423
0
LINE
8
BLACK
6
CONTINUOUS
10
146.332
20
-163.423
11
146.237
21
-163.232
0
LINE
8
BLACK
6
CONTINUOUS
10
146.237
20
-163.232
11
146.237
21
-162.661
0
LINE
8
BLACK
6
CONTINUOUS
10
146.237
20
-162.661
11
146.332
21
-162.47
0
LINE
8
BLACK
6
CONTINUOUS
10
146.332
20
-162.47
11
146.428
21
-162.375
0
LINE
8
BLACK
6
CONTINUOUS
10
146.428
20
-162.375
11
146.618
21
-162.28
0
LINE
8
BLACK
6
CONTINUOUS
10
146.618
20
-162.28
11
146.904
21
-162.28
0
LINE
8
BLACK
6
CONTINUOUS
10
146.904
20
-162.28
11
147.094
21
-162.375
0
LINE
8
BLACK
6
CONTINUOUS
10
147.094
20
-162.375
11
147.19
21
-162.47
0
LINE
8
BLACK
6
CONTINUOUS
10
147.19
20
-162.47
11
147.285
21
-162.661
0
LINE
8
BLACK
6
CONTINUOUS
10
147.285
20
-162.661
11
147.285
21
-163.232
0
LINE
8
BLACK
6
CONTINUOUS
10
147.285
20
-163.232
11
147.19
21
-163.423
0
LINE
8
BLACK
6
CONTINUOUS
10
147.19
20
-163.423
11
147.094
21
-163.518
0
LINE
8
BLACK
6
CONTINUOUS
10
147.094
20
-163.518
11
146.904
21
-163.613
0
LINE
8
BLACK
6
CONTINUOUS
10
146.904
20
-163.613
11
146.618
21
-163.613
0
LINE
8
BLACK
6
CONTINUOUS
10
148.428
20
-163.613
11
148.237
21
-163.518
0
LINE
8
BLACK
6
CONTINUOUS
10
148.237
20
-163.518
11
148.142
21
-163.327
0
LINE
8
BLACK
6
CONTINUOUS
10
148.142
20
-163.327
11
148.142
21
-161.613
0
LINE
8
BLACK
6
CONTINUOUS
10
149.951
20
-163.518
11
149.761
21
-163.613
0
LINE
8
BLACK
6
CONTINUOUS
10
149.761
20
-163.613
11
149.38
21
-163.613
0
LINE
8
BLACK
6
CONTINUOUS
10
149.38
20
-163.613
11
149.19
21
-163.518
0
LINE
8
BLACK
6
CONTINUOUS
10
149.19
20
-163.518
11
149.094
21
-163.327
0
LINE
8
BLACK
6
CONTINUOUS
10
149.094
20
-163.327
11
149.094
21
-162.565
0
LINE
8
BLACK
6
CONTINUOUS
10
149.094
20
-162.565
11
149.19
21
-162.375
0
LINE
8
BLACK
6
CONTINUOUS
10
149.19
20
-162.375
11
149.38
21
-162.28
0
LINE
8
BLACK
6
CONTINUOUS
10
149.38
20
-162.28
11
149.761
21
-162.28
0
LINE
8
BLACK
6
CONTINUOUS
10
149.761
20
-162.28
11
149.951
21
-162.375
0
LINE
8
BLACK
6
CONTINUOUS
10
149.951
20
-162.375
11
150.047
21
-162.565
0
LINE
8
BLACK
6
CONTINUOUS
10
150.047
20
-162.565
11
150.047
21
-162.756
0
LINE
8
BLACK
6
CONTINUOUS
10
150.047
20
-162.756
11
149.094
21
-162.946
0
LINE
8
BLACK
6
CONTINUOUS
10
150.809
20
-163.518
11
150.999
21
-163.613
0
LINE
8
BLACK
6
CONTINUOUS
10
150.999
20
-163.613
11
151.38
21
-163.613
0
LINE
8
BLACK
6
CONTINUOUS
10
151.38
20
-163.613
11
151.57
21
-163.518
0
LINE
8
BLACK
6
CONTINUOUS
10
151.57
20
-163.518
11
151.666
21
-163.327
0
LINE
8
BLACK
6
CONTINUOUS
10
151.666
20
-163.327
11
151.666
21
-163.232
0
LINE
8
BLACK
6
CONTINUOUS
10
151.666
20
-163.232
11
151.57
21
-163.042
0
LINE
8
BLACK
6
CONTINUOUS
10
151.57
20
-163.042
11
151.38
21
-162.946
0
LINE
8
BLACK
6
CONTINUOUS
10
151.38
20
-162.946
11
151.094
21
-162.946
0
LINE
8
BLACK
6
CONTINUOUS
10
151.094
20
-162.946
11
150.904
21
-162.851
0
LINE
8
BLACK
6
CONTINUOUS
10
150.904
20
-162.851
11
150.809
21
-162.661
0
LINE
8
BLACK
6
CONTINUOUS
10
150.809
20
-162.661
11
150.809
21
-162.565
0
LINE
8
BLACK
6
CONTINUOUS
10
150.809
20
-162.565
11
150.904
21
-162.375
0
LINE
8
BLACK
6
CONTINUOUS
10
150.904
20
-162.375
11
151.094
21
-162.28
0
LINE
8
BLACK
6
CONTINUOUS
10
151.094
20
-162.28
11
151.38
21
-162.28
0
LINE
8
BLACK
6
CONTINUOUS
10
151.38
20
-162.28
11
151.57
21
-162.375
0
LINE
8
BLACK
6
CONTINUOUS
10
152.332
20
-164.375
11
152.428
21
-164.28
0
LINE
8
BLACK
6
CONTINUOUS
10
152.428
20
-164.28
11
152.618
21
-163.994
0
LINE
8
BLACK
6
CONTINUOUS
10
152.618
20
-163.994
11
152.713
21
-163.804
0
LINE
8
BLACK
6
CONTINUOUS
10
152.713
20
-163.804
11
152.809
21
-163.518
0
LINE
8
BLACK
6
CONTINUOUS
10
152.809
20
-163.518
11
152.904
21
-163.042
0
LINE
8
BLACK
6
CONTINUOUS
10
152.904
20
-163.042
11
152.904
21
-162.661
0
LINE
8
BLACK
6
CONTINUOUS
10
152.904
20
-162.661
11
152.809
21
-162.185
0
LINE
8
BLACK
6
CONTINUOUS
10
152.809
20
-162.185
11
152.713
21
-161.899
0
LINE
8
BLACK
6
CONTINUOUS
10
152.713
20
-161.899
11
152.618
21
-161.708
0
LINE
8
BLACK
6
CONTINUOUS
10
152.618
20
-161.708
11
152.428
21
-161.423
0
LINE
8
BLACK
6
CONTINUOUS
10
152.428
20
-161.423
11
152.332
21
-161.327
0
LINE
8
BLACK
6
CONTINUOUS
10
102.531
20
-165.692
11
102.531
21
-164.985
0
LINE
8
BLACK
6
CONTINUOUS
10
102.531
20
-164.985
11
101.823
21
-164.985
0
LINE
8
BLACK
6
CONTINUOUS
10
101.823
20
-164.985
11
101.823
21
-165.692
0
LINE
8
BLACK
6
CONTINUOUS
10
101.823
20
-165.692
11
102.531
21
-165.692
0
LINE
8
BLACK
6
CONTINUOUS
10
106.332
20
-166.253
11
105.19
21
-166.253
0
LINE
8
BLACK
6
CONTINUOUS
10
105.761
20
-166.253
11
105.761
21
-164.253
0
LINE
8
BLACK
6
CONTINUOUS
10
105.761
20
-164.253
11
105.57
21
-164.539
0
LINE
8
BLACK
6
CONTINUOUS
10
105.57
20
-164.539
11
105.38
21
-164.729
0
LINE
8
BLACK
6
CONTINUOUS
10
105.38
20
-164.729
11
105.19
21
-164.825
0
LINE
8
BLACK
6
CONTINUOUS
10
107.19
20
-166.063
11
107.285
21
-166.158
0
LINE
8
BLACK
6
CONTINUOUS
10
107.285
20
-166.158
11
107.19
21
-166.253
0
LINE
8
BLACK
6
CONTINUOUS
10
107.19
20
-166.253
11
107.094
21
-166.158
0
LINE
8
BLACK
6
CONTINUOUS
10
107.094
20
-166.158
11
107.19
21
-166.063
0
LINE
8
BLACK
6
CONTINUOUS
10
107.19
20
-166.063
11
107.19
21
-166.253
0
LINE
8
BLACK
6
CONTINUOUS
10
108.523
20
-164.253
11
108.713
21
-164.253
0
LINE
8
BLACK
6
CONTINUOUS
10
108.713
20
-164.253
11
108.904
21
-164.348
0
LINE
8
BLACK
6
CONTINUOUS
10
108.904
20
-164.348
11
108.999
21
-164.444
0
LINE
8
BLACK
6
CONTINUOUS
10
108.999
20
-164.444
11
109.094
21
-164.634
0
LINE
8
BLACK
6
CONTINUOUS
10
109.094
20
-164.634
11
109.19
21
-165.015
0
LINE
8
BLACK
6
CONTINUOUS
10
109.19
20
-165.015
11
109.19
21
-165.491
0
LINE
8
BLACK
6
CONTINUOUS
10
109.19
20
-165.491
11
109.094
21
-165.872
0
LINE
8
BLACK
6
CONTINUOUS
10
109.094
20
-165.872
11
108.999
21
-166.063
0
LINE
8
BLACK
6
CONTINUOUS
10
108.999
20
-166.063
11
108.904
21
-166.158
0
LINE
8
BLACK
6
CONTINUOUS
10
108.904
20
-166.158
11
108.713
21
-166.253
0
LINE
8
BLACK
6
CONTINUOUS
10
108.713
20
-166.253
11
108.523
21
-166.253
0
LINE
8
BLACK
6
CONTINUOUS
10
108.523
20
-166.253
11
108.332
21
-166.158
0
LINE
8
BLACK
6
CONTINUOUS
10
108.332
20
-166.158
11
108.237
21
-166.063
0
LINE
8
BLACK
6
CONTINUOUS
10
108.237
20
-166.063
11
108.142
21
-165.872
0
LINE
8
BLACK
6
CONTINUOUS
10
108.142
20
-165.872
11
108.047
21
-165.491
0
LINE
8
BLACK
6
CONTINUOUS
10
108.047
20
-165.491
11
108.047
21
-165.015
0
LINE
8
BLACK
6
CONTINUOUS
10
108.047
20
-165.015
11
108.142
21
-164.634
0
LINE
8
BLACK
6
CONTINUOUS
10
108.142
20
-164.634
11
108.237
21
-164.444
0
LINE
8
BLACK
6
CONTINUOUS
10
108.237
20
-164.444
11
108.332
21
-164.348
0
LINE
8
BLACK
6
CONTINUOUS
10
108.332
20
-164.348
11
108.523
21
-164.253
0
LINE
8
BLACK
6
CONTINUOUS
10
110.428
20
-164.253
11
110.618
21
-164.253
0
LINE
8
BLACK
6
CONTINUOUS
10
110.618
20
-164.253
11
110.809
21
-164.348
0
LINE
8
BLACK
6
CONTINUOUS
10
110.809
20
-164.348
11
110.904
21
-164.444
0
LINE
8
BLACK
6
CONTINUOUS
10
110.904
20
-164.444
11
110.999
21
-164.634
0
LINE
8
BLACK
6
CONTINUOUS
10
110.999
20
-164.634
11
111.094
21
-165.015
0
LINE
8
BLACK
6
CONTINUOUS
10
111.094
20
-165.015
11
111.094
21
-165.491
0
LINE
8
BLACK
6
CONTINUOUS
10
111.094
20
-165.491
11
110.999
21
-165.872
0
LINE
8
BLACK
6
CONTINUOUS
10
110.999
20
-165.872
11
110.904
21
-166.063
0
LINE
8
BLACK
6
CONTINUOUS
10
110.904
20
-166.063
11
110.809
21
-166.158
0
LINE
8
BLACK
6
CONTINUOUS
10
110.809
20
-166.158
11
110.618
21
-166.253
0
LINE
8
BLACK
6
CONTINUOUS
10
110.618
20
-166.253
11
110.428
21
-166.253
0
LINE
8
BLACK
6
CONTINUOUS
10
110.428
20
-166.253
11
110.237
21
-166.158
0
LINE
8
BLACK
6
CONTINUOUS
10
110.237
20
-166.158
11
110.142
21
-166.063
0
LINE
8
BLACK
6
CONTINUOUS
10
110.142
20
-166.063
11
110.047
21
-165.872
0
LINE
8
BLACK
6
CONTINUOUS
10
110.047
20
-165.872
11
109.951
21
-165.491
0
LINE
8
BLACK
6
CONTINUOUS
10
109.951
20
-165.491
11
109.951
21
-165.015
0
LINE
8
BLACK
6
CONTINUOUS
10
109.951
20
-165.015
11
110.047
21
-164.634
0
LINE
8
BLACK
6
CONTINUOUS
10
110.047
20
-164.634
11
110.142
21
-164.444
0
LINE
8
BLACK
6
CONTINUOUS
10
110.142
20
-164.444
11
110.237
21
-164.348
0
LINE
8
BLACK
6
CONTINUOUS
10
110.237
20
-164.348
11
110.428
21
-164.253
0
LINE
8
BLACK
6
CONTINUOUS
10
112.332
20
-164.253
11
112.523
21
-164.253
0
LINE
8
BLACK
6
CONTINUOUS
10
112.523
20
-164.253
11
112.713
21
-164.348
0
LINE
8
BLACK
6
CONTINUOUS
10
112.713
20
-164.348
11
112.809
21
-164.444
0
LINE
8
BLACK
6
CONTINUOUS
10
112.809
20
-164.444
11
112.904
21
-164.634
0
LINE
8
BLACK
6
CONTINUOUS
10
112.904
20
-164.634
11
112.999
21
-165.015
0
LINE
8
BLACK
6
CONTINUOUS
10
112.999
20
-165.015
11
112.999
21
-165.491
0
LINE
8
BLACK
6
CONTINUOUS
10
112.999
20
-165.491
11
112.904
21
-165.872
0
LINE
8
BLACK
6
CONTINUOUS
10
112.904
20
-165.872
11
112.809
21
-166.063
0
LINE
8
BLACK
6
CONTINUOUS
10
112.809
20
-166.063
11
112.713
21
-166.158
0
LINE
8
BLACK
6
CONTINUOUS
10
112.713
20
-166.158
11
112.523
21
-166.253
0
LINE
8
BLACK
6
CONTINUOUS
10
112.523
20
-166.253
11
112.332
21
-166.253
0
LINE
8
BLACK
6
CONTINUOUS
10
112.332
20
-166.253
11
112.142
21
-166.158
0
LINE
8
BLACK
6
CONTINUOUS
10
112.142
20
-166.158
11
112.047
21
-166.063
0
LINE
8
BLACK
6
CONTINUOUS
10
112.047
20
-166.063
11
111.951
21
-165.872
0
LINE
8
BLACK
6
CONTINUOUS
10
111.951
20
-165.872
11
111.856
21
-165.491
0
LINE
8
BLACK
6
CONTINUOUS
10
111.856
20
-165.491
11
111.856
21
-165.015
0
LINE
8
BLACK
6
CONTINUOUS
10
111.856
20
-165.015
11
111.951
21
-164.634
0
LINE
8
BLACK
6
CONTINUOUS
10
111.951
20
-164.634
11
112.047
21
-164.444
0
LINE
8
BLACK
6
CONTINUOUS
10
112.047
20
-164.444
11
112.142
21
-164.348
0
LINE
8
BLACK
6
CONTINUOUS
10
112.142
20
-164.348
11
112.332
21
-164.253
0
LINE
8
BLACK
6
CONTINUOUS
10
113.856
20
-166.253
11
113.856
21
-164.92
0
LINE
8
BLACK
6
CONTINUOUS
10
113.856
20
-165.11
11
113.951
21
-165.015
0
LINE
8
BLACK
6
CONTINUOUS
10
113.951
20
-165.015
11
114.142
21
-164.92
0
LINE
8
BLACK
6
CONTINUOUS
10
114.142
20
-164.92
11
114.428
21
-164.92
0
LINE
8
BLACK
6
CONTINUOUS
10
114.428
20
-164.92
11
114.618
21
-165.015
0
LINE
8
BLACK
6
CONTINUOUS
10
114.618
20
-165.015
11
114.713
21
-165.205
0
LINE
8
BLACK
6
CONTINUOUS
10
114.713
20
-165.205
11
114.713
21
-166.253
0
LINE
8
BLACK
6
CONTINUOUS
10
114.713
20
-165.205
11
114.809
21
-165.015
0
LINE
8
BLACK
6
CONTINUOUS
10
114.809
20
-165.015
11
114.999
21
-164.92
0
LINE
8
BLACK
6
CONTINUOUS
10
114.999
20
-164.92
11
115.285
21
-164.92
0
LINE
8
BLACK
6
CONTINUOUS
10
115.285
20
-164.92
11
115.475
21
-165.015
0
LINE
8
BLACK
6
CONTINUOUS
10
115.475
20
-165.015
11
115.57
21
-165.205
0
LINE
8
BLACK
6
CONTINUOUS
10
115.57
20
-165.205
11
115.57
21
-166.253
0
LINE
8
BLACK
6
CONTINUOUS
10
116.523
20
-166.253
11
116.523
21
-164.92
0
LINE
8
BLACK
6
CONTINUOUS
10
116.523
20
-165.11
11
116.618
21
-165.015
0
LINE
8
BLACK
6
CONTINUOUS
10
116.618
20
-165.015
11
116.809
21
-164.92
0
LINE
8
BLACK
6
CONTINUOUS
10
116.809
20
-164.92
11
117.094
21
-164.92
0
LINE
8
BLACK
6
CONTINUOUS
10
117.094
20
-164.92
11
117.285
21
-165.015
0
LINE
8
BLACK
6
CONTINUOUS
10
117.285
20
-165.015
11
117.38
21
-165.205
0
LINE
8
BLACK
6
CONTINUOUS
10
117.38
20
-165.205
11
117.38
21
-166.253
0
LINE
8
BLACK
6
CONTINUOUS
10
117.38
20
-165.205
11
117.475
21
-165.015
0
LINE
8
BLACK
6
CONTINUOUS
10
117.475
20
-165.015
11
117.666
21
-164.92
0
LINE
8
BLACK
6
CONTINUOUS
10
117.666
20
-164.92
11
117.951
21
-164.92
0
LINE
8
BLACK
6
CONTINUOUS
10
117.951
20
-164.92
11
118.142
21
-165.015
0
LINE
8
BLACK
6
CONTINUOUS
10
118.142
20
-165.015
11
118.237
21
-165.205
0
LINE
8
BLACK
6
CONTINUOUS
10
118.237
20
-165.205
11
118.237
21
-166.253
0
LINE
8
BLACK
6
CONTINUOUS
10
122.142
20
-164.158
11
120.428
21
-166.729
0
LINE
8
BLACK
6
CONTINUOUS
10
124.713
20
-164.253
11
124.904
21
-164.253
0
LINE
8
BLACK
6
CONTINUOUS
10
124.904
20
-164.253
11
125.094
21
-164.348
0
LINE
8
BLACK
6
CONTINUOUS
10
125.094
20
-164.348
11
125.19
21
-164.444
0
LINE
8
BLACK
6
CONTINUOUS
10
125.19
20
-164.444
11
125.285
21
-164.634
0
LINE
8
BLACK
6
CONTINUOUS
10
125.285
20
-164.634
11
125.38
21
-165.015
0
LINE
8
BLACK
6
CONTINUOUS
10
125.38
20
-165.015
11
125.38
21
-165.491
0
LINE
8
BLACK
6
CONTINUOUS
10
125.38
20
-165.491
11
125.285
21
-165.872
0
LINE
8
BLACK
6
CONTINUOUS
10
125.285
20
-165.872
11
125.19
21
-166.063
0
LINE
8
BLACK
6
CONTINUOUS
10
125.19
20
-166.063
11
125.094
21
-166.158
0
LINE
8
BLACK
6
CONTINUOUS
10
125.094
20
-166.158
11
124.904
21
-166.253
0
LINE
8
BLACK
6
CONTINUOUS
10
124.904
20
-166.253
11
124.713
21
-166.253
0
LINE
8
BLACK
6
CONTINUOUS
10
124.713
20
-166.253
11
124.523
21
-166.158
0
LINE
8
BLACK
6
CONTINUOUS
10
124.523
20
-166.158
11
124.428
21
-166.063
0
LINE
8
BLACK
6
CONTINUOUS
10
124.428
20
-166.063
11
124.332
21
-165.872
0
LINE
8
BLACK
6
CONTINUOUS
10
124.332
20
-165.872
11
124.237
21
-165.491
0
LINE
8
BLACK
6
CONTINUOUS
10
124.237
20
-165.491
11
124.237
21
-165.015
0
LINE
8
BLACK
6
CONTINUOUS
10
124.237
20
-165.015
11
124.332
21
-164.634
0
LINE
8
BLACK
6
CONTINUOUS
10
124.332
20
-164.634
11
124.428
21
-164.444
0
LINE
8
BLACK
6
CONTINUOUS
10
124.428
20
-164.444
11
124.523
21
-164.348
0
LINE
8
BLACK
6
CONTINUOUS
10
124.523
20
-164.348
11
124.713
21
-164.253
0
LINE
8
BLACK
6
CONTINUOUS
10
126.237
20
-166.063
11
126.332
21
-166.158
0
LINE
8
BLACK
6
CONTINUOUS
10
126.332
20
-166.158
11
126.237
21
-166.253
0
LINE
8
BLACK
6
CONTINUOUS
10
126.237
20
-166.253
11
126.142
21
-166.158
0
LINE
8
BLACK
6
CONTINUOUS
10
126.142
20
-166.158
11
126.237
21
-166.063
0
LINE
8
BLACK
6
CONTINUOUS
10
126.237
20
-166.063
11
126.237
21
-166.253
0
LINE
8
BLACK
6
CONTINUOUS
10
127.57
20
-164.253
11
127.761
21
-164.253
0
LINE
8
BLACK
6
CONTINUOUS
10
127.761
20
-164.253
11
127.951
21
-164.348
0
LINE
8
BLACK
6
CONTINUOUS
10
127.951
20
-164.348
11
128.047
21
-164.444
0
LINE
8
BLACK
6
CONTINUOUS
10
128.047
20
-164.444
11
128.142
21
-164.634
0
LINE
8
BLACK
6
CONTINUOUS
10
128.142
20
-164.634
11
128.237
21
-165.015
0
LINE
8
BLACK
6
CONTINUOUS
10
128.237
20
-165.015
11
128.237
21
-165.491
0
LINE
8
BLACK
6
CONTINUOUS
10
128.237
20
-165.491
11
128.142
21
-165.872
0
LINE
8
BLACK
6
CONTINUOUS
10
128.142
20
-165.872
11
128.047
21
-166.063
0
LINE
8
BLACK
6
CONTINUOUS
10
128.047
20
-166.063
11
127.951
21
-166.158
0
LINE
8
BLACK
6
CONTINUOUS
10
127.951
20
-166.158
11
127.761
21
-166.253
0
LINE
8
BLACK
6
CONTINUOUS
10
127.761
20
-166.253
11
127.57
21
-166.253
0
LINE
8
BLACK
6
CONTINUOUS
10
127.57
20
-166.253
11
127.38
21
-166.158
0
LINE
8
BLACK
6
CONTINUOUS
10
127.38
20
-166.158
11
127.285
21
-166.063
0
LINE
8
BLACK
6
CONTINUOUS
10
127.285
20
-166.063
11
127.19
21
-165.872
0
LINE
8
BLACK
6
CONTINUOUS
10
127.19
20
-165.872
11
127.094
21
-165.491
0
LINE
8
BLACK
6
CONTINUOUS
10
127.094
20
-165.491
11
127.094
21
-165.015
0
LINE
8
BLACK
6
CONTINUOUS
10
127.094
20
-165.015
11
127.19
21
-164.634
0
LINE
8
BLACK
6
CONTINUOUS
10
127.19
20
-164.634
11
127.285
21
-164.444
0
LINE
8
BLACK
6
CONTINUOUS
10
127.285
20
-164.444
11
127.38
21
-164.348
0
LINE
8
BLACK
6
CONTINUOUS
10
127.38
20
-164.348
11
127.57
21
-164.253
0
LINE
8
BLACK
6
CONTINUOUS
10
128.904
20
-164.253
11
130.142
21
-164.253
0
LINE
8
BLACK
6
CONTINUOUS
10
130.142
20
-164.253
11
129.475
21
-165.015
0
LINE
8
BLACK
6
CONTINUOUS
10
129.475
20
-165.015
11
129.761
21
-165.015
0
LINE
8
BLACK
6
CONTINUOUS
10
129.761
20
-165.015
11
129.951
21
-165.11
0
LINE
8
BLACK
6
CONTINUOUS
10
129.951
20
-165.11
11
130.047
21
-165.205
0
LINE
8
BLACK
6
CONTINUOUS
10
130.047
20
-165.205
11
130.142
21
-165.396
0
LINE
8
BLACK
6
CONTINUOUS
10
130.142
20
-165.396
11
130.142
21
-165.872
0
LINE
8
BLACK
6
CONTINUOUS
10
130.142
20
-165.872
11
130.047
21
-166.063
0
LINE
8
BLACK
6
CONTINUOUS
10
130.047
20
-166.063
11
129.951
21
-166.158
0
LINE
8
BLACK
6
CONTINUOUS
10
129.951
20
-166.158
11
129.761
21
-166.253
0
LINE
8
BLACK
6
CONTINUOUS
10
129.761
20
-166.253
11
129.19
21
-166.253
0
LINE
8
BLACK
6
CONTINUOUS
10
129.19
20
-166.253
11
128.999
21
-166.158
0
LINE
8
BLACK
6
CONTINUOUS
10
128.999
20
-166.158
11
128.904
21
-166.063
0
LINE
8
BLACK
6
CONTINUOUS
10
131.094
20
-166.253
11
131.475
21
-166.253
0
LINE
8
BLACK
6
CONTINUOUS
10
131.475
20
-166.253
11
131.666
21
-166.158
0
LINE
8
BLACK
6
CONTINUOUS
10
131.666
20
-166.158
11
131.761
21
-166.063
0
LINE
8
BLACK
6
CONTINUOUS
10
131.761
20
-166.063
11
131.951
21
-165.777
0
LINE
8
BLACK
6
CONTINUOUS
10
131.951
20
-165.777
11
132.047
21
-165.396
0
LINE
8
BLACK
6
CONTINUOUS
10
132.047
20
-165.396
11
132.047
21
-164.634
0
LINE
8
BLACK
6
CONTINUOUS
10
132.047
20
-164.634
11
131.951
21
-164.444
0
LINE
8
BLACK
6
CONTINUOUS
10
131.951
20
-164.444
11
131.856
21
-164.348
0
LINE
8
BLACK
6
CONTINUOUS
10
131.856
20
-164.348
11
131.666
21
-164.253
0
LINE
8
BLACK
6
CONTINUOUS
10
131.666
20
-164.253
11
131.285
21
-164.253
0
LINE
8
BLACK
6
CONTINUOUS
10
131.285
20
-164.253
11
131.094
21
-164.348
0
LINE
8
BLACK
6
CONTINUOUS
10
131.094
20
-164.348
11
130.999
21
-164.444
0
LINE
8
BLACK
6
CONTINUOUS
10
130.999
20
-164.444
11
130.904
21
-164.634
0
LINE
8
BLACK
6
CONTINUOUS
10
130.904
20
-164.634
11
130.904
21
-165.11
0
LINE
8
BLACK
6
CONTINUOUS
10
130.904
20
-165.11
11
130.999
21
-165.301
0
LINE
8
BLACK
6
CONTINUOUS
10
130.999
20
-165.301
11
131.094
21
-165.396
0
LINE
8
BLACK
6
CONTINUOUS
10
131.094
20
-165.396
11
131.285
21
-165.491
0
LINE
8
BLACK
6
CONTINUOUS
10
131.285
20
-165.491
11
131.666
21
-165.491
0
LINE
8
BLACK
6
CONTINUOUS
10
131.666
20
-165.491
11
131.856
21
-165.396
0
LINE
8
BLACK
6
CONTINUOUS
10
131.856
20
-165.396
11
131.951
21
-165.301
0
LINE
8
BLACK
6
CONTINUOUS
10
131.951
20
-165.301
11
132.047
21
-165.11
0
LINE
8
BLACK
6
CONTINUOUS
10
133.761
20
-164.92
11
133.761
21
-166.253
0
LINE
8
BLACK
6
CONTINUOUS
10
133.285
20
-164.158
11
132.809
21
-165.586
0
LINE
8
BLACK
6
CONTINUOUS
10
132.809
20
-165.586
11
134.047
21
-165.586
0
LINE
8
BLACK
6
CONTINUOUS
10
134.713
20
-164.253
11
134.713
21
-164.634
0
LINE
8
BLACK
6
CONTINUOUS
10
135.475
20
-164.253
11
135.475
21
-164.634
0
LINE
8
BLACK
6
CONTINUOUS
10
138.428
20
-167.015
11
138.332
21
-166.92
0
LINE
8
BLACK
6
CONTINUOUS
10
138.332
20
-166.92
11
138.142
21
-166.634
0
LINE
8
BLACK
6
CONTINUOUS
10
138.142
20
-166.634
11
138.047
21
-166.444
0
LINE
8
BLACK
6
CONTINUOUS
10
138.047
20
-166.444
11
137.951
21
-166.158
0
LINE
8
BLACK
6
CONTINUOUS
10
137.951
20
-166.158
11
137.856
21
-165.682
0
LINE
8
BLACK
6
CONTINUOUS
10
137.856
20
-165.682
11
137.856
21
-165.301
0
LINE
8
BLACK
6
CONTINUOUS
10
137.856
20
-165.301
11
137.951
21
-164.825
0
LINE
8
BLACK
6
CONTINUOUS
10
137.951
20
-164.825
11
138.047
21
-164.539
0
LINE
8
BLACK
6
CONTINUOUS
10
138.047
20
-164.539
11
138.142
21
-164.348
0
LINE
8
BLACK
6
CONTINUOUS
10
138.142
20
-164.348
11
138.332
21
-164.063
0
LINE
8
BLACK
6
CONTINUOUS
10
138.332
20
-164.063
11
138.428
21
-163.967
0
LINE
8
BLACK
6
CONTINUOUS
10
138.999
20
-164.253
11
140.237
21
-164.253
0
LINE
8
BLACK
6
CONTINUOUS
10
140.237
20
-164.253
11
139.57
21
-165.015
0
LINE
8
BLACK
6
CONTINUOUS
10
139.57
20
-165.015
11
139.856
21
-165.015
0
LINE
8
BLACK
6
CONTINUOUS
10
139.856
20
-165.015
11
140.047
21
-165.11
0
LINE
8
BLACK
6
CONTINUOUS
10
140.047
20
-165.11
11
140.142
21
-165.205
0
LINE
8
BLACK
6
CONTINUOUS
10
140.142
20
-165.205
11
140.237
21
-165.396
0
LINE
8
BLACK
6
CONTINUOUS
10
140.237
20
-165.396
11
140.237
21
-165.872
0
LINE
8
BLACK
6
CONTINUOUS
10
140.237
20
-165.872
11
140.142
21
-166.063
0
LINE
8
BLACK
6
CONTINUOUS
10
140.142
20
-166.063
11
140.047
21
-166.158
0
LINE
8
BLACK
6
CONTINUOUS
10
140.047
20
-166.158
11
139.856
21
-166.253
0
LINE
8
BLACK
6
CONTINUOUS
10
139.856
20
-166.253
11
139.285
21
-166.253
0
LINE
8
BLACK
6
CONTINUOUS
10
139.285
20
-166.253
11
139.094
21
-166.158
0
LINE
8
BLACK
6
CONTINUOUS
10
139.094
20
-166.158
11
138.999
21
-166.063
0
LINE
8
BLACK
6
CONTINUOUS
10
141.475
20
-164.253
11
141.666
21
-164.253
0
LINE
8
BLACK
6
CONTINUOUS
10
141.666
20
-164.253
11
141.856
21
-164.348
0
LINE
8
BLACK
6
CONTINUOUS
10
141.856
20
-164.348
11
141.951
21
-164.444
0
LINE
8
BLACK
6
CONTINUOUS
10
141.951
20
-164.444
11
142.047
21
-164.634
0
LINE
8
BLACK
6
CONTINUOUS
10
142.047
20
-164.634
11
142.142
21
-165.015
0
LINE
8
BLACK
6
CONTINUOUS
10
142.142
20
-165.015
11
142.142
21
-165.491
0
LINE
8
BLACK
6
CONTINUOUS
10
142.142
20
-165.491
11
142.047
21
-165.872
0
LINE
8
BLACK
6
CONTINUOUS
10
142.047
20
-165.872
11
141.951
21
-166.063
0
LINE
8
BLACK
6
CONTINUOUS
10
141.951
20
-166.063
11
141.856
21
-166.158
0
LINE
8
BLACK
6
CONTINUOUS
10
141.856
20
-166.158
11
141.666
21
-166.253
0
LINE
8
BLACK
6
CONTINUOUS
10
141.666
20
-166.253
11
141.475
21
-166.253
0
LINE
8
BLACK
6
CONTINUOUS
10
141.475
20
-166.253
11
141.285
21
-166.158
0
LINE
8
BLACK
6
CONTINUOUS
10
141.285
20
-166.158
11
141.19
21
-166.063
0
LINE
8
BLACK
6
CONTINUOUS
10
141.19
20
-166.063
11
141.094
21
-165.872
0
LINE
8
BLACK
6
CONTINUOUS
10
141.094
20
-165.872
11
140.999
21
-165.491
0
LINE
8
BLACK
6
CONTINUOUS
10
140.999
20
-165.491
11
140.999
21
-165.015
0
LINE
8
BLACK
6
CONTINUOUS
10
140.999
20
-165.015
11
141.094
21
-164.634
0
LINE
8
BLACK
6
CONTINUOUS
10
141.094
20
-164.634
11
141.19
21
-164.444
0
LINE
8
BLACK
6
CONTINUOUS
10
141.19
20
-164.444
11
141.285
21
-164.348
0
LINE
8
BLACK
6
CONTINUOUS
10
141.285
20
-164.348
11
141.475
21
-164.253
0
LINE
8
BLACK
6
CONTINUOUS
10
144.523
20
-166.253
11
144.523
21
-164.253
0
LINE
8
BLACK
6
CONTINUOUS
10
145.38
20
-166.253
11
145.38
21
-165.205
0
LINE
8
BLACK
6
CONTINUOUS
10
145.38
20
-165.205
11
145.285
21
-165.015
0
LINE
8
BLACK
6
CONTINUOUS
10
145.285
20
-165.015
11
145.094
21
-164.92
0
LINE
8
BLACK
6
CONTINUOUS
10
145.094
20
-164.92
11
144.809
21
-164.92
0
LINE
8
BLACK
6
CONTINUOUS
10
144.809
20
-164.92
11
144.618
21
-165.015
0
LINE
8
BLACK
6
CONTINUOUS
10
144.618
20
-165.015
11
144.523
21
-165.11
0
LINE
8
BLACK
6
CONTINUOUS
10
146.618
20
-166.253
11
146.428
21
-166.158
0
LINE
8
BLACK
6
CONTINUOUS
10
146.428
20
-166.158
11
146.332
21
-166.063
0
LINE
8
BLACK
6
CONTINUOUS
10
146.332
20
-166.063
11
146.237
21
-165.872
0
LINE
8
BLACK
6
CONTINUOUS
10
146.237
20
-165.872
11
146.237
21
-165.301
0
LINE
8
BLACK
6
CONTINUOUS
10
146.237
20
-165.301
11
146.332
21
-165.11
0
LINE
8
BLACK
6
CONTINUOUS
10
146.332
20
-165.11
11
146.428
21
-165.015
0
LINE
8
BLACK
6
CONTINUOUS
10
146.428
20
-165.015
11
146.618
21
-164.92
0
LINE
8
BLACK
6
CONTINUOUS
10
146.618
20
-164.92
11
146.904
21
-164.92
0
LINE
8
BLACK
6
CONTINUOUS
10
146.904
20
-164.92
11
147.094
21
-165.015
0
LINE
8
BLACK
6
CONTINUOUS
10
147.094
20
-165.015
11
147.19
21
-165.11
0
LINE
8
BLACK
6
CONTINUOUS
10
147.19
20
-165.11
11
147.285
21
-165.301
0
LINE
8
BLACK
6
CONTINUOUS
10
147.285
20
-165.301
11
147.285
21
-165.872
0
LINE
8
BLACK
6
CONTINUOUS
10
147.285
20
-165.872
11
147.19
21
-166.063
0
LINE
8
BLACK
6
CONTINUOUS
10
147.19
20
-166.063
11
147.094
21
-166.158
0
LINE
8
BLACK
6
CONTINUOUS
10
147.094
20
-166.158
11
146.904
21
-166.253
0
LINE
8
BLACK
6
CONTINUOUS
10
146.904
20
-166.253
11
146.618
21
-166.253
0
LINE
8
BLACK
6
CONTINUOUS
10
148.428
20
-166.253
11
148.237
21
-166.158
0
LINE
8
BLACK
6
CONTINUOUS
10
148.237
20
-166.158
11
148.142
21
-165.967
0
LINE
8
BLACK
6
CONTINUOUS
10
148.142
20
-165.967
11
148.142
21
-164.253
0
LINE
8
BLACK
6
CONTINUOUS
10
149.951
20
-166.158
11
149.761
21
-166.253
0
LINE
8
BLACK
6
CONTINUOUS
10
149.761
20
-166.253
11
149.38
21
-166.253
0
LINE
8
BLACK
6
CONTINUOUS
10
149.38
20
-166.253
11
149.19
21
-166.158
0
LINE
8
BLACK
6
CONTINUOUS
10
149.19
20
-166.158
11
149.094
21
-165.967
0
LINE
8
BLACK
6
CONTINUOUS
10
149.094
20
-165.967
11
149.094
21
-165.205
0
LINE
8
BLACK
6
CONTINUOUS
10
149.094
20
-165.205
11
149.19
21
-165.015
0
LINE
8
BLACK
6
CONTINUOUS
10
149.19
20
-165.015
11
149.38
21
-164.92
0
LINE
8
BLACK
6
CONTINUOUS
10
149.38
20
-164.92
11
149.761
21
-164.92
0
LINE
8
BLACK
6
CONTINUOUS
10
149.761
20
-164.92
11
149.951
21
-165.015
0
LINE
8
BLACK
6
CONTINUOUS
10
149.951
20
-165.015
11
150.047
21
-165.205
0
LINE
8
BLACK
6
CONTINUOUS
10
150.047
20
-165.205
11
150.047
21
-165.396
0
LINE
8
BLACK
6
CONTINUOUS
10
150.047
20
-165.396
11
149.094
21
-165.586
0
LINE
8
BLACK
6
CONTINUOUS
10
150.809
20
-166.158
11
150.999
21
-166.253
0
LINE
8
BLACK
6
CONTINUOUS
10
150.999
20
-166.253
11
151.38
21
-166.253
0
LINE
8
BLACK
6
CONTINUOUS
10
151.38
20
-166.253
11
151.57
21
-166.158
0
LINE
8
BLACK
6
CONTINUOUS
10
151.57
20
-166.158
11
151.666
21
-165.967
0
LINE
8
BLACK
6
CONTINUOUS
10
151.666
20
-165.967
11
151.666
21
-165.872
0
LINE
8
BLACK
6
CONTINUOUS
10
151.666
20
-165.872
11
151.57
21
-165.682
0
LINE
8
BLACK
6
CONTINUOUS
10
151.57
20
-165.682
11
151.38
21
-165.586
0
LINE
8
BLACK
6
CONTINUOUS
10
151.38
20
-165.586
11
151.094
21
-165.586
0
LINE
8
BLACK
6
CONTINUOUS
10
151.094
20
-165.586
11
150.904
21
-165.491
0
LINE
8
BLACK
6
CONTINUOUS
10
150.904
20
-165.491
11
150.809
21
-165.301
0
LINE
8
BLACK
6
CONTINUOUS
10
150.809
20
-165.301
11
150.809
21
-165.205
0
LINE
8
BLACK
6
CONTINUOUS
10
150.809
20
-165.205
11
150.904
21
-165.015
0
LINE
8
BLACK
6
CONTINUOUS
10
150.904
20
-165.015
11
151.094
21
-164.92
0
LINE
8
BLACK
6
CONTINUOUS
10
151.094
20
-164.92
11
151.38
21
-164.92
0
LINE
8
BLACK
6
CONTINUOUS
10
151.38
20
-164.92
11
151.57
21
-165.015
0
LINE
8
BLACK
6
CONTINUOUS
10
152.332
20
-167.015
11
152.428
21
-166.92
0
LINE
8
BLACK
6
CONTINUOUS
10
152.428
20
-166.92
11
152.618
21
-166.634
0
LINE
8
BLACK
6
CONTINUOUS
10
152.618
20
-166.634
11
152.713
21
-166.444
0
LINE
8
BLACK
6
CONTINUOUS
10
152.713
20
-166.444
11
152.809
21
-166.158
0
LINE
8
BLACK
6
CONTINUOUS
10
152.809
20
-166.158
11
152.904
21
-165.682
0
LINE
8
BLACK
6
CONTINUOUS
10
152.904
20
-165.682
11
152.904
21
-165.301
0
LINE
8
BLACK
6
CONTINUOUS
10
152.904
20
-165.301
11
152.809
21
-164.825
0
LINE
8
BLACK
6
CONTINUOUS
10
152.809
20
-164.825
11
152.713
21
-164.539
0
LINE
8
BLACK
6
CONTINUOUS
10
152.713
20
-164.539
11
152.618
21
-164.348
0
LINE
8
BLACK
6
CONTINUOUS
10
152.618
20
-164.348
11
152.428
21
-164.063
0
LINE
8
BLACK
6
CONTINUOUS
10
152.428
20
-164.063
11
152.332
21
-163.967
0
LINE
8
BLACK
6
CONTINUOUS
10
102.169
20
-168.486
11
102.677
21
-167.978
0
LINE
8
BLACK
6
CONTINUOUS
10
102.677
20
-167.978
11
102.169
21
-167.47
0
LINE
8
BLACK
6
CONTINUOUS
10
102.169
20
-167.47
11
101.661
21
-167.978
0
LINE
8
BLACK
6
CONTINUOUS
10
101.661
20
-167.978
11
102.169
21
-168.486
0
LINE
8
BLACK
6
CONTINUOUS
10
106.332
20
-168.893
11
105.19
21
-168.893
0
LINE
8
BLACK
6
CONTINUOUS
10
105.761
20
-168.893
11
105.761
21
-166.893
0
LINE
8
BLACK
6
CONTINUOUS
10
105.761
20
-166.893
11
105.57
21
-167.179
0
LINE
8
BLACK
6
CONTINUOUS
10
105.57
20
-167.179
11
105.38
21
-167.369
0
LINE
8
BLACK
6
CONTINUOUS
10
105.38
20
-167.369
11
105.19
21
-167.465
0
LINE
8
BLACK
6
CONTINUOUS
10
107.19
20
-168.703
11
107.285
21
-168.798
0
LINE
8
BLACK
6
CONTINUOUS
10
107.285
20
-168.798
11
107.19
21
-168.893
0
LINE
8
BLACK
6
CONTINUOUS
10
107.19
20
-168.893
11
107.094
21
-168.798
0
LINE
8
BLACK
6
CONTINUOUS
10
107.094
20
-168.798
11
107.19
21
-168.703
0
LINE
8
BLACK
6
CONTINUOUS
10
107.19
20
-168.703
11
107.19
21
-168.893
0
LINE
8
BLACK
6
CONTINUOUS
10
108.523
20
-166.893
11
108.713
21
-166.893
0
LINE
8
BLACK
6
CONTINUOUS
10
108.713
20
-166.893
11
108.904
21
-166.988
0
LINE
8
BLACK
6
CONTINUOUS
10
108.904
20
-166.988
11
108.999
21
-167.084
0
LINE
8
BLACK
6
CONTINUOUS
10
108.999
20
-167.084
11
109.094
21
-167.274
0
LINE
8
BLACK
6
CONTINUOUS
10
109.094
20
-167.274
11
109.19
21
-167.655
0
LINE
8
BLACK
6
CONTINUOUS
10
109.19
20
-167.655
11
109.19
21
-168.131
0
LINE
8
BLACK
6
CONTINUOUS
10
109.19
20
-168.131
11
109.094
21
-168.512
0
LINE
8
BLACK
6
CONTINUOUS
10
109.094
20
-168.512
11
108.999
21
-168.703
0
LINE
8
BLACK
6
CONTINUOUS
10
108.999
20
-168.703
11
108.904
21
-168.798
0
LINE
8
BLACK
6
CONTINUOUS
10
108.904
20
-168.798
11
108.713
21
-168.893
0
LINE
8
BLACK
6
CONTINUOUS
10
108.713
20
-168.893
11
108.523
21
-168.893
0
LINE
8
BLACK
6
CONTINUOUS
10
108.523
20
-168.893
11
108.332
21
-168.798
0
LINE
8
BLACK
6
CONTINUOUS
10
108.332
20
-168.798
11
108.237
21
-168.703
0
LINE
8
BLACK
6
CONTINUOUS
10
108.237
20
-168.703
11
108.142
21
-168.512
0
LINE
8
BLACK
6
CONTINUOUS
10
108.142
20
-168.512
11
108.047
21
-168.131
0
LINE
8
BLACK
6
CONTINUOUS
10
108.047
20
-168.131
11
108.047
21
-167.655
0
LINE
8
BLACK
6
CONTINUOUS
10
108.047
20
-167.655
11
108.142
21
-167.274
0
LINE
8
BLACK
6
CONTINUOUS
10
108.142
20
-167.274
11
108.237
21
-167.084
0
LINE
8
BLACK
6
CONTINUOUS
10
108.237
20
-167.084
11
108.332
21
-166.988
0
LINE
8
BLACK
6
CONTINUOUS
10
108.332
20
-166.988
11
108.523
21
-166.893
0
LINE
8
BLACK
6
CONTINUOUS
10
111.094
20
-168.893
11
109.951
21
-168.893
0
LINE
8
BLACK
6
CONTINUOUS
10
110.523
20
-168.893
11
110.523
21
-166.893
0
LINE
8
BLACK
6
CONTINUOUS
10
110.523
20
-166.893
11
110.332
21
-167.179
0
LINE
8
BLACK
6
CONTINUOUS
10
110.332
20
-167.179
11
110.142
21
-167.369
0
LINE
8
BLACK
6
CONTINUOUS
10
110.142
20
-167.369
11
109.951
21
-167.465
0
LINE
8
BLACK
6
CONTINUOUS
10
112.809
20
-166.893
11
112.428
21
-166.893
0
LINE
8
BLACK
6
CONTINUOUS
10
112.428
20
-166.893
11
112.237
21
-166.988
0
LINE
8
BLACK
6
CONTINUOUS
10
112.237
20
-166.988
11
112.142
21
-167.084
0
LINE
8
BLACK
6
CONTINUOUS
10
112.142
20
-167.084
11
111.951
21
-167.369
0
LINE
8
BLACK
6
CONTINUOUS
10
111.951
20
-167.369
11
111.856
21
-167.75
0
LINE
8
BLACK
6
CONTINUOUS
10
111.856
20
-167.75
11
111.856
21
-168.512
0
LINE
8
BLACK
6
CONTINUOUS
10
111.856
20
-168.512
11
111.951
21
-168.703
0
LINE
8
BLACK
6
CONTINUOUS
10
111.951
20
-168.703
11
112.047
21
-168.798
0
LINE
8
BLACK
6
CONTINUOUS
10
112.047
20
-168.798
11
112.237
21
-168.893
0
LINE
8
BLACK
6
CONTINUOUS
10
112.237
20
-168.893
11
112.618
21
-168.893
0
LINE
8
BLACK
6
CONTINUOUS
10
112.618
20
-168.893
11
112.809
21
-168.798
0
LINE
8
BLACK
6
CONTINUOUS
10
112.809
20
-168.798
11
112.904
21
-168.703
0
LINE
8
BLACK
6
CONTINUOUS
10
112.904
20
-168.703
11
112.999
21
-168.512
0
LINE
8
BLACK
6
CONTINUOUS
10
112.999
20
-168.512
11
112.999
21
-168.036
0
LINE
8
BLACK
6
CONTINUOUS
10
112.999
20
-168.036
11
112.904
21
-167.845
0
LINE
8
BLACK
6
CONTINUOUS
10
112.904
20
-167.845
11
112.809
21
-167.75
0
LINE
8
BLACK
6
CONTINUOUS
10
112.809
20
-167.75
11
112.618
21
-167.655
0
LINE
8
BLACK
6
CONTINUOUS
10
112.618
20
-167.655
11
112.237
21
-167.655
0
LINE
8
BLACK
6
CONTINUOUS
10
112.237
20
-167.655
11
112.047
21
-167.75
0
LINE
8
BLACK
6
CONTINUOUS
10
112.047
20
-167.75
11
111.951
21
-167.845
0
LINE
8
BLACK
6
CONTINUOUS
10
111.951
20
-167.845
11
111.856
21
-168.036
0
LINE
8
BLACK
6
CONTINUOUS
10
113.856
20
-168.893
11
113.856
21
-167.56
0
LINE
8
BLACK
6
CONTINUOUS
10
113.856
20
-167.75
11
113.951
21
-167.655
0
LINE
8
BLACK
6
CONTINUOUS
10
113.951
20
-167.655
11
114.142
21
-167.56
0
LINE
8
BLACK
6
CONTINUOUS
10
114.142
20
-167.56
11
114.428
21
-167.56
0
LINE
8
BLACK
6
CONTINUOUS
10
114.428
20
-167.56
11
114.618
21
-167.655
0
LINE
8
BLACK
6
CONTINUOUS
10
114.618
20
-167.655
11
114.713
21
-167.845
0
LINE
8
BLACK
6
CONTINUOUS
10
114.713
20
-167.845
11
114.713
21
-168.893
0
LINE
8
BLACK
6
CONTINUOUS
10
114.713
20
-167.845
11
114.809
21
-167.655
0
LINE
8
BLACK
6
CONTINUOUS
10
114.809
20
-167.655
11
114.999
21
-167.56
0
LINE
8
BLACK
6
CONTINUOUS
10
114.999
20
-167.56
11
115.285
21
-167.56
0
LINE
8
BLACK
6
CONTINUOUS
10
115.285
20
-167.56
11
115.475
21
-167.655
0
LINE
8
BLACK
6
CONTINUOUS
10
115.475
20
-167.655
11
115.57
21
-167.845
0
LINE
8
BLACK
6
CONTINUOUS
10
115.57
20
-167.845
11
115.57
21
-168.893
0
LINE
8
BLACK
6
CONTINUOUS
10
116.523
20
-168.893
11
116.523
21
-167.56
0
LINE
8
BLACK
6
CONTINUOUS
10
116.523
20
-167.75
11
116.618
21
-167.655
0
LINE
8
BLACK
6
CONTINUOUS
10
116.618
20
-167.655
11
116.809
21
-167.56
0
LINE
8
BLACK
6
CONTINUOUS
10
116.809
20
-167.56
11
117.094
21
-167.56
0
LINE
8
BLACK
6
CONTINUOUS
10
117.094
20
-167.56
11
117.285
21
-167.655
0
LINE
8
BLACK
6
CONTINUOUS
10
117.285
20
-167.655
11
117.38
21
-167.845
0
LINE
8
BLACK
6
CONTINUOUS
10
117.38
20
-167.845
11
117.38
21
-168.893
0
LINE
8
BLACK
6
CONTINUOUS
10
117.38
20
-167.845
11
117.475
21
-167.655
0
LINE
8
BLACK
6
CONTINUOUS
10
117.475
20
-167.655
11
117.666
21
-167.56
0
LINE
8
BLACK
6
CONTINUOUS
10
117.666
20
-167.56
11
117.951
21
-167.56
0
LINE
8
BLACK
6
CONTINUOUS
10
117.951
20
-167.56
11
118.142
21
-167.655
0
LINE
8
BLACK
6
CONTINUOUS
10
118.142
20
-167.655
11
118.237
21
-167.845
0
LINE
8
BLACK
6
CONTINUOUS
10
118.237
20
-167.845
11
118.237
21
-168.893
0
LINE
8
BLACK
6
CONTINUOUS
10
122.142
20
-166.798
11
120.428
21
-169.369
0
LINE
8
BLACK
6
CONTINUOUS
10
124.713
20
-166.893
11
124.904
21
-166.893
0
LINE
8
BLACK
6
CONTINUOUS
10
124.904
20
-166.893
11
125.094
21
-166.988
0
LINE
8
BLACK
6
CONTINUOUS
10
125.094
20
-166.988
11
125.19
21
-167.084
0
LINE
8
BLACK
6
CONTINUOUS
10
125.19
20
-167.084
11
125.285
21
-167.274
0
LINE
8
BLACK
6
CONTINUOUS
10
125.285
20
-167.274
11
125.38
21
-167.655
0
LINE
8
BLACK
6
CONTINUOUS
10
125.38
20
-167.655
11
125.38
21
-168.131
0
LINE
8
BLACK
6
CONTINUOUS
10
125.38
20
-168.131
11
125.285
21
-168.512
0
LINE
8
BLACK
6
CONTINUOUS
10
125.285
20
-168.512
11
125.19
21
-168.703
0
LINE
8
BLACK
6
CONTINUOUS
10
125.19
20
-168.703
11
125.094
21
-168.798
0
LINE
8
BLACK
6
CONTINUOUS
10
125.094
20
-168.798
11
124.904
21
-168.893
0
LINE
8
BLACK
6
CONTINUOUS
10
124.904
20
-168.893
11
124.713
21
-168.893
0
LINE
8
BLACK
6
CONTINUOUS
10
124.713
20
-168.893
11
124.523
21
-168.798
0
LINE
8
BLACK
6
CONTINUOUS
10
124.523
20
-168.798
11
124.428
21
-168.703
0
LINE
8
BLACK
6
CONTINUOUS
10
124.428
20
-168.703
11
124.332
21
-168.512
0
LINE
8
BLACK
6
CONTINUOUS
10
124.332
20
-168.512
11
124.237
21
-168.131
0
LINE
8
BLACK
6
CONTINUOUS
10
124.237
20
-168.131
11
124.237
21
-167.655
0
LINE
8
BLACK
6
CONTINUOUS
10
124.237
20
-167.655
11
124.332
21
-167.274
0
LINE
8
BLACK
6
CONTINUOUS
10
124.332
20
-167.274
11
124.428
21
-167.084
0
LINE
8
BLACK
6
CONTINUOUS
10
124.428
20
-167.084
11
124.523
21
-166.988
0
LINE
8
BLACK
6
CONTINUOUS
10
124.523
20
-166.988
11
124.713
21
-166.893
0
LINE
8
BLACK
6
CONTINUOUS
10
126.237
20
-168.703
11
126.332
21
-168.798
0
LINE
8
BLACK
6
CONTINUOUS
10
126.332
20
-168.798
11
126.237
21
-168.893
0
LINE
8
BLACK
6
CONTINUOUS
10
126.237
20
-168.893
11
126.142
21
-168.798
0
LINE
8
BLACK
6
CONTINUOUS
10
126.142
20
-168.798
11
126.237
21
-168.703
0
LINE
8
BLACK
6
CONTINUOUS
10
126.237
20
-168.703
11
126.237
21
-168.893
0
LINE
8
BLACK
6
CONTINUOUS
10
127.57
20
-166.893
11
127.761
21
-166.893
0
LINE
8
BLACK
6
CONTINUOUS
10
127.761
20
-166.893
11
127.951
21
-166.988
0
LINE
8
BLACK
6
CONTINUOUS
10
127.951
20
-166.988
11
128.047
21
-167.084
0
LINE
8
BLACK
6
CONTINUOUS
10
128.047
20
-167.084
11
128.142
21
-167.274
0
LINE
8
BLACK
6
CONTINUOUS
10
128.142
20
-167.274
11
128.237
21
-167.655
0
LINE
8
BLACK
6
CONTINUOUS
10
128.237
20
-167.655
11
128.237
21
-168.131
0
LINE
8
BLACK
6
CONTINUOUS
10
128.237
20
-168.131
11
128.142
21
-168.512
0
LINE
8
BLACK
6
CONTINUOUS
10
128.142
20
-168.512
11
128.047
21
-168.703
0
LINE
8
BLACK
6
CONTINUOUS
10
128.047
20
-168.703
11
127.951
21
-168.798
0
LINE
8
BLACK
6
CONTINUOUS
10
127.951
20
-168.798
11
127.761
21
-168.893
0
LINE
8
BLACK
6
CONTINUOUS
10
127.761
20
-168.893
11
127.57
21
-168.893
0
LINE
8
BLACK
6
CONTINUOUS
10
127.57
20
-168.893
11
127.38
21
-168.798
0
LINE
8
BLACK
6
CONTINUOUS
10
127.38
20
-168.798
11
127.285
21
-168.703
0
LINE
8
BLACK
6
CONTINUOUS
10
127.285
20
-168.703
11
127.19
21
-168.512
0
LINE
8
BLACK
6
CONTINUOUS
10
127.19
20
-168.512
11
127.094
21
-168.131
0
LINE
8
BLACK
6
CONTINUOUS
10
127.094
20
-168.131
11
127.094
21
-167.655
0
LINE
8
BLACK
6
CONTINUOUS
10
127.094
20
-167.655
11
127.19
21
-167.274
0
LINE
8
BLACK
6
CONTINUOUS
10
127.19
20
-167.274
11
127.285
21
-167.084
0
LINE
8
BLACK
6
CONTINUOUS
10
127.285
20
-167.084
11
127.38
21
-166.988
0
LINE
8
BLACK
6
CONTINUOUS
10
127.38
20
-166.988
11
127.57
21
-166.893
0
LINE
8
BLACK
6
CONTINUOUS
10
129.951
20
-167.56
11
129.951
21
-168.893
0
LINE
8
BLACK
6
CONTINUOUS
10
129.475
20
-166.798
11
128.999
21
-168.226
0
LINE
8
BLACK
6
CONTINUOUS
10
128.999
20
-168.226
11
130.237
21
-168.226
0
LINE
8
BLACK
6
CONTINUOUS
10
131.38
20
-166.893
11
131.57
21
-166.893
0
LINE
8
BLACK
6
CONTINUOUS
10
131.57
20
-166.893
11
131.761
21
-166.988
0
LINE
8
BLACK
6
CONTINUOUS
10
131.761
20
-166.988
11
131.856
21
-167.084
0
LINE
8
BLACK
6
CONTINUOUS
10
131.856
20
-167.084
11
131.951
21
-167.274
0
LINE
8
BLACK
6
CONTINUOUS
10
131.951
20
-167.274
11
132.047
21
-167.655
0
LINE
8
BLACK
6
CONTINUOUS
10
132.047
20
-167.655
11
132.047
21
-168.131
0
LINE
8
BLACK
6
CONTINUOUS
10
132.047
20
-168.131
11
131.951
21
-168.512
0
LINE
8
BLACK
6
CONTINUOUS
10
131.951
20
-168.512
11
131.856
21
-168.703
0
LINE
8
BLACK
6
CONTINUOUS
10
131.856
20
-168.703
11
131.761
21
-168.798
0
LINE
8
BLACK
6
CONTINUOUS
10
131.761
20
-168.798
11
131.57
21
-168.893
0
LINE
8
BLACK
6
CONTINUOUS
10
131.57
20
-168.893
11
131.38
21
-168.893
0
LINE
8
BLACK
6
CONTINUOUS
10
131.38
20
-168.893
11
131.19
21
-168.798
0
LINE
8
BLACK
6
CONTINUOUS
10
131.19
20
-168.798
11
131.094
21
-168.703
0
LINE
8
BLACK
6
CONTINUOUS
10
131.094
20
-168.703
11
130.999
21
-168.512
0
LINE
8
BLACK
6
CONTINUOUS
10
130.999
20
-168.512
11
130.904
21
-168.131
0
LINE
8
BLACK
6
CONTINUOUS
10
130.904
20
-168.131
11
130.904
21
-167.655
0
LINE
8
BLACK
6
CONTINUOUS
10
130.904
20
-167.655
11
130.999
21
-167.274
0
LINE
8
BLACK
6
CONTINUOUS
10
130.999
20
-167.274
11
131.094
21
-167.084
0
LINE
8
BLACK
6
CONTINUOUS
10
131.094
20
-167.084
11
131.19
21
-166.988
0
LINE
8
BLACK
6
CONTINUOUS
10
131.19
20
-166.988
11
131.38
21
-166.893
0
LINE
8
BLACK
6
CONTINUOUS
10
133.285
20
-166.893
11
133.475
21
-166.893
0
LINE
8
BLACK
6
CONTINUOUS
10
133.475
20
-166.893
11
133.666
21
-166.988
0
LINE
8
BLACK
6
CONTINUOUS
10
133.666
20
-166.988
11
133.761
21
-167.084
0
LINE
8
BLACK
6
CONTINUOUS
10
133.761
20
-167.084
11
133.856
21
-167.274
0
LINE
8
BLACK
6
CONTINUOUS
10
133.856
20
-167.274
11
133.951
21
-167.655
0
LINE
8
BLACK
6
CONTINUOUS
10
133.951
20
-167.655
11
133.951
21
-168.131
0
LINE
8
BLACK
6
CONTINUOUS
10
133.951
20
-168.131
11
133.856
21
-168.512
0
LINE
8
BLACK
6
CONTINUOUS
10
133.856
20
-168.512
11
133.761
21
-168.703
0
LINE
8
BLACK
6
CONTINUOUS
10
133.761
20
-168.703
11
133.666
21
-168.798
0
LINE
8
BLACK
6
CONTINUOUS
10
133.666
20
-168.798
11
133.475
21
-168.893
0
LINE
8
BLACK
6
CONTINUOUS
10
133.475
20
-168.893
11
133.285
21
-168.893
0
LINE
8
BLACK
6
CONTINUOUS
10
133.285
20
-168.893
11
133.094
21
-168.798
0
LINE
8
BLACK
6
CONTINUOUS
10
133.094
20
-168.798
11
132.999
21
-168.703
0
LINE
8
BLACK
6
CONTINUOUS
10
132.999
20
-168.703
11
132.904
21
-168.512
0
LINE
8
BLACK
6
CONTINUOUS
10
132.904
20
-168.512
11
132.809
21
-168.131
0
LINE
8
BLACK
6
CONTINUOUS
10
132.809
20
-168.131
11
132.809
21
-167.655
0
LINE
8
BLACK
6
CONTINUOUS
10
132.809
20
-167.655
11
132.904
21
-167.274
0
LINE
8
BLACK
6
CONTINUOUS
10
132.904
20
-167.274
11
132.999
21
-167.084
0
LINE
8
BLACK
6
CONTINUOUS
10
132.999
20
-167.084
11
133.094
21
-166.988
0
LINE
8
BLACK
6
CONTINUOUS
10
133.094
20
-166.988
11
133.285
21
-166.893
0
LINE
8
BLACK
6
CONTINUOUS
10
134.713
20
-166.893
11
134.713
21
-167.274
0
LINE
8
BLACK
6
CONTINUOUS
10
135.475
20
-166.893
11
135.475
21
-167.274
0
LINE
8
BLACK
6
CONTINUOUS
10
138.428
20
-169.655
11
138.332
21
-169.56
0
LINE
8
BLACK
6
CONTINUOUS
10
138.332
20
-169.56
11
138.142
21
-169.274
0
LINE
8
BLACK
6
CONTINUOUS
10
138.142
20
-169.274
11
138.047
21
-169.084
0
LINE
8
BLACK
6
CONTINUOUS
10
138.047
20
-169.084
11
137.951
21
-168.798
0
LINE
8
BLACK
6
CONTINUOUS
10
137.951
20
-168.798
11
137.856
21
-168.322
0
LINE
8
BLACK
6
CONTINUOUS
10
137.856
20
-168.322
11
137.856
21
-167.941
0
LINE
8
BLACK
6
CONTINUOUS
10
137.856
20
-167.941
11
137.951
21
-167.465
0
LINE
8
BLACK
6
CONTINUOUS
10
137.951
20
-167.465
11
138.047
21
-167.179
0
LINE
8
BLACK
6
CONTINUOUS
10
138.047
20
-167.179
11
138.142
21
-166.988
0
LINE
8
BLACK
6
CONTINUOUS
10
138.142
20
-166.988
11
138.332
21
-166.703
0
LINE
8
BLACK
6
CONTINUOUS
10
138.332
20
-166.703
11
138.428
21
-166.607
0
LINE
8
BLACK
6
CONTINUOUS
10
139.285
20
-168.893
11
139.666
21
-168.893
0
LINE
8
BLACK
6
CONTINUOUS
10
139.666
20
-168.893
11
139.856
21
-168.798
0
LINE
8
BLACK
6
CONTINUOUS
10
139.856
20
-168.798
11
139.951
21
-168.703
0
LINE
8
BLACK
6
CONTINUOUS
10
139.951
20
-168.703
11
140.142
21
-168.417
0
LINE
8
BLACK
6
CONTINUOUS
10
140.142
20
-168.417
11
140.237
21
-168.036
0
LINE
8
BLACK
6
CONTINUOUS
10
140.237
20
-168.036
11
140.237
21
-167.274
0
LINE
8
BLACK
6
CONTINUOUS
10
140.237
20
-167.274
11
140.142
21
-167.084
0
LINE
8
BLACK
6
CONTINUOUS
10
140.142
20
-167.084
11
140.047
21
-166.988
0
LINE
8
BLACK
6
CONTINUOUS
10
140.047
20
-166.988
11
139.856
21
-166.893
0
LINE
8
BLACK
6
CONTINUOUS
10
139.856
20
-166.893
11
139.475
21
-166.893
0
LINE
8
BLACK
6
CONTINUOUS
10
139.475
20
-166.893
11
139.285
21
-166.988
0
LINE
8
BLACK
6
CONTINUOUS
10
139.285
20
-166.988
11
139.19
21
-167.084
0
LINE
8
BLACK
6
CONTINUOUS
10
139.19
20
-167.084
11
139.094
21
-167.274
0
LINE
8
BLACK
6
CONTINUOUS
10
139.094
20
-167.274
11
139.094
21
-167.75
0
LINE
8
BLACK
6
CONTINUOUS
10
139.094
20
-167.75
11
139.19
21
-167.941
0
LINE
8
BLACK
6
CONTINUOUS
10
139.19
20
-167.941
11
139.285
21
-168.036
0
LINE
8
BLACK
6
CONTINUOUS
10
139.285
20
-168.036
11
139.475
21
-168.131
0
LINE
8
BLACK
6
CONTINUOUS
10
139.475
20
-168.131
11
139.856
21
-168.131
0
LINE
8
BLACK
6
CONTINUOUS
10
139.856
20
-168.131
11
140.047
21
-168.036
0
LINE
8
BLACK
6
CONTINUOUS
10
140.047
20
-168.036
11
140.142
21
-167.941
0
LINE
8
BLACK
6
CONTINUOUS
10
140.142
20
-167.941
11
140.237
21
-167.75
0
LINE
8
BLACK
6
CONTINUOUS
10
140.999
20
-167.084
11
141.094
21
-166.988
0
LINE
8
BLACK
6
CONTINUOUS
10
141.094
20
-166.988
11
141.285
21
-166.893
0
LINE
8
BLACK
6
CONTINUOUS
10
141.285
20
-166.893
11
141.761
21
-166.893
0
LINE
8
BLACK
6
CONTINUOUS
10
141.761
20
-166.893
11
141.951
21
-166.988
0
LINE
8
BLACK
6
CONTINUOUS
10
141.951
20
-166.988
11
142.047
21
-167.084
0
LINE
8
BLACK
6
CONTINUOUS
10
142.047
20
-167.084
11
142.142
21
-167.274
0
LINE
8
BLACK
6
CONTINUOUS
10
142.142
20
-167.274
11
142.142
21
-167.465
0
LINE
8
BLACK
6
CONTINUOUS
10
142.142
20
-167.465
11
142.047
21
-167.75
0
LINE
8
BLACK
6
CONTINUOUS
10
142.047
20
-167.75
11
140.904
21
-168.893
0
LINE
8
BLACK
6
CONTINUOUS
10
140.904
20
-168.893
11
142.142
21
-168.893
0
LINE
8
BLACK
6
CONTINUOUS
10
144.523
20
-168.893
11
144.523
21
-166.893
0
LINE
8
BLACK
6
CONTINUOUS
10
145.38
20
-168.893
11
145.38
21
-167.845
0
LINE
8
BLACK
6
CONTINUOUS
10
145.38
20
-167.845
11
145.285
21
-167.655
0
LINE
8
BLACK
6
CONTINUOUS
10
145.285
20
-167.655
11
145.094
21
-167.56
0
LINE
8
BLACK
6
CONTINUOUS
10
145.094
20
-167.56
11
144.809
21
-167.56
0
LINE
8
BLACK
6
CONTINUOUS
10
144.809
20
-167.56
11
144.618
21
-167.655
0
LINE
8
BLACK
6
CONTINUOUS
10
144.618
20
-167.655
11
144.523
21
-167.75
0
LINE
8
BLACK
6
CONTINUOUS
10
146.618
20
-168.893
11
146.428
21
-168.798
0
LINE
8
BLACK
6
CONTINUOUS
10
146.428
20
-168.798
11
146.332
21
-168.703
0
LINE
8
BLACK
6
CONTINUOUS
10
146.332
20
-168.703
11
146.237
21
-168.512
0
LINE
8
BLACK
6
CONTINUOUS
10
146.237
20
-168.512
11
146.237
21
-167.941
0
LINE
8
BLACK
6
CONTINUOUS
10
146.237
20
-167.941
11
146.332
21
-167.75
0
LINE
8
BLACK
6
CONTINUOUS
10
146.332
20
-167.75
11
146.428
21
-167.655
0
LINE
8
BLACK
6
CONTINUOUS
10
146.428
20
-167.655
11
146.618
21
-167.56
0
LINE
8
BLACK
6
CONTINUOUS
10
146.618
20
-167.56
11
146.904
21
-167.56
0
LINE
8
BLACK
6
CONTINUOUS
10
146.904
20
-167.56
11
147.094
21
-167.655
0
LINE
8
BLACK
6
CONTINUOUS
10
147.094
20
-167.655
11
147.19
21
-167.75
0
LINE
8
BLACK
6
CONTINUOUS
10
147.19
20
-167.75
11
147.285
21
-167.941
0
LINE
8
BLACK
6
CONTINUOUS
10
147.285
20
-167.941
11
147.285
21
-168.512
0
LINE
8
BLACK
6
CONTINUOUS
10
147.285
20
-168.512
11
147.19
21
-168.703
0
LINE
8
BLACK
6
CONTINUOUS
10
147.19
20
-168.703
11
147.094
21
-168.798
0
LINE
8
BLACK
6
CONTINUOUS
10
147.094
20
-168.798
11
146.904
21
-168.893
0
LINE
8
BLACK
6
CONTINUOUS
10
146.904
20
-168.893
11
146.618
21
-168.893
0
LINE
8
BLACK
6
CONTINUOUS
10
148.428
20
-168.893
11
148.237
21
-168.798
0
LINE
8
BLACK
6
CONTINUOUS
10
148.237
20
-168.798
11
148.142
21
-168.607
0
LINE
8
BLACK
6
CONTINUOUS
10
148.142
20
-168.607
11
148.142
21
-166.893
0
LINE
8
BLACK
6
CONTINUOUS
10
149.951
20
-168.798
11
149.761
21
-168.893
0
LINE
8
BLACK
6
CONTINUOUS
10
149.761
20
-168.893
11
149.38
21
-168.893
0
LINE
8
BLACK
6
CONTINUOUS
10
149.38
20
-168.893
11
149.19
21
-168.798
0
LINE
8
BLACK
6
CONTINUOUS
10
149.19
20
-168.798
11
149.094
21
-168.607
0
LINE
8
BLACK
6
CONTINUOUS
10
149.094
20
-168.607
11
149.094
21
-167.845
0
LINE
8
BLACK
6
CONTINUOUS
10
149.094
20
-167.845
11
149.19
21
-167.655
0
LINE
8
BLACK
6
CONTINUOUS
10
149.19
20
-167.655
11
149.38
21
-167.56
0
LINE
8
BLACK
6
CONTINUOUS
10
149.38
20
-167.56
11
149.761
21
-167.56
0
LINE
8
BLACK
6
CONTINUOUS
10
149.761
20
-167.56
11
149.951
21
-167.655
0
LINE
8
BLACK
6
CONTINUOUS
10
149.951
20
-167.655
11
150.047
21
-167.845
0
LINE
8
BLACK
6
CONTINUOUS
10
150.047
20
-167.845
11
150.047
21
-168.036
0
LINE
8
BLACK
6
CONTINUOUS
10
150.047
20
-168.036
11
149.094
21
-168.226
0
LINE
8
BLACK
6
CONTINUOUS
10
150.809
20
-168.798
11
150.999
21
-168.893
0
LINE
8
BLACK
6
CONTINUOUS
10
150.999
20
-168.893
11
151.38
21
-168.893
0
LINE
8
BLACK
6
CONTINUOUS
10
151.38
20
-168.893
11
151.57
21
-168.798
0
LINE
8
BLACK
6
CONTINUOUS
10
151.57
20
-168.798
11
151.666
21
-168.607
0
LINE
8
BLACK
6
CONTINUOUS
10
151.666
20
-168.607
11
151.666
21
-168.512
0
LINE
8
BLACK
6
CONTINUOUS
10
151.666
20
-168.512
11
151.57
21
-168.322
0
LINE
8
BLACK
6
CONTINUOUS
10
151.57
20
-168.322
11
151.38
21
-168.226
0
LINE
8
BLACK
6
CONTINUOUS
10
151.38
20
-168.226
11
151.094
21
-168.226
0
LINE
8
BLACK
6
CONTINUOUS
10
151.094
20
-168.226
11
150.904
21
-168.131
0
LINE
8
BLACK
6
CONTINUOUS
10
150.904
20
-168.131
11
150.809
21
-167.941
0
LINE
8
BLACK
6
CONTINUOUS
10
150.809
20
-167.941
11
150.809
21
-167.845
0
LINE
8
BLACK
6
CONTINUOUS
10
150.809
20
-167.845
11
150.904
21
-167.655
0
LINE
8
BLACK
6
CONTINUOUS
10
150.904
20
-167.655
11
151.094
21
-167.56
0
LINE
8
BLACK
6
CONTINUOUS
10
151.094
20
-167.56
11
151.38
21
-167.56
0
LINE
8
BLACK
6
CONTINUOUS
10
151.38
20
-167.56
11
151.57
21
-167.655
0
LINE
8
BLACK
6
CONTINUOUS
10
152.332
20
-169.655
11
152.428
21
-169.56
0
LINE
8
BLACK
6
CONTINUOUS
10
152.428
20
-169.56
11
152.618
21
-169.274
0
LINE
8
BLACK
6
CONTINUOUS
10
152.618
20
-169.274
11
152.713
21
-169.084
0
LINE
8
BLACK
6
CONTINUOUS
10
152.713
20
-169.084
11
152.809
21
-168.798
0
LINE
8
BLACK
6
CONTINUOUS
10
152.809
20
-168.798
11
152.904
21
-168.322
0
LINE
8
BLACK
6
CONTINUOUS
10
152.904
20
-168.322
11
152.904
21
-167.941
0
LINE
8
BLACK
6
CONTINUOUS
10
152.904
20
-167.941
11
152.809
21
-167.465
0
LINE
8
BLACK
6
CONTINUOUS
10
152.809
20
-167.465
11
152.713
21
-167.179
0
LINE
8
BLACK
6
CONTINUOUS
10
152.713
20
-167.179
11
152.618
21
-166.988
0
LINE
8
BLACK
6
CONTINUOUS
10
152.618
20
-166.988
11
152.428
21
-166.703
0
LINE
8
BLACK
6
CONTINUOUS
10
152.428
20
-166.703
11
152.332
21
-166.607
0
LINE
8
BLACK
6
CONTINUOUS
10
101.377
20
-169.968
11
102.677
21
-171.268
0
LINE
8
BLACK
6
CONTINUOUS
10
102.677
20
-169.968
11
101.377
21
-171.268
0
CIRCLE
8
BLACK
10
102.027
20
-170.618
40
0.65
0
LINE
8
BLACK
6
CONTINUOUS
10
106.332
20
-171.533
11
105.19
21
-171.533
0
LINE
8
BLACK
6
CONTINUOUS
10
105.761
20
-171.533
11
105.761
21
-169.533
0
LINE
8
BLACK
6
CONTINUOUS
10
105.761
20
-169.533
11
105.57
21
-169.819
0
LINE
8
BLACK
6
CONTINUOUS
10
105.57
20
-169.819
11
105.38
21
-170.009
0
LINE
8
BLACK
6
CONTINUOUS
10
105.38
20
-170.009
11
105.19
21
-170.105
0
LINE
8
BLACK
6
CONTINUOUS
10
107.19
20
-171.343
11
107.285
21
-171.438
0
LINE
8
BLACK
6
CONTINUOUS
10
107.285
20
-171.438
11
107.19
21
-171.533
0
LINE
8
BLACK
6
CONTINUOUS
10
107.19
20
-171.533
11
107.094
21
-171.438
0
LINE
8
BLACK
6
CONTINUOUS
10
107.094
20
-171.438
11
107.19
21
-171.343
0
LINE
8
BLACK
6
CONTINUOUS
10
107.19
20
-171.343
11
107.19
21
-171.533
0
LINE
8
BLACK
6
CONTINUOUS
10
107.951
20
-169.533
11
109.19
21
-169.533
0
LINE
8
BLACK
6
CONTINUOUS
10
109.19
20
-169.533
11
108.523
21
-170.295
0
LINE
8
BLACK
6
CONTINUOUS
10
108.523
20
-170.295
11
108.809
21
-170.295
0
LINE
8
BLACK
6
CONTINUOUS
10
108.809
20
-170.295
11
108.999
21
-170.39
0
LINE
8
BLACK
6
CONTINUOUS
10
108.999
20
-170.39
11
109.094
21
-170.485
0
LINE
8
BLACK
6
CONTINUOUS
10
109.094
20
-170.485
11
109.19
21
-170.676
0
LINE
8
BLACK
6
CONTINUOUS
10
109.19
20
-170.676
11
109.19
21
-171.152
0
LINE
8
BLACK
6
CONTINUOUS
10
109.19
20
-171.152
11
109.094
21
-171.343
0
LINE
8
BLACK
6
CONTINUOUS
10
109.094
20
-171.343
11
108.999
21
-171.438
0
LINE
8
BLACK
6
CONTINUOUS
10
108.999
20
-171.438
11
108.809
21
-171.533
0
LINE
8
BLACK
6
CONTINUOUS
10
108.809
20
-171.533
11
108.237
21
-171.533
0
LINE
8
BLACK
6
CONTINUOUS
10
108.237
20
-171.533
11
108.047
21
-171.438
0
LINE
8
BLACK
6
CONTINUOUS
10
108.047
20
-171.438
11
107.951
21
-171.343
0
LINE
8
BLACK
6
CONTINUOUS
10
110.428
20
-169.533
11
110.618
21
-169.533
0
LINE
8
BLACK
6
CONTINUOUS
10
110.618
20
-169.533
11
110.809
21
-169.628
0
LINE
8
BLACK
6
CONTINUOUS
10
110.809
20
-169.628
11
110.904
21
-169.724
0
LINE
8
BLACK
6
CONTINUOUS
10
110.904
20
-169.724
11
110.999
21
-169.914
0
LINE
8
BLACK
6
CONTINUOUS
10
110.999
20
-169.914
11
111.094
21
-170.295
0
LINE
8
BLACK
6
CONTINUOUS
10
111.094
20
-170.295
11
111.094
21
-170.771
0
LINE
8
BLACK
6
CONTINUOUS
10
111.094
20
-170.771
11
110.999
21
-171.152
0
LINE
8
BLACK
6
CONTINUOUS
10
110.999
20
-171.152
11
110.904
21
-171.343
0
LINE
8
BLACK
6
CONTINUOUS
10
110.904
20
-171.343
11
110.809
21
-171.438
0
LINE
8
BLACK
6
CONTINUOUS
10
110.809
20
-171.438
11
110.618
21
-171.533
0
LINE
8
BLACK
6
CONTINUOUS
10
110.618
20
-171.533
11
110.428
21
-171.533
0
LINE
8
BLACK
6
CONTINUOUS
10
110.428
20
-171.533
11
110.237
21
-171.438
0
LINE
8
BLACK
6
CONTINUOUS
10
110.237
20
-171.438
11
110.142
21
-171.343
0
LINE
8
BLACK
6
CONTINUOUS
10
110.142
20
-171.343
11
110.047
21
-171.152
0
LINE
8
BLACK
6
CONTINUOUS
10
110.047
20
-171.152
11
109.951
21
-170.771
0
LINE
8
BLACK
6
CONTINUOUS
10
109.951
20
-170.771
11
109.951
21
-170.295
0
LINE
8
BLACK
6
CONTINUOUS
10
109.951
20
-170.295
11
110.047
21
-169.914
0
LINE
8
BLACK
6
CONTINUOUS
10
110.047
20
-169.914
11
110.142
21
-169.724
0
LINE
8
BLACK
6
CONTINUOUS
10
110.142
20
-169.724
11
110.237
21
-169.628
0
LINE
8
BLACK
6
CONTINUOUS
10
110.237
20
-169.628
11
110.428
21
-169.533
0
LINE
8
BLACK
6
CONTINUOUS
10
112.332
20
-169.533
11
112.523
21
-169.533
0
LINE
8
BLACK
6
CONTINUOUS
10
112.523
20
-169.533
11
112.713
21
-169.628
0
LINE
8
BLACK
6
CONTINUOUS
10
112.713
20
-169.628
11
112.809
21
-169.724
0
LINE
8
BLACK
6
CONTINUOUS
10
112.809
20
-169.724
11
112.904
21
-169.914
0
LINE
8
BLACK
6
CONTINUOUS
10
112.904
20
-169.914
11
112.999
21
-170.295
0
LINE
8
BLACK
6
CONTINUOUS
10
112.999
20
-170.295
11
112.999
21
-170.771
0
LINE
8
BLACK
6
CONTINUOUS
10
112.999
20
-170.771
11
112.904
21
-171.152
0
LINE
8
BLACK
6
CONTINUOUS
10
112.904
20
-171.152
11
112.809
21
-171.343
0
LINE
8
BLACK
6
CONTINUOUS
10
112.809
20
-171.343
11
112.713
21
-171.438
0
LINE
8
BLACK
6
CONTINUOUS
10
112.713
20
-171.438
11
112.523
21
-171.533
0
LINE
8
BLACK
6
CONTINUOUS
10
112.523
20
-171.533
11
112.332
21
-171.533
0
LINE
8
BLACK
6
CONTINUOUS
10
112.332
20
-171.533
11
112.142
21
-171.438
0
LINE
8
BLACK
6
CONTINUOUS
10
112.142
20
-171.438
11
112.047
21
-171.343
0
LINE
8
BLACK
6
CONTINUOUS
10
112.047
20
-171.343
11
111.951
21
-171.152
0
LINE
8
BLACK
6
CONTINUOUS
10
111.951
20
-171.152
11
111.856
21
-170.771
0
LINE
8
BLACK
6
CONTINUOUS
10
111.856
20
-170.771
11
111.856
21
-170.295
0
LINE
8
BLACK
6
CONTINUOUS
10
111.856
20
-170.295
11
111.951
21
-169.914
0
LINE
8
BLACK
6
CONTINUOUS
10
111.951
20
-169.914
11
112.047
21
-169.724
0
LINE
8
BLACK
6
CONTINUOUS
10
112.047
20
-169.724
11
112.142
21
-169.628
0
LINE
8
BLACK
6
CONTINUOUS
10
112.142
20
-169.628
11
112.332
21
-169.533
0
LINE
8
BLACK
6
CONTINUOUS
10
113.856
20
-171.533
11
113.856
21
-170.2
0
LINE
8
BLACK
6
CONTINUOUS
10
113.856
20
-170.39
11
113.951
21
-170.295
0
LINE
8
BLACK
6
CONTINUOUS
10
113.951
20
-170.295
11
114.142
21
-170.2
0
LINE
8
BLACK
6
CONTINUOUS
10
114.142
20
-170.2
11
114.428
21
-170.2
0
LINE
8
BLACK
6
CONTINUOUS
10
114.428
20
-170.2
11
114.618
21
-170.295
0
LINE
8
BLACK
6
CONTINUOUS
10
114.618
20
-170.295
11
114.713
21
-170.485
0
LINE
8
BLACK
6
CONTINUOUS
10
114.713
20
-170.485
11
114.713
21
-171.533
0
LINE
8
BLACK
6
CONTINUOUS
10
114.713
20
-170.485
11
114.809
21
-170.295
0
LINE
8
BLACK
6
CONTINUOUS
10
114.809
20
-170.295
11
114.999
21
-170.2
0
LINE
8
BLACK
6
CONTINUOUS
10
114.999
20
-170.2
11
115.285
21
-170.2
0
LINE
8
BLACK
6
CONTINUOUS
10
115.285
20
-170.2
11
115.475
21
-170.295
0
LINE
8
BLACK
6
CONTINUOUS
10
115.475
20
-170.295
11
115.57
21
-170.485
0
LINE
8
BLACK
6
CONTINUOUS
10
115.57
20
-170.485
11
115.57
21
-171.533
0
LINE
8
BLACK
6
CONTINUOUS
10
116.523
20
-171.533
11
116.523
21
-170.2
0
LINE
8
BLACK
6
CONTINUOUS
10
116.523
20
-170.39
11
116.618
21
-170.295
0
LINE
8
BLACK
6
CONTINUOUS
10
116.618
20
-170.295
11
116.809
21
-170.2
0
LINE
8
BLACK
6
CONTINUOUS
10
116.809
20
-170.2
11
117.094
21
-170.2
0
LINE
8
BLACK
6
CONTINUOUS
10
117.094
20
-170.2
11
117.285
21
-170.295
0
LINE
8
BLACK
6
CONTINUOUS
10
117.285
20
-170.295
11
117.38
21
-170.485
0
LINE
8
BLACK
6
CONTINUOUS
10
117.38
20
-170.485
11
117.38
21
-171.533
0
LINE
8
BLACK
6
CONTINUOUS
10
117.38
20
-170.485
11
117.475
21
-170.295
0
LINE
8
BLACK
6
CONTINUOUS
10
117.475
20
-170.295
11
117.666
21
-170.2
0
LINE
8
BLACK
6
CONTINUOUS
10
117.666
20
-170.2
11
117.951
21
-170.2
0
LINE
8
BLACK
6
CONTINUOUS
10
117.951
20
-170.2
11
118.142
21
-170.295
0
LINE
8
BLACK
6
CONTINUOUS
10
118.142
20
-170.295
11
118.237
21
-170.485
0
LINE
8
BLACK
6
CONTINUOUS
10
118.237
20
-170.485
11
118.237
21
-171.533
0
LINE
8
BLACK
6
CONTINUOUS
10
122.142
20
-169.438
11
120.428
21
-172.009
0
LINE
8
BLACK
6
CONTINUOUS
10
124.713
20
-169.533
11
124.904
21
-169.533
0
LINE
8
BLACK
6
CONTINUOUS
10
124.904
20
-169.533
11
125.094
21
-169.628
0
LINE
8
BLACK
6
CONTINUOUS
10
125.094
20
-169.628
11
125.19
21
-169.724
0
LINE
8
BLACK
6
CONTINUOUS
10
125.19
20
-169.724
11
125.285
21
-169.914
0
LINE
8
BLACK
6
CONTINUOUS
10
125.285
20
-169.914
11
125.38
21
-170.295
0
LINE
8
BLACK
6
CONTINUOUS
10
125.38
20
-170.295
11
125.38
21
-170.771
0
LINE
8
BLACK
6
CONTINUOUS
10
125.38
20
-170.771
11
125.285
21
-171.152
0
LINE
8
BLACK
6
CONTINUOUS
10
125.285
20
-171.152
11
125.19
21
-171.343
0
LINE
8
BLACK
6
CONTINUOUS
10
125.19
20
-171.343
11
125.094
21
-171.438
0
LINE
8
BLACK
6
CONTINUOUS
10
125.094
20
-171.438
11
124.904
21
-171.533
0
LINE
8
BLACK
6
CONTINUOUS
10
124.904
20
-171.533
11
124.713
21
-171.533
0
LINE
8
BLACK
6
CONTINUOUS
10
124.713
20
-171.533
11
124.523
21
-171.438
0
LINE
8
BLACK
6
CONTINUOUS
10
124.523
20
-171.438
11
124.428
21
-171.343
0
LINE
8
BLACK
6
CONTINUOUS
10
124.428
20
-171.343
11
124.332
21
-171.152
0
LINE
8
BLACK
6
CONTINUOUS
10
124.332
20
-171.152
11
124.237
21
-170.771
0
LINE
8
BLACK
6
CONTINUOUS
10
124.237
20
-170.771
11
124.237
21
-170.295
0
LINE
8
BLACK
6
CONTINUOUS
10
124.237
20
-170.295
11
124.332
21
-169.914
0
LINE
8
BLACK
6
CONTINUOUS
10
124.332
20
-169.914
11
124.428
21
-169.724
0
LINE
8
BLACK
6
CONTINUOUS
10
124.428
20
-169.724
11
124.523
21
-169.628
0
LINE
8
BLACK
6
CONTINUOUS
10
124.523
20
-169.628
11
124.713
21
-169.533
0
LINE
8
BLACK
6
CONTINUOUS
10
126.237
20
-171.343
11
126.332
21
-171.438
0
LINE
8
BLACK
6
CONTINUOUS
10
126.332
20
-171.438
11
126.237
21
-171.533
0
LINE
8
BLACK
6
CONTINUOUS
10
126.237
20
-171.533
11
126.142
21
-171.438
0
LINE
8
BLACK
6
CONTINUOUS
10
126.142
20
-171.438
11
126.237
21
-171.343
0
LINE
8
BLACK
6
CONTINUOUS
10
126.237
20
-171.343
11
126.237
21
-171.533
0
LINE
8
BLACK
6
CONTINUOUS
10
127.57
20
-169.533
11
127.761
21
-169.533
0
LINE
8
BLACK
6
CONTINUOUS
10
127.761
20
-169.533
11
127.951
21
-169.628
0
LINE
8
BLACK
6
CONTINUOUS
10
127.951
20
-169.628
11
128.047
21
-169.724
0
LINE
8
BLACK
6
CONTINUOUS
10
128.047
20
-169.724
11
128.142
21
-169.914
0
LINE
8
BLACK
6
CONTINUOUS
10
128.142
20
-169.914
11
128.237
21
-170.295
0
LINE
8
BLACK
6
CONTINUOUS
10
128.237
20
-170.295
11
128.237
21
-170.771
0
LINE
8
BLACK
6
CONTINUOUS
10
128.237
20
-170.771
11
128.142
21
-171.152
0
LINE
8
BLACK
6
CONTINUOUS
10
128.142
20
-171.152
11
128.047
21
-171.343
0
LINE
8
BLACK
6
CONTINUOUS
10
128.047
20
-171.343
11
127.951
21
-171.438
0
LINE
8
BLACK
6
CONTINUOUS
10
127.951
20
-171.438
11
127.761
21
-171.533
0
LINE
8
BLACK
6
CONTINUOUS
10
127.761
20
-171.533
11
127.57
21
-171.533
0
LINE
8
BLACK
6
CONTINUOUS
10
127.57
20
-171.533
11
127.38
21
-171.438
0
LINE
8
BLACK
6
CONTINUOUS
10
127.38
20
-171.438
11
127.285
21
-171.343
0
LINE
8
BLACK
6
CONTINUOUS
10
127.285
20
-171.343
11
127.19
21
-171.152
0
LINE
8
BLACK
6
CONTINUOUS
10
127.19
20
-171.152
11
127.094
21
-170.771
0
LINE
8
BLACK
6
CONTINUOUS
10
127.094
20
-170.771
11
127.094
21
-170.295
0
LINE
8
BLACK
6
CONTINUOUS
10
127.094
20
-170.295
11
127.19
21
-169.914
0
LINE
8
BLACK
6
CONTINUOUS
10
127.19
20
-169.914
11
127.285
21
-169.724
0
LINE
8
BLACK
6
CONTINUOUS
10
127.285
20
-169.724
11
127.38
21
-169.628
0
LINE
8
BLACK
6
CONTINUOUS
10
127.38
20
-169.628
11
127.57
21
-169.533
0
LINE
8
BLACK
6
CONTINUOUS
10
130.047
20
-169.533
11
129.094
21
-169.533
0
LINE
8
BLACK
6
CONTINUOUS
10
129.094
20
-169.533
11
128.999
21
-170.485
0
LINE
8
BLACK
6
CONTINUOUS
10
128.999
20
-170.485
11
129.094
21
-170.39
0
LINE
8
BLACK
6
CONTINUOUS
10
129.094
20
-170.39
11
129.285
21
-170.295
0
LINE
8
BLACK
6
CONTINUOUS
10
129.285
20
-170.295
11
129.761
21
-170.295
0
LINE
8
BLACK
6
CONTINUOUS
10
129.761
20
-170.295
11
129.951
21
-170.39
0
LINE
8
BLACK
6
CONTINUOUS
10
129.951
20
-170.39
11
130.047
21
-170.485
0
LINE
8
BLACK
6
CONTINUOUS
10
130.047
20
-170.485
11
130.142
21
-170.676
0
LINE
8
BLACK
6
CONTINUOUS
10
130.142
20
-170.676
11
130.142
21
-171.152
0
LINE
8
BLACK
6
CONTINUOUS
10
130.142
20
-171.152
11
130.047
21
-171.343
0
LINE
8
BLACK
6
CONTINUOUS
10
130.047
20
-171.343
11
129.951
21
-171.438
0
LINE
8
BLACK
6
CONTINUOUS
10
129.951
20
-171.438
11
129.761
21
-171.533
0
LINE
8
BLACK
6
CONTINUOUS
10
129.761
20
-171.533
11
129.285
21
-171.533
0
LINE
8
BLACK
6
CONTINUOUS
10
129.285
20
-171.533
11
129.094
21
-171.438
0
LINE
8
BLACK
6
CONTINUOUS
10
129.094
20
-171.438
11
128.999
21
-171.343
0
LINE
8
BLACK
6
CONTINUOUS
10
132.047
20
-171.533
11
130.904
21
-171.533
0
LINE
8
BLACK
6
CONTINUOUS
10
131.475
20
-171.533
11
131.475
21
-169.533
0
LINE
8
BLACK
6
CONTINUOUS
10
131.475
20
-169.533
11
131.285
21
-169.819
0
LINE
8
BLACK
6
CONTINUOUS
10
131.285
20
-169.819
11
131.094
21
-170.009
0
LINE
8
BLACK
6
CONTINUOUS
10
131.094
20
-170.009
11
130.904
21
-170.105
0
LINE
8
BLACK
6
CONTINUOUS
10
132.809
20
-169.724
11
132.904
21
-169.628
0
LINE
8
BLACK
6
CONTINUOUS
10
132.904
20
-169.628
11
133.094
21
-169.533
0
LINE
8
BLACK
6
CONTINUOUS
10
133.094
20
-169.533
11
133.57
21
-169.533
0
LINE
8
BLACK
6
CONTINUOUS
10
133.57
20
-169.533
11
133.761
21
-169.628
0
LINE
8
BLACK
6
CONTINUOUS
10
133.761
20
-169.628
11
133.856
21
-169.724
0
LINE
8
BLACK
6
CONTINUOUS
10
133.856
20
-169.724
11
133.951
21
-169.914
0
LINE
8
BLACK
6
CONTINUOUS
10
133.951
20
-169.914
11
133.951
21
-170.105
0
LINE
8
BLACK
6
CONTINUOUS
10
133.951
20
-170.105
11
133.856
21
-170.39
0
LINE
8
BLACK
6
CONTINUOUS
10
133.856
20
-170.39
11
132.713
21
-171.533
0
LINE
8
BLACK
6
CONTINUOUS
10
132.713
20
-171.533
11
133.951
21
-171.533
0
LINE
8
BLACK
6
CONTINUOUS
10
134.713
20
-169.533
11
134.713
21
-169.914
0
LINE
8
BLACK
6
CONTINUOUS
10
135.475
20
-169.533
11
135.475
21
-169.914
0
LINE
8
BLACK
6
CONTINUOUS
10
138.428
20
-172.295
11
138.332
21
-172.2
0
LINE
8
BLACK
6
CONTINUOUS
10
138.332
20
-172.2
11
138.142
21
-171.914
0
LINE
8
BLACK
6
CONTINUOUS
10
138.142
20
-171.914
11
138.047
21
-171.724
0
LINE
8
BLACK
6
CONTINUOUS
10
138.047
20
-171.724
11
137.951
21
-171.438
0
LINE
8
BLACK
6
CONTINUOUS
10
137.951
20
-171.438
11
137.856
21
-170.962
0
LINE
8
BLACK
6
CONTINUOUS
10
137.856
20
-170.962
11
137.856
21
-170.581
0
LINE
8
BLACK
6
CONTINUOUS
10
137.856
20
-170.581
11
137.951
21
-170.105
0
LINE
8
BLACK
6
CONTINUOUS
10
137.951
20
-170.105
11
138.047
21
-169.819
0
LINE
8
BLACK
6
CONTINUOUS
10
138.047
20
-169.819
11
138.142
21
-169.628
0
LINE
8
BLACK
6
CONTINUOUS
10
138.142
20
-169.628
11
138.332
21
-169.343
0
LINE
8
BLACK
6
CONTINUOUS
10
138.332
20
-169.343
11
138.428
21
-169.247
0
LINE
8
BLACK
6
CONTINUOUS
10
139.094
20
-169.724
11
139.19
21
-169.628
0
LINE
8
BLACK
6
CONTINUOUS
10
139.19
20
-169.628
11
139.38
21
-169.533
0
LINE
8
BLACK
6
CONTINUOUS
10
139.38
20
-169.533
11
139.856
21
-169.533
0
LINE
8
BLACK
6
CONTINUOUS
10
139.856
20
-169.533
11
140.047
21
-169.628
0
LINE
8
BLACK
6
CONTINUOUS
10
140.047
20
-169.628
11
140.142
21
-169.724
0
LINE
8
BLACK
6
CONTINUOUS
10
140.142
20
-169.724
11
140.237
21
-169.914
0
LINE
8
BLACK
6
CONTINUOUS
10
140.237
20
-169.914
11
140.237
21
-170.105
0
LINE
8
BLACK
6
CONTINUOUS
10
140.237
20
-170.105
11
140.142
21
-170.39
0
LINE
8
BLACK
6
CONTINUOUS
10
140.142
20
-170.39
11
138.999
21
-171.533
0
LINE
8
BLACK
6
CONTINUOUS
10
138.999
20
-171.533
11
140.237
21
-171.533
0
LINE
8
BLACK
6
CONTINUOUS
10
142.142
20
-171.533
11
140.999
21
-171.533
0
LINE
8
BLACK
6
CONTINUOUS
10
141.57
20
-171.533
11
141.57
21
-169.533
0
LINE
8
BLACK
6
CONTINUOUS
10
141.57
20
-169.533
11
141.38
21
-169.819
0
LINE
8
BLACK
6
CONTINUOUS
10
141.38
20
-169.819
11
141.19
21
-170.009
0
LINE
8
BLACK
6
CONTINUOUS
10
141.19
20
-170.009
11
140.999
21
-170.105
0
LINE
8
BLACK
6
CONTINUOUS
10
144.523
20
-171.533
11
144.523
21
-169.533
0
LINE
8
BLACK
6
CONTINUOUS
10
145.38
20
-171.533
11
145.38
21
-170.485
0
LINE
8
BLACK
6
CONTINUOUS
10
145.38
20
-170.485
11
145.285
21
-170.295
0
LINE
8
BLACK
6
CONTINUOUS
10
145.285
20
-170.295
11
145.094
21
-170.2
0
LINE
8
BLACK
6
CONTINUOUS
10
145.094
20
-170.2
11
144.809
21
-170.2
0
LINE
8
BLACK
6
CONTINUOUS
10
144.809
20
-170.2
11
144.618
21
-170.295
0
LINE
8
BLACK
6
CONTINUOUS
10
144.618
20
-170.295
11
144.523
21
-170.39
0
LINE
8
BLACK
6
CONTINUOUS
10
146.618
20
-171.533
11
146.428
21
-171.438
0
LINE
8
BLACK
6
CONTINUOUS
10
146.428
20
-171.438
11
146.332
21
-171.343
0
LINE
8
BLACK
6
CONTINUOUS
10
146.332
20
-171.343
11
146.237
21
-171.152
0
LINE
8
BLACK
6
CONTINUOUS
10
146.237
20
-171.152
11
146.237
21
-170.581
0
LINE
8
BLACK
6
CONTINUOUS
10
146.237
20
-170.581
11
146.332
21
-170.39
0
LINE
8
BLACK
6
CONTINUOUS
10
146.332
20
-170.39
11
146.428
21
-170.295
0
LINE
8
BLACK
6
CONTINUOUS
10
146.428
20
-170.295
11
146.618
21
-170.2
0
LINE
8
BLACK
6
CONTINUOUS
10
146.618
20
-170.2
11
146.904
21
-170.2
0
LINE
8
BLACK
6
CONTINUOUS
10
146.904
20
-170.2
11
147.094
21
-170.295
0
LINE
8
BLACK
6
CONTINUOUS
10
147.094
20
-170.295
11
147.19
21
-170.39
0
LINE
8
BLACK
6
CONTINUOUS
10
147.19
20
-170.39
11
147.285
21
-170.581
0
LINE
8
BLACK
6
CONTINUOUS
10
147.285
20
-170.581
11
147.285
21
-171.152
0
LINE
8
BLACK
6
CONTINUOUS
10
147.285
20
-171.152
11
147.19
21
-171.343
0
LINE
8
BLACK
6
CONTINUOUS
10
147.19
20
-171.343
11
147.094
21
-171.438
0
LINE
8
BLACK
6
CONTINUOUS
10
147.094
20
-171.438
11
146.904
21
-171.533
0
LINE
8
BLACK
6
CONTINUOUS
10
146.904
20
-171.533
11
146.618
21
-171.533
0
LINE
8
BLACK
6
CONTINUOUS
10
148.428
20
-171.533
11
148.237
21
-171.438
0
LINE
8
BLACK
6
CONTINUOUS
10
148.237
20
-171.438
11
148.142
21
-171.247
0
LINE
8
BLACK
6
CONTINUOUS
10
148.142
20
-171.247
11
148.142
21
-169.533
0
LINE
8
BLACK
6
CONTINUOUS
10
149.951
20
-171.438
11
149.761
21
-171.533
0
LINE
8
BLACK
6
CONTINUOUS
10
149.761
20
-171.533
11
149.38
21
-171.533
0
LINE
8
BLACK
6
CONTINUOUS
10
149.38
20
-171.533
11
149.19
21
-171.438
0
LINE
8
BLACK
6
CONTINUOUS
10
149.19
20
-171.438
11
149.094
21
-171.247
0
LINE
8
BLACK
6
CONTINUOUS
10
149.094
20
-171.247
11
149.094
21
-170.485
0
LINE
8
BLACK
6
CONTINUOUS
10
149.094
20
-170.485
11
149.19
21
-170.295
0
LINE
8
BLACK
6
CONTINUOUS
10
149.19
20
-170.295
11
149.38
21
-170.2
0
LINE
8
BLACK
6
CONTINUOUS
10
149.38
20
-170.2
11
149.761
21
-170.2
0
LINE
8
BLACK
6
CONTINUOUS
10
149.761
20
-170.2
11
149.951
21
-170.295
0
LINE
8
BLACK
6
CONTINUOUS
10
149.951
20
-170.295
11
150.047
21
-170.485
0
LINE
8
BLACK
6
CONTINUOUS
10
150.047
20
-170.485
11
150.047
21
-170.676
0
LINE
8
BLACK
6
CONTINUOUS
10
150.047
20
-170.676
11
149.094
21
-170.866
0
LINE
8
BLACK
6
CONTINUOUS
10
150.809
20
-171.438
11
150.999
21
-171.533
0
LINE
8
BLACK
6
CONTINUOUS
10
150.999
20
-171.533
11
151.38
21
-171.533
0
LINE
8
BLACK
6
CONTINUOUS
10
151.38
20
-171.533
11
151.57
21
-171.438
0
LINE
8
BLACK
6
CONTINUOUS
10
151.57
20
-171.438
11
151.666
21
-171.247
0
LINE
8
BLACK
6
CONTINUOUS
10
151.666
20
-171.247
11
151.666
21
-171.152
0
LINE
8
BLACK
6
CONTINUOUS
10
151.666
20
-171.152
11
151.57
21
-170.962
0
LINE
8
BLACK
6
CONTINUOUS
10
151.57
20
-170.962
11
151.38
21
-170.866
0
LINE
8
BLACK
6
CONTINUOUS
10
151.38
20
-170.866
11
151.094
21
-170.866
0
LINE
8
BLACK
6
CONTINUOUS
10
151.094
20
-170.866
11
150.904
21
-170.771
0
LINE
8
BLACK
6
CONTINUOUS
10
150.904
20
-170.771
11
150.809
21
-170.581
0
LINE
8
BLACK
6
CONTINUOUS
10
150.809
20
-170.581
11
150.809
21
-170.485
0
LINE
8
BLACK
6
CONTINUOUS
10
150.809
20
-170.485
11
150.904
21
-170.295
0
LINE
8
BLACK
6
CONTINUOUS
10
150.904
20
-170.295
11
151.094
21
-170.2
0
LINE
8
BLACK
6
CONTINUOUS
10
151.094
20
-170.2
11
151.38
21
-170.2
0
LINE
8
BLACK
6
CONTINUOUS
10
151.38
20
-170.2
11
151.57
21
-170.295
0
LINE
8
BLACK
6
CONTINUOUS
10
152.332
20
-172.295
11
152.428
21
-172.2
0
LINE
8
BLACK
6
CONTINUOUS
10
152.428
20
-172.2
11
152.618
21
-171.914
0
LINE
8
BLACK
6
CONTINUOUS
10
152.618
20
-171.914
11
152.713
21
-171.724
0
LINE
8
BLACK
6
CONTINUOUS
10
152.713
20
-171.724
11
152.809
21
-171.438
0
LINE
8
BLACK
6
CONTINUOUS
10
152.809
20
-171.438
11
152.904
21
-170.962
0
LINE
8
BLACK
6
CONTINUOUS
10
152.904
20
-170.962
11
152.904
21
-170.581
0
LINE
8
BLACK
6
CONTINUOUS
10
152.904
20
-170.581
11
152.809
21
-170.105
0
LINE
8
BLACK
6
CONTINUOUS
10
152.809
20
-170.105
11
152.713
21
-169.819
0
LINE
8
BLACK
6
CONTINUOUS
10
152.713
20
-169.819
11
152.618
21
-169.628
0
LINE
8
BLACK
6
CONTINUOUS
10
152.618
20
-169.628
11
152.428
21
-169.343
0
LINE
8
BLACK
6
CONTINUOUS
10
152.428
20
-169.343
11
152.332
21
-169.247
  0
ENDSEC
  0
EOF
