  0
SECTION
  2
HEADER
  9
$ANGBASE
  50
0.0
  9
$ANGDIR
  70
1
  9
$MEASUREMENT
  70
1
  0
ENDSEC
  0
SECTION
  2
TABLES
  0
TABLE
  2
LTYPE
  70
4
  0
LTYPE
  5
40F
  2
CONTINUOUS
  70
0
  3
Solid line
  72
65
  73
0
  40
0.0
  0
LTYPE
  5
410
  2
DASHDOT
 70
0
  3
Dash Dot ____ _ ____ _
 72
65
 73
4
 40
2.0
 49
1.25
 49
-0.25
 49
0.25
 49
-0.25
  0
LTYPE
  5
411
  2
DASHED
 70
0
  3
Dashed __ __ __ __ __
 72
65
 73
2
 40
0.75
 49
0.5
 49
-0.25
  0
LTYPE
  5
43B
  2
DOTTED
 70
0
  3
Dotted .  .  .  .
 72
65
 73
2
 40
0.2
 49
0.0
 49
-0.2
  0
ENDTAB
  0
TABLE
  2
STYLE
  70
4
  0
STYLE
  2
KICAD
  70
0
  40
0
  41
1
  42
1
  50
0
  71
0
  3
isocp.shx
  0
STYLE
  2
KICADB
  70
0
  40
0
  41
1
  42
1
  50
0
  71
0
  3
isocp.shx
  0
STYLE
  2
KICADI
  70
0
  40
0
  41
1
  42
1
  50
15
  71
0
  3
isocp.shx
  0
STYLE
  2
KICADBI
  70
0
  40
0
  41
1
  42
1
  50
15
  71
0
  3
isocp.shx
  0
ENDTAB
  0
TABLE
  2
LAYER
  70
1
  0
LAYER
  2
BLACK
  70
0
  62
7
  6
CONTINUOUS
  0
ENDTAB
  0
ENDSEC
  0
SECTION
  2
ENTITIES
0
ARC
8
BLACK
10
187.563
20
-27.015
40
4.572
50
-0
51
90
0
LINE
8
BLACK
6
CONTINUOUS
10
126.28
20
-136.235
11
126.288
21
-146.396
0
ARC
8
BLACK
10
196.704
20
-59.5517
40
4.5974
50
-180.308
51
-96.3398
0
LINE
8
BLACK
6
CONTINUOUS
10
107.299
20
-22.443
11
187.563
21
-22.443
0
ARC
8
BLACK
10
177.403
20
-146.395
40
4.572
50
-180
51
-90
0
ARC
8
BLACK
10
168.259
20
-136.235
40
4.572
50
-0
51
90
0
LINE
8
BLACK
6
CONTINUOUS
10
102.727
20
-146.395
11
102.727
21
-27.015
0
ARC
8
BLACK
10
130.852
20
-136.235
40
4.57201
50
90.0001
51
180
0
LINE
8
BLACK
6
CONTINUOUS
10
192.135
20
-27.015
11
192.107
21
-59.527
0
LINE
8
BLACK
6
CONTINUOUS
10
200.263
20
-68.671
11
200.263
21
-146.395
0
ARC
8
BLACK
10
195.691
20
-146.395
40
4.572
50
-90
51
-0
0
LINE
8
BLACK
6
CONTINUOUS
10
177.403
20
-150.967
11
195.691
21
-150.967
0
LINE
8
BLACK
6
CONTINUOUS
10
168.259
20
-131.663
11
130.852
21
-131.663
0
ARC
8
BLACK
10
107.299
20
-27.015
40
4.572
50
90
51
180
0
ARC
8
BLACK
10
107.299
20
-146.395
40
4.572
50
-180
51
-90
0
LINE
8
BLACK
6
CONTINUOUS
10
121.716
20
-150.968
11
107.299
21
-150.967
0
LINE
8
BLACK
6
CONTINUOUS
10
172.831
20
-146.395
11
172.831
21
-136.235
0
ARC
8
BLACK
10
121.716
20
-146.396
40
4.572
50
-89.9999
51
-3.75956e-05
0
ARC
8
BLACK
10
195.687
20
-68.6709
40
4.57563
50
-0.00125218
51
83.6139
0
LINE
8
BLACK
6
CONTINUOUS
10
108.747
20
-33.543
11
111.947
21
-36.743
0
LINE
8
BLACK
6
CONTINUOUS
10
111.947
20
-33.543
11
108.747
21
-36.743
0
LINE
8
BLACK
6
CONTINUOUS
10
108.747
20
-138.191
11
111.947
21
-141.391
0
LINE
8
BLACK
6
CONTINUOUS
10
111.947
20
-138.191
11
108.747
21
-141.391
0
LINE
8
BLACK
6
CONTINUOUS
10
176.819
20
-138.191
11
180.019
21
-141.391
0
LINE
8
BLACK
6
CONTINUOUS
10
180.019
20
-138.191
11
176.819
21
-141.391
0
LINE
8
BLACK
6
CONTINUOUS
10
184.947
20
-33.543
11
188.147
21
-36.743
0
LINE
8
BLACK
6
CONTINUOUS
10
188.147
20
-33.543
11
184.947
21
-36.743
0
LINE
8
BLACK
6
CONTINUOUS
10
105.285
20
-154.133
11
105.285
21
-152.133
0
LINE
8
BLACK
6
CONTINUOUS
10
105.285
20
-152.133
11
105.761
21
-152.133
0
LINE
8
BLACK
6
CONTINUOUS
10
105.761
20
-152.133
11
106.047
21
-152.228
0
LINE
8
BLACK
6
CONTINUOUS
10
106.047
20
-152.228
11
106.237
21
-152.419
0
LINE
8
BLACK
6
CONTINUOUS
10
106.237
20
-152.419
11
106.332
21
-152.609
0
LINE
8
BLACK
6
CONTINUOUS
10
106.332
20
-152.609
11
106.428
21
-152.99
0
LINE
8
BLACK
6
CONTINUOUS
10
106.428
20
-152.99
11
106.428
21
-153.276
0
LINE
8
BLACK
6
CONTINUOUS
10
106.428
20
-153.276
11
106.332
21
-153.657
0
LINE
8
BLACK
6
CONTINUOUS
10
106.332
20
-153.657
11
106.237
21
-153.847
0
LINE
8
BLACK
6
CONTINUOUS
10
106.237
20
-153.847
11
106.047
21
-154.038
0
LINE
8
BLACK
6
CONTINUOUS
10
106.047
20
-154.038
11
105.761
21
-154.133
0
LINE
8
BLACK
6
CONTINUOUS
10
105.761
20
-154.133
11
105.285
21
-154.133
0
LINE
8
BLACK
6
CONTINUOUS
10
107.285
20
-154.133
11
107.285
21
-152.8
0
LINE
8
BLACK
6
CONTINUOUS
10
107.285
20
-153.181
11
107.38
21
-152.99
0
LINE
8
BLACK
6
CONTINUOUS
10
107.38
20
-152.99
11
107.475
21
-152.895
0
LINE
8
BLACK
6
CONTINUOUS
10
107.475
20
-152.895
11
107.666
21
-152.8
0
LINE
8
BLACK
6
CONTINUOUS
10
107.666
20
-152.8
11
107.856
21
-152.8
0
LINE
8
BLACK
6
CONTINUOUS
10
108.523
20
-154.133
11
108.523
21
-152.8
0
LINE
8
BLACK
6
CONTINUOUS
10
108.523
20
-152.133
11
108.428
21
-152.228
0
LINE
8
BLACK
6
CONTINUOUS
10
108.428
20
-152.228
11
108.523
21
-152.324
0
LINE
8
BLACK
6
CONTINUOUS
10
108.523
20
-152.324
11
108.618
21
-152.228
0
LINE
8
BLACK
6
CONTINUOUS
10
108.618
20
-152.228
11
108.523
21
-152.133
0
LINE
8
BLACK
6
CONTINUOUS
10
108.523
20
-152.133
11
108.523
21
-152.324
0
LINE
8
BLACK
6
CONTINUOUS
10
109.761
20
-154.133
11
109.57
21
-154.038
0
LINE
8
BLACK
6
CONTINUOUS
10
109.57
20
-154.038
11
109.475
21
-153.847
0
LINE
8
BLACK
6
CONTINUOUS
10
109.475
20
-153.847
11
109.475
21
-152.133
0
LINE
8
BLACK
6
CONTINUOUS
10
110.809
20
-154.133
11
110.618
21
-154.038
0
LINE
8
BLACK
6
CONTINUOUS
10
110.618
20
-154.038
11
110.523
21
-153.847
0
LINE
8
BLACK
6
CONTINUOUS
10
110.523
20
-153.847
11
110.523
21
-152.133
0
LINE
8
BLACK
6
CONTINUOUS
10
113.094
20
-154.133
11
113.094
21
-152.133
0
LINE
8
BLACK
6
CONTINUOUS
10
113.094
20
-152.133
11
113.761
21
-153.562
0
LINE
8
BLACK
6
CONTINUOUS
10
113.761
20
-153.562
11
114.428
21
-152.133
0
LINE
8
BLACK
6
CONTINUOUS
10
114.428
20
-152.133
11
114.428
21
-154.133
0
LINE
8
BLACK
6
CONTINUOUS
10
116.237
20
-154.133
11
116.237
21
-153.085
0
LINE
8
BLACK
6
CONTINUOUS
10
116.237
20
-153.085
11
116.142
21
-152.895
0
LINE
8
BLACK
6
CONTINUOUS
10
116.142
20
-152.895
11
115.951
21
-152.8
0
LINE
8
BLACK
6
CONTINUOUS
10
115.951
20
-152.8
11
115.57
21
-152.8
0
LINE
8
BLACK
6
CONTINUOUS
10
115.57
20
-152.8
11
115.38
21
-152.895
0
LINE
8
BLACK
6
CONTINUOUS
10
116.237
20
-154.038
11
116.047
21
-154.133
0
LINE
8
BLACK
6
CONTINUOUS
10
116.047
20
-154.133
11
115.57
21
-154.133
0
LINE
8
BLACK
6
CONTINUOUS
10
115.57
20
-154.133
11
115.38
21
-154.038
0
LINE
8
BLACK
6
CONTINUOUS
10
115.38
20
-154.038
11
115.285
21
-153.847
0
LINE
8
BLACK
6
CONTINUOUS
10
115.285
20
-153.847
11
115.285
21
-153.657
0
LINE
8
BLACK
6
CONTINUOUS
10
115.285
20
-153.657
11
115.38
21
-153.466
0
LINE
8
BLACK
6
CONTINUOUS
10
115.38
20
-153.466
11
115.57
21
-153.371
0
LINE
8
BLACK
6
CONTINUOUS
10
115.57
20
-153.371
11
116.047
21
-153.371
0
LINE
8
BLACK
6
CONTINUOUS
10
116.047
20
-153.371
11
116.237
21
-153.276
0
LINE
8
BLACK
6
CONTINUOUS
10
117.19
20
-152.8
11
117.19
21
-154.8
0
LINE
8
BLACK
6
CONTINUOUS
10
117.19
20
-152.895
11
117.38
21
-152.8
0
LINE
8
BLACK
6
CONTINUOUS
10
117.38
20
-152.8
11
117.761
21
-152.8
0
LINE
8
BLACK
6
CONTINUOUS
10
117.761
20
-152.8
11
117.951
21
-152.895
0
LINE
8
BLACK
6
CONTINUOUS
10
117.951
20
-152.895
11
118.047
21
-152.99
0
LINE
8
BLACK
6
CONTINUOUS
10
118.047
20
-152.99
11
118.142
21
-153.181
0
LINE
8
BLACK
6
CONTINUOUS
10
118.142
20
-153.181
11
118.142
21
-153.752
0
LINE
8
BLACK
6
CONTINUOUS
10
118.142
20
-153.752
11
118.047
21
-153.943
0
LINE
8
BLACK
6
CONTINUOUS
10
118.047
20
-153.943
11
117.951
21
-154.038
0
LINE
8
BLACK
6
CONTINUOUS
10
117.951
20
-154.038
11
117.761
21
-154.133
0
LINE
8
BLACK
6
CONTINUOUS
10
117.761
20
-154.133
11
117.38
21
-154.133
0
LINE
8
BLACK
6
CONTINUOUS
10
117.38
20
-154.133
11
117.19
21
-154.038
0
LINE
8
BLACK
6
CONTINUOUS
10
118.999
20
-153.943
11
119.094
21
-154.038
0
LINE
8
BLACK
6
CONTINUOUS
10
119.094
20
-154.038
11
118.999
21
-154.133
0
LINE
8
BLACK
6
CONTINUOUS
10
118.999
20
-154.133
11
118.904
21
-154.038
0
LINE
8
BLACK
6
CONTINUOUS
10
118.904
20
-154.038
11
118.999
21
-153.943
0
LINE
8
BLACK
6
CONTINUOUS
10
118.999
20
-153.943
11
118.999
21
-154.133
0
LINE
8
BLACK
6
CONTINUOUS
10
118.999
20
-152.895
11
119.094
21
-152.99
0
LINE
8
BLACK
6
CONTINUOUS
10
119.094
20
-152.99
11
118.999
21
-153.085
0
LINE
8
BLACK
6
CONTINUOUS
10
118.999
20
-153.085
11
118.904
21
-152.99
0
LINE
8
BLACK
6
CONTINUOUS
10
118.904
20
-152.99
11
118.999
21
-152.895
0
LINE
8
BLACK
6
CONTINUOUS
10
118.999
20
-152.895
11
118.999
21
-153.085
0
LINE
8
BLACK
6
CONTINUOUS
10
100.677
20
-156.418
11
102.677
21
-158.418
0
LINE
8
BLACK
6
CONTINUOUS
10
102.677
20
-156.418
11
100.677
21
-158.418
0
LINE
8
BLACK
6
CONTINUOUS
10
105.094
20
-156.333
11
106.332
21
-156.333
0
LINE
8
BLACK
6
CONTINUOUS
10
106.332
20
-156.333
11
105.666
21
-157.095
0
LINE
8
BLACK
6
CONTINUOUS
10
105.666
20
-157.095
11
105.951
21
-157.095
0
LINE
8
BLACK
6
CONTINUOUS
10
105.951
20
-157.095
11
106.142
21
-157.19
0
LINE
8
BLACK
6
CONTINUOUS
10
106.142
20
-157.19
11
106.237
21
-157.285
0
LINE
8
BLACK
6
CONTINUOUS
10
106.237
20
-157.285
11
106.332
21
-157.476
0
LINE
8
BLACK
6
CONTINUOUS
10
106.332
20
-157.476
11
106.332
21
-157.952
0
LINE
8
BLACK
6
CONTINUOUS
10
106.332
20
-157.952
11
106.237
21
-158.143
0
LINE
8
BLACK
6
CONTINUOUS
10
106.237
20
-158.143
11
106.142
21
-158.238
0
LINE
8
BLACK
6
CONTINUOUS
10
106.142
20
-158.238
11
105.951
21
-158.333
0
LINE
8
BLACK
6
CONTINUOUS
10
105.951
20
-158.333
11
105.38
21
-158.333
0
LINE
8
BLACK
6
CONTINUOUS
10
105.38
20
-158.333
11
105.19
21
-158.238
0
LINE
8
BLACK
6
CONTINUOUS
10
105.19
20
-158.238
11
105.094
21
-158.143
0
LINE
8
BLACK
6
CONTINUOUS
10
107.19
20
-158.143
11
107.285
21
-158.238
0
LINE
8
BLACK
6
CONTINUOUS
10
107.285
20
-158.238
11
107.19
21
-158.333
0
LINE
8
BLACK
6
CONTINUOUS
10
107.19
20
-158.333
11
107.094
21
-158.238
0
LINE
8
BLACK
6
CONTINUOUS
10
107.094
20
-158.238
11
107.19
21
-158.143
0
LINE
8
BLACK
6
CONTINUOUS
10
107.19
20
-158.143
11
107.19
21
-158.333
0
LINE
8
BLACK
6
CONTINUOUS
10
108.047
20
-156.524
11
108.142
21
-156.428
0
LINE
8
BLACK
6
CONTINUOUS
10
108.142
20
-156.428
11
108.332
21
-156.333
0
LINE
8
BLACK
6
CONTINUOUS
10
108.332
20
-156.333
11
108.809
21
-156.333
0
LINE
8
BLACK
6
CONTINUOUS
10
108.809
20
-156.333
11
108.999
21
-156.428
0
LINE
8
BLACK
6
CONTINUOUS
10
108.999
20
-156.428
11
109.094
21
-156.524
0
LINE
8
BLACK
6
CONTINUOUS
10
109.094
20
-156.524
11
109.19
21
-156.714
0
LINE
8
BLACK
6
CONTINUOUS
10
109.19
20
-156.714
11
109.19
21
-156.905
0
LINE
8
BLACK
6
CONTINUOUS
10
109.19
20
-156.905
11
109.094
21
-157.19
0
LINE
8
BLACK
6
CONTINUOUS
10
109.094
20
-157.19
11
107.951
21
-158.333
0
LINE
8
BLACK
6
CONTINUOUS
10
107.951
20
-158.333
11
109.19
21
-158.333
0
LINE
8
BLACK
6
CONTINUOUS
10
110.428
20
-156.333
11
110.618
21
-156.333
0
LINE
8
BLACK
6
CONTINUOUS
10
110.618
20
-156.333
11
110.809
21
-156.428
0
LINE
8
BLACK
6
CONTINUOUS
10
110.809
20
-156.428
11
110.904
21
-156.524
0
LINE
8
BLACK
6
CONTINUOUS
10
110.904
20
-156.524
11
110.999
21
-156.714
0
LINE
8
BLACK
6
CONTINUOUS
10
110.999
20
-156.714
11
111.094
21
-157.095
0
LINE
8
BLACK
6
CONTINUOUS
10
111.094
20
-157.095
11
111.094
21
-157.571
0
LINE
8
BLACK
6
CONTINUOUS
10
111.094
20
-157.571
11
110.999
21
-157.952
0
LINE
8
BLACK
6
CONTINUOUS
10
110.999
20
-157.952
11
110.904
21
-158.143
0
LINE
8
BLACK
6
CONTINUOUS
10
110.904
20
-158.143
11
110.809
21
-158.238
0
LINE
8
BLACK
6
CONTINUOUS
10
110.809
20
-158.238
11
110.618
21
-158.333
0
LINE
8
BLACK
6
CONTINUOUS
10
110.618
20
-158.333
11
110.428
21
-158.333
0
LINE
8
BLACK
6
CONTINUOUS
10
110.428
20
-158.333
11
110.237
21
-158.238
0
LINE
8
BLACK
6
CONTINUOUS
10
110.237
20
-158.238
11
110.142
21
-158.143
0
LINE
8
BLACK
6
CONTINUOUS
10
110.142
20
-158.143
11
110.047
21
-157.952
0
LINE
8
BLACK
6
CONTINUOUS
10
110.047
20
-157.952
11
109.951
21
-157.571
0
LINE
8
BLACK
6
CONTINUOUS
10
109.951
20
-157.571
11
109.951
21
-157.095
0
LINE
8
BLACK
6
CONTINUOUS
10
109.951
20
-157.095
11
110.047
21
-156.714
0
LINE
8
BLACK
6
CONTINUOUS
10
110.047
20
-156.714
11
110.142
21
-156.524
0
LINE
8
BLACK
6
CONTINUOUS
10
110.142
20
-156.524
11
110.237
21
-156.428
0
LINE
8
BLACK
6
CONTINUOUS
10
110.237
20
-156.428
11
110.428
21
-156.333
0
LINE
8
BLACK
6
CONTINUOUS
10
112.332
20
-156.333
11
112.523
21
-156.333
0
LINE
8
BLACK
6
CONTINUOUS
10
112.523
20
-156.333
11
112.713
21
-156.428
0
LINE
8
BLACK
6
CONTINUOUS
10
112.713
20
-156.428
11
112.809
21
-156.524
0
LINE
8
BLACK
6
CONTINUOUS
10
112.809
20
-156.524
11
112.904
21
-156.714
0
LINE
8
BLACK
6
CONTINUOUS
10
112.904
20
-156.714
11
112.999
21
-157.095
0
LINE
8
BLACK
6
CONTINUOUS
10
112.999
20
-157.095
11
112.999
21
-157.571
0
LINE
8
BLACK
6
CONTINUOUS
10
112.999
20
-157.571
11
112.904
21
-157.952
0
LINE
8
BLACK
6
CONTINUOUS
10
112.904
20
-157.952
11
112.809
21
-158.143
0
LINE
8
BLACK
6
CONTINUOUS
10
112.809
20
-158.143
11
112.713
21
-158.238
0
LINE
8
BLACK
6
CONTINUOUS
10
112.713
20
-158.238
11
112.523
21
-158.333
0
LINE
8
BLACK
6
CONTINUOUS
10
112.523
20
-158.333
11
112.332
21
-158.333
0
LINE
8
BLACK
6
CONTINUOUS
10
112.332
20
-158.333
11
112.142
21
-158.238
0
LINE
8
BLACK
6
CONTINUOUS
10
112.142
20
-158.238
11
112.047
21
-158.143
0
LINE
8
BLACK
6
CONTINUOUS
10
112.047
20
-158.143
11
111.951
21
-157.952
0
LINE
8
BLACK
6
CONTINUOUS
10
111.951
20
-157.952
11
111.856
21
-157.571
0
LINE
8
BLACK
6
CONTINUOUS
10
111.856
20
-157.571
11
111.856
21
-157.095
0
LINE
8
BLACK
6
CONTINUOUS
10
111.856
20
-157.095
11
111.951
21
-156.714
0
LINE
8
BLACK
6
CONTINUOUS
10
111.951
20
-156.714
11
112.047
21
-156.524
0
LINE
8
BLACK
6
CONTINUOUS
10
112.047
20
-156.524
11
112.142
21
-156.428
0
LINE
8
BLACK
6
CONTINUOUS
10
112.142
20
-156.428
11
112.332
21
-156.333
0
LINE
8
BLACK
6
CONTINUOUS
10
113.856
20
-158.333
11
113.856
21
-157
0
LINE
8
BLACK
6
CONTINUOUS
10
113.856
20
-157.19
11
113.951
21
-157.095
0
LINE
8
BLACK
6
CONTINUOUS
10
113.951
20
-157.095
11
114.142
21
-157
0
LINE
8
BLACK
6
CONTINUOUS
10
114.142
20
-157
11
114.428
21
-157
0
LINE
8
BLACK
6
CONTINUOUS
10
114.428
20
-157
11
114.618
21
-157.095
0
LINE
8
BLACK
6
CONTINUOUS
10
114.618
20
-157.095
11
114.713
21
-157.285
0
LINE
8
BLACK
6
CONTINUOUS
10
114.713
20
-157.285
11
114.713
21
-158.333
0
LINE
8
BLACK
6
CONTINUOUS
10
114.713
20
-157.285
11
114.809
21
-157.095
0
LINE
8
BLACK
6
CONTINUOUS
10
114.809
20
-157.095
11
114.999
21
-157
0
LINE
8
BLACK
6
CONTINUOUS
10
114.999
20
-157
11
115.285
21
-157
0
LINE
8
BLACK
6
CONTINUOUS
10
115.285
20
-157
11
115.475
21
-157.095
0
LINE
8
BLACK
6
CONTINUOUS
10
115.475
20
-157.095
11
115.57
21
-157.285
0
LINE
8
BLACK
6
CONTINUOUS
10
115.57
20
-157.285
11
115.57
21
-158.333
0
LINE
8
BLACK
6
CONTINUOUS
10
116.523
20
-158.333
11
116.523
21
-157
0
LINE
8
BLACK
6
CONTINUOUS
10
116.523
20
-157.19
11
116.618
21
-157.095
0
LINE
8
BLACK
6
CONTINUOUS
10
116.618
20
-157.095
11
116.809
21
-157
0
LINE
8
BLACK
6
CONTINUOUS
10
116.809
20
-157
11
117.094
21
-157
0
LINE
8
BLACK
6
CONTINUOUS
10
117.094
20
-157
11
117.285
21
-157.095
0
LINE
8
BLACK
6
CONTINUOUS
10
117.285
20
-157.095
11
117.38
21
-157.285
0
LINE
8
BLACK
6
CONTINUOUS
10
117.38
20
-157.285
11
117.38
21
-158.333
0
LINE
8
BLACK
6
CONTINUOUS
10
117.38
20
-157.285
11
117.475
21
-157.095
0
LINE
8
BLACK
6
CONTINUOUS
10
117.475
20
-157.095
11
117.666
21
-157
0
LINE
8
BLACK
6
CONTINUOUS
10
117.666
20
-157
11
117.951
21
-157
0
LINE
8
BLACK
6
CONTINUOUS
10
117.951
20
-157
11
118.142
21
-157.095
0
LINE
8
BLACK
6
CONTINUOUS
10
118.142
20
-157.095
11
118.237
21
-157.285
0
LINE
8
BLACK
6
CONTINUOUS
10
118.237
20
-157.285
11
118.237
21
-158.333
0
LINE
8
BLACK
6
CONTINUOUS
10
122.142
20
-156.238
11
120.428
21
-158.809
0
LINE
8
BLACK
6
CONTINUOUS
10
124.713
20
-156.333
11
124.904
21
-156.333
0
LINE
8
BLACK
6
CONTINUOUS
10
124.904
20
-156.333
11
125.094
21
-156.428
0
LINE
8
BLACK
6
CONTINUOUS
10
125.094
20
-156.428
11
125.19
21
-156.524
0
LINE
8
BLACK
6
CONTINUOUS
10
125.19
20
-156.524
11
125.285
21
-156.714
0
LINE
8
BLACK
6
CONTINUOUS
10
125.285
20
-156.714
11
125.38
21
-157.095
0
LINE
8
BLACK
6
CONTINUOUS
10
125.38
20
-157.095
11
125.38
21
-157.571
0
LINE
8
BLACK
6
CONTINUOUS
10
125.38
20
-157.571
11
125.285
21
-157.952
0
LINE
8
BLACK
6
CONTINUOUS
10
125.285
20
-157.952
11
125.19
21
-158.143
0
LINE
8
BLACK
6
CONTINUOUS
10
125.19
20
-158.143
11
125.094
21
-158.238
0
LINE
8
BLACK
6
CONTINUOUS
10
125.094
20
-158.238
11
124.904
21
-158.333
0
LINE
8
BLACK
6
CONTINUOUS
10
124.904
20
-158.333
11
124.713
21
-158.333
0
LINE
8
BLACK
6
CONTINUOUS
10
124.713
20
-158.333
11
124.523
21
-158.238
0
LINE
8
BLACK
6
CONTINUOUS
10
124.523
20
-158.238
11
124.428
21
-158.143
0
LINE
8
BLACK
6
CONTINUOUS
10
124.428
20
-158.143
11
124.332
21
-157.952
0
LINE
8
BLACK
6
CONTINUOUS
10
124.332
20
-157.952
11
124.237
21
-157.571
0
LINE
8
BLACK
6
CONTINUOUS
10
124.237
20
-157.571
11
124.237
21
-157.095
0
LINE
8
BLACK
6
CONTINUOUS
10
124.237
20
-157.095
11
124.332
21
-156.714
0
LINE
8
BLACK
6
CONTINUOUS
10
124.332
20
-156.714
11
124.428
21
-156.524
0
LINE
8
BLACK
6
CONTINUOUS
10
124.428
20
-156.524
11
124.523
21
-156.428
0
LINE
8
BLACK
6
CONTINUOUS
10
124.523
20
-156.428
11
124.713
21
-156.333
0
LINE
8
BLACK
6
CONTINUOUS
10
126.237
20
-158.143
11
126.332
21
-158.238
0
LINE
8
BLACK
6
CONTINUOUS
10
126.332
20
-158.238
11
126.237
21
-158.333
0
LINE
8
BLACK
6
CONTINUOUS
10
126.237
20
-158.333
11
126.142
21
-158.238
0
LINE
8
BLACK
6
CONTINUOUS
10
126.142
20
-158.238
11
126.237
21
-158.143
0
LINE
8
BLACK
6
CONTINUOUS
10
126.237
20
-158.143
11
126.237
21
-158.333
0
LINE
8
BLACK
6
CONTINUOUS
10
128.237
20
-158.333
11
127.094
21
-158.333
0
LINE
8
BLACK
6
CONTINUOUS
10
127.666
20
-158.333
11
127.666
21
-156.333
0
LINE
8
BLACK
6
CONTINUOUS
10
127.666
20
-156.333
11
127.475
21
-156.619
0
LINE
8
BLACK
6
CONTINUOUS
10
127.475
20
-156.619
11
127.285
21
-156.809
0
LINE
8
BLACK
6
CONTINUOUS
10
127.285
20
-156.809
11
127.094
21
-156.905
0
LINE
8
BLACK
6
CONTINUOUS
10
128.999
20
-156.524
11
129.094
21
-156.428
0
LINE
8
BLACK
6
CONTINUOUS
10
129.094
20
-156.428
11
129.285
21
-156.333
0
LINE
8
BLACK
6
CONTINUOUS
10
129.285
20
-156.333
11
129.761
21
-156.333
0
LINE
8
BLACK
6
CONTINUOUS
10
129.761
20
-156.333
11
129.951
21
-156.428
0
LINE
8
BLACK
6
CONTINUOUS
10
129.951
20
-156.428
11
130.047
21
-156.524
0
LINE
8
BLACK
6
CONTINUOUS
10
130.047
20
-156.524
11
130.142
21
-156.714
0
LINE
8
BLACK
6
CONTINUOUS
10
130.142
20
-156.714
11
130.142
21
-156.905
0
LINE
8
BLACK
6
CONTINUOUS
10
130.142
20
-156.905
11
130.047
21
-157.19
0
LINE
8
BLACK
6
CONTINUOUS
10
130.047
20
-157.19
11
128.904
21
-158.333
0
LINE
8
BLACK
6
CONTINUOUS
10
128.904
20
-158.333
11
130.142
21
-158.333
0
LINE
8
BLACK
6
CONTINUOUS
10
131.856
20
-156.333
11
131.475
21
-156.333
0
LINE
8
BLACK
6
CONTINUOUS
10
131.475
20
-156.333
11
131.285
21
-156.428
0
LINE
8
BLACK
6
CONTINUOUS
10
131.285
20
-156.428
11
131.19
21
-156.524
0
LINE
8
BLACK
6
CONTINUOUS
10
131.19
20
-156.524
11
130.999
21
-156.809
0
LINE
8
BLACK
6
CONTINUOUS
10
130.999
20
-156.809
11
130.904
21
-157.19
0
LINE
8
BLACK
6
CONTINUOUS
10
130.904
20
-157.19
11
130.904
21
-157.952
0
LINE
8
BLACK
6
CONTINUOUS
10
130.904
20
-157.952
11
130.999
21
-158.143
0
LINE
8
BLACK
6
CONTINUOUS
10
130.999
20
-158.143
11
131.094
21
-158.238
0
LINE
8
BLACK
6
CONTINUOUS
10
131.094
20
-158.238
11
131.285
21
-158.333
0
LINE
8
BLACK
6
CONTINUOUS
10
131.285
20
-158.333
11
131.666
21
-158.333
0
LINE
8
BLACK
6
CONTINUOUS
10
131.666
20
-158.333
11
131.856
21
-158.238
0
LINE
8
BLACK
6
CONTINUOUS
10
131.856
20
-158.238
11
131.951
21
-158.143
0
LINE
8
BLACK
6
CONTINUOUS
10
131.951
20
-158.143
11
132.047
21
-157.952
0
LINE
8
BLACK
6
CONTINUOUS
10
132.047
20
-157.952
11
132.047
21
-157.476
0
LINE
8
BLACK
6
CONTINUOUS
10
132.047
20
-157.476
11
131.951
21
-157.285
0
LINE
8
BLACK
6
CONTINUOUS
10
131.951
20
-157.285
11
131.856
21
-157.19
0
LINE
8
BLACK
6
CONTINUOUS
10
131.856
20
-157.19
11
131.666
21
-157.095
0
LINE
8
BLACK
6
CONTINUOUS
10
131.666
20
-157.095
11
131.285
21
-157.095
0
LINE
8
BLACK
6
CONTINUOUS
10
131.285
20
-157.095
11
131.094
21
-157.19
0
LINE
8
BLACK
6
CONTINUOUS
10
131.094
20
-157.19
11
130.999
21
-157.285
0
LINE
8
BLACK
6
CONTINUOUS
10
130.999
20
-157.285
11
130.904
21
-157.476
0
LINE
8
BLACK
6
CONTINUOUS
10
133.285
20
-156.333
11
133.475
21
-156.333
0
LINE
8
BLACK
6
CONTINUOUS
10
133.475
20
-156.333
11
133.666
21
-156.428
0
LINE
8
BLACK
6
CONTINUOUS
10
133.666
20
-156.428
11
133.761
21
-156.524
0
LINE
8
BLACK
6
CONTINUOUS
10
133.761
20
-156.524
11
133.856
21
-156.714
0
LINE
8
BLACK
6
CONTINUOUS
10
133.856
20
-156.714
11
133.951
21
-157.095
0
LINE
8
BLACK
6
CONTINUOUS
10
133.951
20
-157.095
11
133.951
21
-157.571
0
LINE
8
BLACK
6
CONTINUOUS
10
133.951
20
-157.571
11
133.856
21
-157.952
0
LINE
8
BLACK
6
CONTINUOUS
10
133.856
20
-157.952
11
133.761
21
-158.143
0
LINE
8
BLACK
6
CONTINUOUS
10
133.761
20
-158.143
11
133.666
21
-158.238
0
LINE
8
BLACK
6
CONTINUOUS
10
133.666
20
-158.238
11
133.475
21
-158.333
0
LINE
8
BLACK
6
CONTINUOUS
10
133.475
20
-158.333
11
133.285
21
-158.333
0
LINE
8
BLACK
6
CONTINUOUS
10
133.285
20
-158.333
11
133.094
21
-158.238
0
LINE
8
BLACK
6
CONTINUOUS
10
133.094
20
-158.238
11
132.999
21
-158.143
0
LINE
8
BLACK
6
CONTINUOUS
10
132.999
20
-158.143
11
132.904
21
-157.952
0
LINE
8
BLACK
6
CONTINUOUS
10
132.904
20
-157.952
11
132.809
21
-157.571
0
LINE
8
BLACK
6
CONTINUOUS
10
132.809
20
-157.571
11
132.809
21
-157.095
0
LINE
8
BLACK
6
CONTINUOUS
10
132.809
20
-157.095
11
132.904
21
-156.714
0
LINE
8
BLACK
6
CONTINUOUS
10
132.904
20
-156.714
11
132.999
21
-156.524
0
LINE
8
BLACK
6
CONTINUOUS
10
132.999
20
-156.524
11
133.094
21
-156.428
0
LINE
8
BLACK
6
CONTINUOUS
10
133.094
20
-156.428
11
133.285
21
-156.333
0
LINE
8
BLACK
6
CONTINUOUS
10
134.713
20
-156.333
11
134.713
21
-156.714
0
LINE
8
BLACK
6
CONTINUOUS
10
135.475
20
-156.333
11
135.475
21
-156.714
0
LINE
8
BLACK
6
CONTINUOUS
10
138.428
20
-159.095
11
138.332
21
-159
0
LINE
8
BLACK
6
CONTINUOUS
10
138.332
20
-159
11
138.142
21
-158.714
0
LINE
8
BLACK
6
CONTINUOUS
10
138.142
20
-158.714
11
138.047
21
-158.524
0
LINE
8
BLACK
6
CONTINUOUS
10
138.047
20
-158.524
11
137.951
21
-158.238
0
LINE
8
BLACK
6
CONTINUOUS
10
137.951
20
-158.238
11
137.856
21
-157.762
0
LINE
8
BLACK
6
CONTINUOUS
10
137.856
20
-157.762
11
137.856
21
-157.381
0
LINE
8
BLACK
6
CONTINUOUS
10
137.856
20
-157.381
11
137.951
21
-156.905
0
LINE
8
BLACK
6
CONTINUOUS
10
137.951
20
-156.905
11
138.047
21
-156.619
0
LINE
8
BLACK
6
CONTINUOUS
10
138.047
20
-156.619
11
138.142
21
-156.428
0
LINE
8
BLACK
6
CONTINUOUS
10
138.142
20
-156.428
11
138.332
21
-156.143
0
LINE
8
BLACK
6
CONTINUOUS
10
138.332
20
-156.143
11
138.428
21
-156.047
0
LINE
8
BLACK
6
CONTINUOUS
10
140.047
20
-157
11
140.047
21
-158.333
0
LINE
8
BLACK
6
CONTINUOUS
10
139.57
20
-156.238
11
139.094
21
-157.666
0
LINE
8
BLACK
6
CONTINUOUS
10
139.094
20
-157.666
11
140.332
21
-157.666
0
LINE
8
BLACK
6
CONTINUOUS
10
142.618
20
-158.333
11
142.618
21
-156.333
0
LINE
8
BLACK
6
CONTINUOUS
10
143.475
20
-158.333
11
143.475
21
-157.285
0
LINE
8
BLACK
6
CONTINUOUS
10
143.475
20
-157.285
11
143.38
21
-157.095
0
LINE
8
BLACK
6
CONTINUOUS
10
143.38
20
-157.095
11
143.19
21
-157
0
LINE
8
BLACK
6
CONTINUOUS
10
143.19
20
-157
11
142.904
21
-157
0
LINE
8
BLACK
6
CONTINUOUS
10
142.904
20
-157
11
142.713
21
-157.095
0
LINE
8
BLACK
6
CONTINUOUS
10
142.713
20
-157.095
11
142.618
21
-157.19
0
LINE
8
BLACK
6
CONTINUOUS
10
144.713
20
-158.333
11
144.523
21
-158.238
0
LINE
8
BLACK
6
CONTINUOUS
10
144.523
20
-158.238
11
144.428
21
-158.143
0
LINE
8
BLACK
6
CONTINUOUS
10
144.428
20
-158.143
11
144.332
21
-157.952
0
LINE
8
BLACK
6
CONTINUOUS
10
144.332
20
-157.952
11
144.332
21
-157.381
0
LINE
8
BLACK
6
CONTINUOUS
10
144.332
20
-157.381
11
144.428
21
-157.19
0
LINE
8
BLACK
6
CONTINUOUS
10
144.428
20
-157.19
11
144.523
21
-157.095
0
LINE
8
BLACK
6
CONTINUOUS
10
144.523
20
-157.095
11
144.713
21
-157
0
LINE
8
BLACK
6
CONTINUOUS
10
144.713
20
-157
11
144.999
21
-157
0
LINE
8
BLACK
6
CONTINUOUS
10
144.999
20
-157
11
145.19
21
-157.095
0
LINE
8
BLACK
6
CONTINUOUS
10
145.19
20
-157.095
11
145.285
21
-157.19
0
LINE
8
BLACK
6
CONTINUOUS
10
145.285
20
-157.19
11
145.38
21
-157.381
0
LINE
8
BLACK
6
CONTINUOUS
10
145.38
20
-157.381
11
145.38
21
-157.952
0
LINE
8
BLACK
6
CONTINUOUS
10
145.38
20
-157.952
11
145.285
21
-158.143
0
LINE
8
BLACK
6
CONTINUOUS
10
145.285
20
-158.143
11
145.19
21
-158.238
0
LINE
8
BLACK
6
CONTINUOUS
10
145.19
20
-158.238
11
144.999
21
-158.333
0
LINE
8
BLACK
6
CONTINUOUS
10
144.999
20
-158.333
11
144.713
21
-158.333
0
LINE
8
BLACK
6
CONTINUOUS
10
146.523
20
-158.333
11
146.332
21
-158.238
0
LINE
8
BLACK
6
CONTINUOUS
10
146.332
20
-158.238
11
146.237
21
-158.047
0
LINE
8
BLACK
6
CONTINUOUS
10
146.237
20
-158.047
11
146.237
21
-156.333
0
LINE
8
BLACK
6
CONTINUOUS
10
148.047
20
-158.238
11
147.856
21
-158.333
0
LINE
8
BLACK
6
CONTINUOUS
10
147.856
20
-158.333
11
147.475
21
-158.333
0
LINE
8
BLACK
6
CONTINUOUS
10
147.475
20
-158.333
11
147.285
21
-158.238
0
LINE
8
BLACK
6
CONTINUOUS
10
147.285
20
-158.238
11
147.19
21
-158.047
0
LINE
8
BLACK
6
CONTINUOUS
10
147.19
20
-158.047
11
147.19
21
-157.285
0
LINE
8
BLACK
6
CONTINUOUS
10
147.19
20
-157.285
11
147.285
21
-157.095
0
LINE
8
BLACK
6
CONTINUOUS
10
147.285
20
-157.095
11
147.475
21
-157
0
LINE
8
BLACK
6
CONTINUOUS
10
147.475
20
-157
11
147.856
21
-157
0
LINE
8
BLACK
6
CONTINUOUS
10
147.856
20
-157
11
148.047
21
-157.095
0
LINE
8
BLACK
6
CONTINUOUS
10
148.047
20
-157.095
11
148.142
21
-157.285
0
LINE
8
BLACK
6
CONTINUOUS
10
148.142
20
-157.285
11
148.142
21
-157.476
0
LINE
8
BLACK
6
CONTINUOUS
10
148.142
20
-157.476
11
147.19
21
-157.666
0
LINE
8
BLACK
6
CONTINUOUS
10
148.904
20
-158.238
11
149.094
21
-158.333
0
LINE
8
BLACK
6
CONTINUOUS
10
149.094
20
-158.333
11
149.475
21
-158.333
0
LINE
8
BLACK
6
CONTINUOUS
10
149.475
20
-158.333
11
149.666
21
-158.238
0
LINE
8
BLACK
6
CONTINUOUS
10
149.666
20
-158.238
11
149.761
21
-158.047
0
LINE
8
BLACK
6
CONTINUOUS
10
149.761
20
-158.047
11
149.761
21
-157.952
0
LINE
8
BLACK
6
CONTINUOUS
10
149.761
20
-157.952
11
149.666
21
-157.762
0
LINE
8
BLACK
6
CONTINUOUS
10
149.666
20
-157.762
11
149.475
21
-157.666
0
LINE
8
BLACK
6
CONTINUOUS
10
149.475
20
-157.666
11
149.19
21
-157.666
0
LINE
8
BLACK
6
CONTINUOUS
10
149.19
20
-157.666
11
148.999
21
-157.571
0
LINE
8
BLACK
6
CONTINUOUS
10
148.999
20
-157.571
11
148.904
21
-157.381
0
LINE
8
BLACK
6
CONTINUOUS
10
148.904
20
-157.381
11
148.904
21
-157.285
0
LINE
8
BLACK
6
CONTINUOUS
10
148.904
20
-157.285
11
148.999
21
-157.095
0
LINE
8
BLACK
6
CONTINUOUS
10
148.999
20
-157.095
11
149.19
21
-157
0
LINE
8
BLACK
6
CONTINUOUS
10
149.19
20
-157
11
149.475
21
-157
0
LINE
8
BLACK
6
CONTINUOUS
10
149.475
20
-157
11
149.666
21
-157.095
0
LINE
8
BLACK
6
CONTINUOUS
10
150.428
20
-159.095
11
150.523
21
-159
0
LINE
8
BLACK
6
CONTINUOUS
10
150.523
20
-159
11
150.713
21
-158.714
0
LINE
8
BLACK
6
CONTINUOUS
10
150.713
20
-158.714
11
150.809
21
-158.524
0
LINE
8
BLACK
6
CONTINUOUS
10
150.809
20
-158.524
11
150.904
21
-158.238
0
LINE
8
BLACK
6
CONTINUOUS
10
150.904
20
-158.238
11
150.999
21
-157.762
0
LINE
8
BLACK
6
CONTINUOUS
10
150.999
20
-157.762
11
150.999
21
-157.381
0
LINE
8
BLACK
6
CONTINUOUS
10
150.999
20
-157.381
11
150.904
21
-156.905
0
LINE
8
BLACK
6
CONTINUOUS
10
150.904
20
-156.905
11
150.809
21
-156.619
0
LINE
8
BLACK
6
CONTINUOUS
10
150.809
20
-156.619
11
150.713
21
-156.428
0
LINE
8
BLACK
6
CONTINUOUS
10
150.713
20
-156.428
11
150.523
21
-156.143
0
LINE
8
BLACK
6
CONTINUOUS
10
150.523
20
-156.143
11
150.428
21
-156.047
0
LINE
8
BLACK
6
CONTINUOUS
10
154.047
20
-159.095
11
153.951
21
-159
0
LINE
8
BLACK
6
CONTINUOUS
10
153.951
20
-159
11
153.761
21
-158.714
0
LINE
8
BLACK
6
CONTINUOUS
10
153.761
20
-158.714
11
153.666
21
-158.524
0
LINE
8
BLACK
6
CONTINUOUS
10
153.666
20
-158.524
11
153.57
21
-158.238
0
LINE
8
BLACK
6
CONTINUOUS
10
153.57
20
-158.238
11
153.475
21
-157.762
0
LINE
8
BLACK
6
CONTINUOUS
10
153.475
20
-157.762
11
153.475
21
-157.381
0
LINE
8
BLACK
6
CONTINUOUS
10
153.475
20
-157.381
11
153.57
21
-156.905
0
LINE
8
BLACK
6
CONTINUOUS
10
153.57
20
-156.905
11
153.666
21
-156.619
0
LINE
8
BLACK
6
CONTINUOUS
10
153.666
20
-156.619
11
153.761
21
-156.428
0
LINE
8
BLACK
6
CONTINUOUS
10
153.761
20
-156.428
11
153.951
21
-156.143
0
LINE
8
BLACK
6
CONTINUOUS
10
153.951
20
-156.143
11
154.047
21
-156.047
0
LINE
8
BLACK
6
CONTINUOUS
10
154.809
20
-157
11
154.809
21
-158.333
0
LINE
8
BLACK
6
CONTINUOUS
10
154.809
20
-157.19
11
154.904
21
-157.095
0
LINE
8
BLACK
6
CONTINUOUS
10
154.904
20
-157.095
11
155.094
21
-157
0
LINE
8
BLACK
6
CONTINUOUS
10
155.094
20
-157
11
155.38
21
-157
0
LINE
8
BLACK
6
CONTINUOUS
10
155.38
20
-157
11
155.57
21
-157.095
0
LINE
8
BLACK
6
CONTINUOUS
10
155.57
20
-157.095
11
155.666
21
-157.285
0
LINE
8
BLACK
6
CONTINUOUS
10
155.666
20
-157.285
11
155.666
21
-158.333
0
LINE
8
BLACK
6
CONTINUOUS
10
156.904
20
-158.333
11
156.713
21
-158.238
0
LINE
8
BLACK
6
CONTINUOUS
10
156.713
20
-158.238
11
156.618
21
-158.143
0
LINE
8
BLACK
6
CONTINUOUS
10
156.618
20
-158.143
11
156.523
21
-157.952
0
LINE
8
BLACK
6
CONTINUOUS
10
156.523
20
-157.952
11
156.523
21
-157.381
0
LINE
8
BLACK
6
CONTINUOUS
10
156.523
20
-157.381
11
156.618
21
-157.19
0
LINE
8
BLACK
6
CONTINUOUS
10
156.618
20
-157.19
11
156.713
21
-157.095
0
LINE
8
BLACK
6
CONTINUOUS
10
156.713
20
-157.095
11
156.904
21
-157
0
LINE
8
BLACK
6
CONTINUOUS
10
156.904
20
-157
11
157.19
21
-157
0
LINE
8
BLACK
6
CONTINUOUS
10
157.19
20
-157
11
157.38
21
-157.095
0
LINE
8
BLACK
6
CONTINUOUS
10
157.38
20
-157.095
11
157.475
21
-157.19
0
LINE
8
BLACK
6
CONTINUOUS
10
157.475
20
-157.19
11
157.57
21
-157.381
0
LINE
8
BLACK
6
CONTINUOUS
10
157.57
20
-157.381
11
157.57
21
-157.952
0
LINE
8
BLACK
6
CONTINUOUS
10
157.57
20
-157.952
11
157.475
21
-158.143
0
LINE
8
BLACK
6
CONTINUOUS
10
157.475
20
-158.143
11
157.38
21
-158.238
0
LINE
8
BLACK
6
CONTINUOUS
10
157.38
20
-158.238
11
157.19
21
-158.333
0
LINE
8
BLACK
6
CONTINUOUS
10
157.19
20
-158.333
11
156.904
21
-158.333
0
LINE
8
BLACK
6
CONTINUOUS
10
158.142
20
-157
11
158.904
21
-157
0
LINE
8
BLACK
6
CONTINUOUS
10
158.428
20
-156.333
11
158.428
21
-158.047
0
LINE
8
BLACK
6
CONTINUOUS
10
158.428
20
-158.047
11
158.523
21
-158.238
0
LINE
8
BLACK
6
CONTINUOUS
10
158.523
20
-158.238
11
158.713
21
-158.333
0
LINE
8
BLACK
6
CONTINUOUS
10
158.713
20
-158.333
11
158.904
21
-158.333
0
LINE
8
BLACK
6
CONTINUOUS
10
161.094
20
-157
11
161.094
21
-159
0
LINE
8
BLACK
6
CONTINUOUS
10
161.094
20
-157.095
11
161.285
21
-157
0
LINE
8
BLACK
6
CONTINUOUS
10
161.285
20
-157
11
161.666
21
-157
0
LINE
8
BLACK
6
CONTINUOUS
10
161.666
20
-157
11
161.856
21
-157.095
0
LINE
8
BLACK
6
CONTINUOUS
10
161.856
20
-157.095
11
161.951
21
-157.19
0
LINE
8
BLACK
6
CONTINUOUS
10
161.951
20
-157.19
11
162.047
21
-157.381
0
LINE
8
BLACK
6
CONTINUOUS
10
162.047
20
-157.381
11
162.047
21
-157.952
0
LINE
8
BLACK
6
CONTINUOUS
10
162.047
20
-157.952
11
161.951
21
-158.143
0
LINE
8
BLACK
6
CONTINUOUS
10
161.951
20
-158.143
11
161.856
21
-158.238
0
LINE
8
BLACK
6
CONTINUOUS
10
161.856
20
-158.238
11
161.666
21
-158.333
0
LINE
8
BLACK
6
CONTINUOUS
10
161.666
20
-158.333
11
161.285
21
-158.333
0
LINE
8
BLACK
6
CONTINUOUS
10
161.285
20
-158.333
11
161.094
21
-158.238
0
LINE
8
BLACK
6
CONTINUOUS
10
163.19
20
-158.333
11
162.999
21
-158.238
0
LINE
8
BLACK
6
CONTINUOUS
10
162.999
20
-158.238
11
162.904
21
-158.047
0
LINE
8
BLACK
6
CONTINUOUS
10
162.904
20
-158.047
11
162.904
21
-156.333
0
LINE
8
BLACK
6
CONTINUOUS
10
164.809
20
-158.333
11
164.809
21
-157.285
0
LINE
8
BLACK
6
CONTINUOUS
10
164.809
20
-157.285
11
164.713
21
-157.095
0
LINE
8
BLACK
6
CONTINUOUS
10
164.713
20
-157.095
11
164.523
21
-157
0
LINE
8
BLACK
6
CONTINUOUS
10
164.523
20
-157
11
164.142
21
-157
0
LINE
8
BLACK
6
CONTINUOUS
10
164.142
20
-157
11
163.951
21
-157.095
0
LINE
8
BLACK
6
CONTINUOUS
10
164.809
20
-158.238
11
164.618
21
-158.333
0
LINE
8
BLACK
6
CONTINUOUS
10
164.618
20
-158.333
11
164.142
21
-158.333
0
LINE
8
BLACK
6
CONTINUOUS
10
164.142
20
-158.333
11
163.951
21
-158.238
0
LINE
8
BLACK
6
CONTINUOUS
10
163.951
20
-158.238
11
163.856
21
-158.047
0
LINE
8
BLACK
6
CONTINUOUS
10
163.856
20
-158.047
11
163.856
21
-157.857
0
LINE
8
BLACK
6
CONTINUOUS
10
163.856
20
-157.857
11
163.951
21
-157.666
0
LINE
8
BLACK
6
CONTINUOUS
10
163.951
20
-157.666
11
164.142
21
-157.571
0
LINE
8
BLACK
6
CONTINUOUS
10
164.142
20
-157.571
11
164.618
21
-157.571
0
LINE
8
BLACK
6
CONTINUOUS
10
164.618
20
-157.571
11
164.809
21
-157.476
0
LINE
8
BLACK
6
CONTINUOUS
10
165.475
20
-157
11
166.237
21
-157
0
LINE
8
BLACK
6
CONTINUOUS
10
165.761
20
-156.333
11
165.761
21
-158.047
0
LINE
8
BLACK
6
CONTINUOUS
10
165.761
20
-158.047
11
165.856
21
-158.238
0
LINE
8
BLACK
6
CONTINUOUS
10
165.856
20
-158.238
11
166.047
21
-158.333
0
LINE
8
BLACK
6
CONTINUOUS
10
166.047
20
-158.333
11
166.237
21
-158.333
0
LINE
8
BLACK
6
CONTINUOUS
10
167.666
20
-158.238
11
167.475
21
-158.333
0
LINE
8
BLACK
6
CONTINUOUS
10
167.475
20
-158.333
11
167.094
21
-158.333
0
LINE
8
BLACK
6
CONTINUOUS
10
167.094
20
-158.333
11
166.904
21
-158.238
0
LINE
8
BLACK
6
CONTINUOUS
10
166.904
20
-158.238
11
166.809
21
-158.047
0
LINE
8
BLACK
6
CONTINUOUS
10
166.809
20
-158.047
11
166.809
21
-157.285
0
LINE
8
BLACK
6
CONTINUOUS
10
166.809
20
-157.285
11
166.904
21
-157.095
0
LINE
8
BLACK
6
CONTINUOUS
10
166.904
20
-157.095
11
167.094
21
-157
0
LINE
8
BLACK
6
CONTINUOUS
10
167.094
20
-157
11
167.475
21
-157
0
LINE
8
BLACK
6
CONTINUOUS
10
167.475
20
-157
11
167.666
21
-157.095
0
LINE
8
BLACK
6
CONTINUOUS
10
167.666
20
-157.095
11
167.761
21
-157.285
0
LINE
8
BLACK
6
CONTINUOUS
10
167.761
20
-157.285
11
167.761
21
-157.476
0
LINE
8
BLACK
6
CONTINUOUS
10
167.761
20
-157.476
11
166.809
21
-157.666
0
LINE
8
BLACK
6
CONTINUOUS
10
169.475
20
-158.333
11
169.475
21
-156.333
0
LINE
8
BLACK
6
CONTINUOUS
10
169.475
20
-158.238
11
169.285
21
-158.333
0
LINE
8
BLACK
6
CONTINUOUS
10
169.285
20
-158.333
11
168.904
21
-158.333
0
LINE
8
BLACK
6
CONTINUOUS
10
168.904
20
-158.333
11
168.713
21
-158.238
0
LINE
8
BLACK
6
CONTINUOUS
10
168.713
20
-158.238
11
168.618
21
-158.143
0
LINE
8
BLACK
6
CONTINUOUS
10
168.618
20
-158.143
11
168.523
21
-157.952
0
LINE
8
BLACK
6
CONTINUOUS
10
168.523
20
-157.952
11
168.523
21
-157.381
0
LINE
8
BLACK
6
CONTINUOUS
10
168.523
20
-157.381
11
168.618
21
-157.19
0
LINE
8
BLACK
6
CONTINUOUS
10
168.618
20
-157.19
11
168.713
21
-157.095
0
LINE
8
BLACK
6
CONTINUOUS
10
168.713
20
-157.095
11
168.904
21
-157
0
LINE
8
BLACK
6
CONTINUOUS
10
168.904
20
-157
11
169.285
21
-157
0
LINE
8
BLACK
6
CONTINUOUS
10
169.285
20
-157
11
169.475
21
-157.095
0
LINE
8
BLACK
6
CONTINUOUS
10
170.237
20
-159.095
11
170.332
21
-159
0
LINE
8
BLACK
6
CONTINUOUS
10
170.332
20
-159
11
170.523
21
-158.714
0
LINE
8
BLACK
6
CONTINUOUS
10
170.523
20
-158.714
11
170.618
21
-158.524
0
LINE
8
BLACK
6
CONTINUOUS
10
170.618
20
-158.524
11
170.713
21
-158.238
0
LINE
8
BLACK
6
CONTINUOUS
10
170.713
20
-158.238
11
170.809
21
-157.762
0
LINE
8
BLACK
6
CONTINUOUS
10
170.809
20
-157.762
11
170.809
21
-157.381
0
LINE
8
BLACK
6
CONTINUOUS
10
170.809
20
-157.381
11
170.713
21
-156.905
0
LINE
8
BLACK
6
CONTINUOUS
10
170.713
20
-156.905
11
170.618
21
-156.619
0
LINE
8
BLACK
6
CONTINUOUS
10
170.618
20
-156.619
11
170.523
21
-156.428
0
LINE
8
BLACK
6
CONTINUOUS
10
170.523
20
-156.428
11
170.332
21
-156.143
0
LINE
8
BLACK
6
CONTINUOUS
10
170.332
20
-156.143
11
170.237
21
-156.047
  0
ENDSEC
  0
EOF
